<?xml version="1.0" encoding="utf-8"?>
<svg width="100" height="99.999" viewBox="0 0 100 99.999" fill="none" xmlns="http://www.w3.org/2000/svg">
  <g>
    <path d="M70.704 0C79.756 9.051 85.355 21.551 85.355 35.36C85.355 62.976 62.969 85.363 35.354 85.363C21.548 85.363 9.04901 79.767 0 70.717C0 70.717 70.704 0 70.704 0Z" fill="#BAB1AB" transform="translate(14.645 14.636)" />
    <path d="M14.646 85.353C5.59698 76.306 0 63.804 0 49.997C0 22.384 22.386 0 49.999 0C63.803 0 76.301 5.594 85.349 14.637C85.349 14.637 14.646 85.353 14.646 85.353Z" fill="#F8F6D8" />
    <path d="M39.8461 20.014C39.8461 22.715 38.8641 24.558 36.8991 25.539C36.3251 25.826 34.5251 26.217 31.4951 26.705C29.5321 27.035 28.5491 27.791 28.5491 28.976C28.5491 28.976 28.5491 33.949 28.5491 33.949C28.5491 34.158 28.6121 34.791 28.7341 35.854C28.7341 35.854 28.9191 37.82 28.9191 37.82C28.9191 38.433 28.7751 39.437 28.4881 40.828C27.7111 40.991 26.8101 41.176 25.7871 41.383C25.4591 40.153 25.2961 39.314 25.2961 38.863C25.2961 38.66 25.3461 38.351 25.4491 37.942C25.5511 37.535 25.6031 37.226 25.6031 37.02C25.6031 36.736 25.3501 35.937 24.8411 34.626C24.8411 34.626 23.8881 34.626 23.8881 34.626C23.7621 34.831 23.7211 35.098 23.761 35.423C23.925 36.12 23.986 36.712 23.947 37.204C23.25 37.695 22.29 38.35 21.062 39.169C20.773 39.087 20.673 39.046 20.754 39.046C20.754 39.046 20.754 34.687 20.754 34.687C20.673 34.484 20.4691 34.402 20.14 34.441C20.14 34.441 19.403 34.441 19.403 34.441C19.403 34.441 18.666 40.212 18.666 40.212C18.093 40.253 17.398 40.253 16.58 40.212C16.293 38.861 15.781 36.858 15.045 34.195C15.045 34.195 14.5521 34.195 14.5521 34.195C14.1021 35.628 13.8571 36.406 13.8151 36.529C13.8151 36.692 13.8671 37.008 13.9701 37.48C14.0721 37.952 14.1231 38.267 14.1231 38.431C14.1231 38.553 14.0811 38.861 13.9981 39.352C13.9981 39.352 13.8141 40.827 13.8141 40.827C13.7311 40.906 13.6311 40.947 13.5081 40.947C12.28 40.947 11.4601 40.64 11.053 40.028C10.6411 39.413 10.4771 38.553 10.5601 37.448C10.5601 37.448 11.053 30.083 11.053 30.083C11.053 29.96 11.092 29.796 11.174 29.591C11.256 29.388 11.297 29.243 11.297 29.163C11.297 28.835 10.949 28.179 10.254 27.195C10.131 27.155 9.49695 27.01 8.34998 26.764C7.65497 26.602 6.284 26.315 4.23798 25.907C1.41296 25.376 0 23.104 0 19.093C0 13.115 2.45697 8.14401 7.367 4.17302C7.57098 5.27902 7.92102 6.75102 8.41199 8.59302C8.77997 8.67702 9.57898 8.86201 10.806 9.14702C11.053 9.22801 12.3 9.67902 14.551 10.498C13.4059 9.80301 11.9109 8.68002 10.071 7.12302C9.37396 6.30502 9.02496 4.93301 9.02496 3.01001C9.02496 2.55801 9.80298 2.02802 11.36 1.41C12.751 0.837997 13.794 0.514008 14.491 0.431C16.7 0.145004 18.399 0 19.587 0C24.702 0 28.837 1.311 31.988 3.93201C30.966 5.12001 29.205 6.38501 26.709 7.73801C27.691 7.77901 29.124 7.39101 31.007 6.57001C32.889 5.755 33.687 5.34201 33.4009 5.34201C33.728 5.34201 34.3839 5.99802 35.366 7.30701C36.1 8.289 36.6949 9.17001 37.146 9.94701C38.456 12.28 39.336 14.8 39.787 17.499C39.787 18.441 39.807 19.116 39.848 19.524C39.848 19.524 39.8461 20.014 39.8461 20.014L39.8461 20.014C39.8461 20.014 39.8461 20.014 39.8461 20.014ZM16.3301 21.122C16.3301 19.361 15.5631 17.693 14.0291 16.116C12.4931 14.54 10.8431 13.753 9.08514 13.753C7.53015 13.753 6.16016 14.413 4.97217 15.731C3.78516 17.05 3.19214 18.513 3.19214 20.121C3.19214 21.521 3.86713 22.43 5.21814 22.84C6.07812 23.088 7.28412 23.232 8.83911 23.274C8.83911 23.274 12.2161 23.274 12.2161 23.274C14.9591 23.309 16.3301 22.592 16.3301 21.122C16.3301 21.122 16.3301 21.122 16.3301 21.122ZM23.0231 28.734C23.0231 28.734 23.0231 26.833 23.0231 26.833C22.7371 26.3 22.4501 25.745 22.1652 25.173C21.9192 24.356 21.4681 23.21 20.8141 21.734C20.8141 21.734 20.1381 28.918 20.1381 28.918C20.1381 29.494 20.0161 29.779 19.7691 29.779C19.6061 29.779 19.4821 29.739 19.4011 29.656C19.1141 25.318 18.9721 23.434 18.9721 24.01C18.9721 24.01 18.9721 21.862 18.9721 21.862C18.8891 21.736 18.7871 21.674 18.6641 21.674C17.2731 23.111 16.5781 25.422 16.5781 28.612C16.5781 30.373 16.7411 31.457 17.0681 31.869C17.3971 31.787 17.7631 31.643 18.1741 31.438C18.3372 31.355 18.8071 31.315 19.5851 31.315C20.3602 31.315 21.3051 31.56 22.4081 32.05C22.8192 32.047 23.0231 30.945 23.0231 28.734C23.0231 28.734 23.0231 28.734 23.0231 28.734ZM36.8991 20.178C36.8991 18.532 36.2851 17.059 35.0571 15.76C33.8291 14.463 32.4171 13.815 30.8231 13.815C29.1031 13.815 27.4951 14.602 26.0021 16.176C24.5071 17.752 23.7601 19.4 23.7601 21.121C23.7601 22.553 24.4572 23.268 25.8481 23.268C25.8481 23.268 32.9072 23.268 32.9072 23.268C35.5692 23.228 36.8991 22.2 36.8991 20.178C36.8991 20.178 36.8991 20.178 36.8991 20.178Z" fill="#0D0F0F" transform="translate(50 46)" />
    <path d="M39.6341 27.755C37.1981 25.491 35.5801 24.263 34.7861 24.073C34.209 23.934 33.6511 24.27 33.1141 25.078C32.5771 25.886 31.8221 26.173 30.8461 25.936C30.4491 25.842 29.6711 25.504 28.5131 24.92C27.5751 25.805 27.0721 26.391 27.0021 26.678C26.9071 27.075 27.0911 27.616 27.5521 28.301C28.0121 28.984 28.446 29.371 28.8531 29.469C29.1101 29.532 29.4751 29.561 29.9431 29.559C30.4111 29.559 30.7201 29.574 30.8691 29.61C31.3131 29.715 31.3381 30.581 30.9481 32.207C30.5781 33.759 29.6461 36.06 28.1541 39.099C28.0961 35.191 27.5451 33.111 26.4991 32.861C26.3541 32.826 26.0301 32.864 25.5271 32.972C25.0221 33.078 24.6631 33.11 24.4471 33.058C23.3991 32.808 22.6891 31.624 22.3161 29.511C20.5941 29.366 19.5591 30.017 19.2131 31.46C19.0401 32.185 19.2371 32.843 19.8021 33.435C20.3661 34.029 20.626 34.416 20.5851 34.595C20.3531 35.573 18.5641 36.728 15.2301 38.069C13.4531 38.792 12.2231 39.298 11.5421 39.593C12.2011 39.064 12.9111 38.335 13.6681 37.408C14.5301 36.354 15.0401 35.503 15.1961 34.85C15.2821 34.493 14.9881 33.885 14.3131 33.037C13.6371 32.186 13.3871 31.403 13.5601 30.683C13.7061 30.067 14.1031 29.362 14.7531 28.56C14.4131 27.907 13.9191 27.501 13.2691 27.347C11.8251 26.999 10.9901 27.296 10.7651 28.237C10.9211 27.588 10.8041 28.075 10.4161 29.701C10.1661 30.899 9.12006 31.279 7.27808 30.84C5.86908 30.504 3.58209 29.612 0.414062 28.168C4.39606 28.127 6.53308 27.493 6.82605 26.264C6.79303 26.41 6.82306 25.957 6.92206 24.911C7.04504 23.76 8.08203 22.935 10.03 22.447C10.103 20.711 9.43701 19.672 8.02704 19.336C7.81104 19.281 7.32104 19.565 6.56403 20.186C5.80402 20.807 5.17102 21.057 4.66602 20.936C3.79901 20.729 2.90399 19.522 1.98199 17.315C1.55597 16.219 0.89502 14.592 0 12.43C0.72699 13.061 1.453 13.696 2.18103 14.326C3.14404 15.092 3.95105 15.551 4.60004 15.708C5.10602 15.828 5.70801 15.506 6.40802 14.735C7.10602 13.968 7.854 13.679 8.64801 13.869C8.75903 13.894 9.42804 14.283 10.66 15.038C11.597 14.156 12.126 13.461 12.248 12.954C12.35 12.522 12.2081 11.963 11.817 11.276C11.428 10.591 11.015 10.198 10.582 10.091C10.401 10.048 10.11 10.034 9.70502 10.054C9.29901 10.072 9.00604 10.06 8.82599 10.015C8.17596 9.86001 8.04498 8.97001 8.43396 7.34501C8.53595 6.90901 9.54498 4.53601 11.4559 0.220009C11.2899 0.751007 11.283 1.82101 11.4349 3.42501C11.616 5.37801 12.1219 6.44901 12.9529 6.65101C13.0969 6.68501 13.4119 6.64601 13.8979 6.53201C14.3829 6.42001 14.751 6.39201 15.0029 6.454C15.8329 6.654 16.4069 7.287 16.7249 8.355C16.7249 8.355 17.1879 10.011 17.1879 10.011C17.9449 10.193 18.6429 10.074 19.2769 9.654C19.9129 9.233 20.3229 8.642 20.5039 7.884C20.6929 7.091 20.5039 6.40501 19.9359 5.828C19.3659 5.25301 19.1069 4.857 19.1609 4.64C19.3419 3.882 20.8409 2.886 23.6559 1.653C25.9159 0.666 27.3649 0.113998 28.0049 0C25.9509 1.725 24.8059 3.07 24.5739 4.047C24.4529 4.55299 24.6288 5.17 25.1049 5.895C25.6998 6.76199 26.0168 7.354 26.0549 7.666C26.2169 8.586 25.9089 9.715 25.1309 11.055C25.9418 11.975 26.5999 12.494 27.1078 12.617C28.1519 12.867 28.8068 12.45 29.0659 11.367C29.0928 11.259 29.1288 10.905 29.1779 10.307C29.2239 9.70501 29.2759 9.37401 29.3289 9.30901C29.5959 8.83801 30.6489 8.825 32.4908 9.26401C33.6469 9.54101 35.9698 10.44 39.4628 11.963C38.6168 11.989 37.3468 12.028 35.6538 12.083C34.1048 12.17 33.2658 12.486 33.1348 13.028C33.0758 13.28 33.0609 13.735 33.0948 14.392C33.1288 15.048 33.1108 15.523 33.0419 15.81C32.9219 16.317 32.4839 16.706 31.7309 16.986C31.7309 16.986 29.5749 17.845 29.5749 17.845C29.8209 18.744 29.9949 19.283 30.1059 19.46C30.3649 19.981 30.7989 20.315 31.4129 20.462C31.8469 20.566 32.3349 20.281 32.8779 19.608C33.4199 18.936 34.0899 18.697 34.8839 18.885C35.8589 19.118 36.7449 20.284 37.5419 22.385C37.9831 23.561 38.6811 25.35 39.6341 27.755C39.6341 27.755 39.6341 27.755 39.6341 27.755ZM28.3591 21.735C28.9111 19.424 28.5421 17.214 27.2512 15.111C25.9592 13.007 24.1572 11.678 21.8472 11.128C19.4982 10.564 17.2742 10.919 15.1761 12.194C13.0781 13.465 11.7281 15.272 11.1312 17.611C10.5411 19.914 10.9211 22.116 12.2722 24.215C13.6221 26.311 15.4521 27.639 17.7651 28.192C20.2202 28.778 22.4631 28.465 24.4901 27.253C26.5151 26.038 27.8051 24.197 28.3591 21.735C28.3591 21.735 28.3591 21.735 28.3591 21.735ZM27.5451 21.54C27.0181 23.743 25.8421 25.392 24.0151 26.479C22.1891 27.571 20.1721 27.852 17.9711 27.325C15.8401 26.815 14.1941 25.637 13.0311 23.794C11.868 21.951 11.5421 19.966 12.0521 17.832C12.5551 15.737 13.7501 14.124 15.644 12.991C17.54 11.862 19.533 11.548 21.627 12.048C23.721 12.548 25.355 13.741 26.526 15.625C27.6971 17.511 28.0381 19.479 27.5451 21.54C27.5451 21.54 27.5451 21.54 27.5451 21.54Z" fill="#0D0F0F" transform="translate(16 11)" />
  </g>
</svg>