<?xml version="1.0" encoding="utf-8"?>
<svg width="100" height="99.999" viewBox="0 0 100 99.999" fill="none" xmlns="http://www.w3.org/2000/svg">
  <g>
    <g>
      <path d="M70.704 0C79.756 9.051 85.355 21.551 85.355 35.36C85.355 62.976 62.968 85.363 35.354 85.363C21.548 85.363 9.04901 79.767 0 70.717C0 70.717 70.704 0 70.704 0Z" fill="#C1D7E9" transform="translate(14.645 14.636)" />
      <path d="M14.646 85.353C5.59698 76.306 0 63.804 0 49.997C0 22.384 22.386 0 49.999 0C63.803 0 76.301 5.594 85.349 14.637C85.349 14.637 14.646 85.353 14.646 85.353Z" fill="#F8F6D8" />
    </g>
    <path d="M24.147 41.158C21.454 43.897 18.14 45.267 14.201 45.267C9.77808 45.267 6.27106 43.752 3.67603 40.726C1.224 37.842 0 34.168 0 29.698C0 24.894 2.09003 19.417 6.271 13.264C9.68097 8.217 13.694 3.797 18.308 0C17.636 3.076 17.299 5.26199 17.299 6.561C17.299 9.541 18.234 12.447 20.111 15.282C22.416 18.647 24.171 21.146 25.372 22.778C27.246 25.613 28.185 28.378 28.185 31.067C28.184 35.057 26.837 38.421 24.147 41.158C24.147 41.158 24.147 41.158 24.147 41.158ZM24.076 25.77C23.3541 24.161 22.5131 23.09 21.5521 22.562C21.6971 22.85 21.7681 23.26 21.7681 23.788C21.7681 24.798 21.4811 26.241 20.9041 28.112C20.9041 28.112 19.9661 30.997 19.9661 30.997C19.9661 32.677 20.8061 33.519 22.4901 33.519C24.2661 33.519 25.157 32.342 25.157 29.987C25.1561 28.786 24.796 27.379 24.076 25.77C24.076 25.77 24.076 25.77 24.076 25.77Z" fill="#0D0F0F" transform="translate(52 43)" />
    <path d="M39.6341 27.755C37.1981 25.491 35.5801 24.263 34.7861 24.073C34.209 23.934 33.6511 24.27 33.1141 25.078C32.5771 25.886 31.8221 26.173 30.8461 25.936C30.4491 25.842 29.6711 25.502 28.5131 24.92C27.5751 25.805 27.0721 26.391 27.0021 26.678C26.9071 27.075 27.0911 27.616 27.5521 28.299C28.0121 28.984 28.446 29.371 28.8531 29.469C29.1101 29.532 29.4751 29.561 29.9431 29.559C30.4111 29.557 30.7201 29.574 30.8691 29.61C31.3131 29.714 31.3381 30.581 30.9481 32.207C30.5781 33.759 29.6461 36.06 28.1541 39.099C28.0961 35.191 27.5451 33.111 26.4991 32.861C26.3541 32.826 26.0301 32.864 25.5271 32.972C25.0221 33.078 24.6631 33.11 24.4471 33.058C23.3991 32.806 22.6891 31.624 22.3161 29.511C20.5941 29.366 19.5591 30.017 19.2131 31.46C19.0401 32.185 19.2371 32.843 19.8021 33.435C20.3661 34.029 20.626 34.415 20.5851 34.595C20.3531 35.573 18.5641 36.728 15.2301 38.069C13.4531 38.79 12.2231 39.297 11.5421 39.591C12.2011 39.064 12.9111 38.334 13.6681 37.408C14.5301 36.352 15.0401 35.503 15.1961 34.85C15.2821 34.491 14.9881 33.883 14.3131 33.035C13.6371 32.186 13.3871 31.402 13.5601 30.681C13.7061 30.067 14.1031 29.362 14.7531 28.56C14.4131 27.907 13.9191 27.5 13.2691 27.345C11.8251 26.999 10.9901 27.296 10.7651 28.237C10.9211 27.588 10.8041 28.075 10.4161 29.699C10.1661 30.899 9.12006 31.279 7.27808 30.84C5.86908 30.501 3.58209 29.611 0.414062 28.167C4.39606 28.127 6.53308 27.492 6.82605 26.264C6.79303 26.41 6.82306 25.957 6.92206 24.911C7.04504 23.758 8.08203 22.935 10.03 22.447C10.103 20.709 9.43701 19.672 8.02704 19.333C7.81104 19.281 7.32104 19.565 6.56403 20.186C5.80402 20.807 5.17102 21.057 4.66602 20.934C3.79901 20.729 2.90399 19.522 1.98199 17.315C1.55597 16.219 0.89502 14.592 0 12.43C0.72699 13.061 1.453 13.696 2.18103 14.326C3.14404 15.092 3.95105 15.551 4.60004 15.708C5.10602 15.828 5.70801 15.504 6.40802 14.735C7.10602 13.966 7.854 13.677 8.64801 13.869C8.75903 13.894 9.42804 14.283 10.66 15.038C11.597 14.154 12.126 13.461 12.248 12.954C12.35 12.519 12.2081 11.963 11.817 11.276C11.428 10.591 11.015 10.198 10.582 10.091C10.401 10.048 10.11 10.034 9.70502 10.054C9.29901 10.072 9.00604 10.058 8.82599 10.015C8.17596 9.86001 8.04498 8.97001 8.43396 7.34301C8.53595 6.90901 9.54498 4.53501 11.4559 0.220009C11.2899 0.751007 11.283 1.82101 11.4349 3.42301C11.616 5.37601 12.1219 6.44901 12.9529 6.65101C13.0969 6.68501 13.4119 6.64601 13.8979 6.53201C14.3829 6.42001 14.751 6.39201 15.0029 6.454C15.8329 6.652 16.4069 7.287 16.7249 8.355C16.7249 8.355 17.1879 10.011 17.1879 10.011C17.9449 10.193 18.6429 10.074 19.2769 9.653C19.9129 9.233 20.3229 8.642 20.5039 7.884C20.6929 7.089 20.5039 6.40501 19.9359 5.828C19.3659 5.25301 19.1069 4.857 19.1609 4.64C19.3419 3.882 20.8409 2.886 23.6559 1.651C25.9159 0.666 27.3649 0.113998 28.0049 0C25.9509 1.725 24.8059 3.07 24.5739 4.047C24.4529 4.55299 24.6288 5.17 25.1049 5.895C25.6998 6.76199 26.0168 7.354 26.0549 7.666C26.2169 8.586 25.9089 9.713 25.1309 11.055C25.9418 11.975 26.5999 12.494 27.1078 12.617C28.1519 12.867 28.8068 12.45 29.0659 11.367C29.0928 11.259 29.1288 10.905 29.1779 10.305C29.2239 9.70501 29.2759 9.37401 29.3289 9.30901C29.5959 8.83801 30.6489 8.82301 32.4908 9.26401C33.6469 9.54101 35.9698 10.44 39.4628 11.963C38.6168 11.989 37.3468 12.028 35.6538 12.083C34.1048 12.17 33.2658 12.485 33.1348 13.026C33.0758 13.28 33.0609 13.734 33.0948 14.39C33.1288 15.046 33.1108 15.523 33.0419 15.81C32.9219 16.317 32.4839 16.706 31.7309 16.986C31.7309 16.986 29.5749 17.845 29.5749 17.845C29.8209 18.742 29.9949 19.283 30.1059 19.46C30.3649 19.98 30.7989 20.314 31.4129 20.462C31.8469 20.566 32.3349 20.281 32.8779 19.608C33.4199 18.936 34.0899 18.696 34.8839 18.885C35.8589 19.117 36.7449 20.283 37.5419 22.385C37.9831 23.559 38.6811 25.35 39.6341 27.755C39.6341 27.755 39.6341 27.755 39.6341 27.755ZM28.3591 21.734C28.9111 19.422 28.5421 17.213 27.2512 15.111C25.9592 13.007 24.1572 11.678 21.8472 11.125C19.4982 10.563 17.2742 10.919 15.1761 12.194C13.0781 13.465 11.7281 15.272 11.1312 17.611C10.5411 19.914 10.9211 22.116 12.2722 24.214C13.6221 26.314 15.4521 27.64 17.7651 28.193C20.2202 28.78 22.4631 28.468 24.4901 27.252C26.5151 26.038 27.8051 24.197 28.3591 21.734C28.3591 21.734 28.3591 21.734 28.3591 21.734ZM27.5451 21.54C27.0181 23.743 25.8421 25.392 24.0151 26.479C22.1891 27.569 20.1721 27.852 17.9711 27.325C15.8401 26.815 14.1941 25.637 13.0311 23.794C11.868 21.951 11.5421 19.966 12.0521 17.832C12.5551 15.737 13.7501 14.124 15.644 12.991C17.54 11.862 19.533 11.546 21.627 12.048C23.721 12.548 25.355 13.741 26.526 15.625C27.6971 17.511 28.0381 19.479 27.5451 21.54C27.5451 21.54 27.5451 21.54 27.5451 21.54Z" fill="#0D0F0F" transform="translate(14 11)" />
  </g>
</svg>