<?xml version="1.0" encoding="utf-8"?>
<svg width="100" height="99.999" viewBox="0 0 100 99.999" fill="none" xmlns="http://www.w3.org/2000/svg">
  <g>
    <g>
      <path d="M70.703 0C79.756 9.051 85.354 21.551 85.354 35.36C85.354 62.976 62.967 85.363 35.354 85.363C21.547 85.363 9.04901 79.767 0 70.717C0 70.717 70.703 0 70.703 0Z" fill="#A3C095" transform="translate(14.646 14.636)" />
      <path d="M14.646 85.353C5.59599 76.306 0 63.804 0 49.997C0 22.384 22.387 0 50 0C63.802 0 76.301 5.594 85.349 14.637C85.349 14.637 14.646 85.353 14.646 85.353Z" fill="#E49977" />
    </g>
    <path d="M34.818 27.505C33.1 31.604 29.688 33.651 24.578 33.651C23.641 33.651 22.626 33.766 21.534 34.001C19.895 34.354 19.077 34.842 19.077 35.466C19.077 35.661 19.213 35.884 19.486 36.14C19.758 36.393 19.994 36.52 20.189 36.52C19.212 36.52 19.876 36.55 22.176 36.606C24.478 36.666 25.922 36.695 26.508 36.695C23.113 38.683 17.438 39.601 9.479 39.445C6.86501 39.408 4.62201 38.257 2.75 35.994C0.916 33.848 0 31.449 0 28.798C0 25.988 0.945007 23.599 2.839 21.627C4.729 19.66 7.08101 18.674 9.89 18.674C10.513 18.674 11.343 18.811 12.376 19.082C13.41 19.355 14.103 19.492 14.453 19.492C15.897 19.492 17.691 18.895 19.837 17.707C21.983 16.517 22.998 15.922 22.881 15.922C22.49 20.018 21.125 22.77 18.784 24.173C17.105 25.151 16.268 26.106 16.268 27.039C16.268 27.625 16.617 28.094 17.32 28.445C17.866 28.716 18.471 28.853 19.135 28.853C20.149 28.853 21.143 28.23 22.119 26.982C23.093 25.734 23.522 24.602 23.405 23.586C23.29 22.415 23.368 21.01 23.64 19.374C23.717 18.903 24.001 18.329 24.488 17.647C24.976 16.963 25.416 16.543 25.805 16.386C25.805 16.739 25.677 17.324 25.424 18.141C25.17 18.96 25.044 19.569 25.044 19.955C25.044 20.814 25.277 21.477 25.746 21.945C26.448 21.674 27.071 20.795 27.618 19.311C28.086 18.18 28.358 17.087 28.438 16.035C26.798 15.96 25.227 15.217 23.726 13.81C22.224 12.406 21.474 10.884 21.474 9.247C21.474 8.975 21.511 8.7 21.591 8.428C21.823 8.781 22.174 9.327 22.645 10.068C23.306 11.041 23.815 11.529 24.166 11.529C24.634 11.529 24.867 11.041 24.867 10.068C24.867 8.82 24.536 7.689 23.873 6.673C23.131 5.46201 22.175 4.859 21.006 4.859C20.458 4.859 19.64 5.152 18.548 5.738C17.455 6.322 16.46 6.615 15.566 6.615C15.292 6.615 14.082 6.261 11.936 5.56C15.719 4.936 17.612 4.37099 17.612 3.863C17.612 2.537 15.018 1.639 9.82899 1.173C9.32199 1.13499 8.38699 1.057 7.021 0.937996C7.17599 0.744995 8.289 0.529999 10.357 0.293999C12.112 0.101997 13.34 0 14.042 0C23.327 0 29.217 4.508 31.715 13.521C32.146 13.164 32.361 12.572 32.361 11.742C32.361 10.673 32.048 9.328 31.424 7.70701C31.189 7.07401 30.817 6.12301 30.311 4.85901C33.508 8.93401 35.111 12.797 35.111 16.443C35.111 18.363 34.66 20.109 33.763 21.673C33.18 22.734 32.085 24.085 30.487 25.732C28.888 27.378 27.796 28.652 27.21 29.554C29.356 28.968 30.762 28.518 31.425 28.206C32.905 27.543 34.252 26.547 35.461 25.222C35.46 25.733 35.245 26.492 34.818 27.505C34.818 27.505 34.818 27.505 34.818 27.505ZM9.30301 4.50802C9.30301 5.21002 8.912 5.65802 8.13301 5.85602C8.13301 5.85602 6.61201 6.08902 6.61201 6.08902C6.06401 6.36002 5.26501 7.43502 4.21402 9.30702C4.09602 8.72302 3.92102 7.90302 3.68602 6.84902C3.33502 6.88802 2.75002 7.20202 1.93102 7.78602C1.58002 8.05802 1.01401 8.47002 0.233017 9.01501C0.468018 7.61102 1.25002 6.18902 2.57501 4.74401C3.97902 3.14501 5.34601 2.34801 6.67101 2.34801C8.42601 2.34502 9.30301 3.06702 9.30301 4.50802C9.30301 4.50802 9.30301 4.50802 9.30301 4.50802ZM19.485 9.89301C19.485 10.554 19.125 11.114 18.402 11.561C17.68 12.009 16.968 12.235 16.267 12.235C15.329 12.235 14.49 11.71 13.75 10.653C12.852 9.36801 11.936 8.52802 10.999 8.13702C11.192 7.94202 11.428 7.84402 11.703 7.84402C12.053 7.84402 12.647 8.11502 13.486 8.66202C14.323 9.21102 14.86 9.48202 15.095 9.48202C15.29 9.48202 15.612 9.21101 16.06 8.66202C16.508 8.11502 17.005 7.84402 17.553 7.84402C18.842 7.84402 19.485 8.52802 19.485 9.89301C19.485 9.89301 19.485 9.89301 19.485 9.89301Z" fill="#0D0F0F" transform="translate(18 11)" />
    <path d="M39.647 22.631C39.647 23.389 39.354 24.068 38.768 24.674C38.182 25.278 37.51 25.579 36.752 25.579C35.545 25.579 34.654 25.013 34.089 23.878C34.089 23.878 31.422 23.766 31.422 23.766C30.855 23.766 29.738 24.012 28.077 24.503C26.3 24.993 25.279 25.391 25.014 25.692C24.6 26.146 24.259 27.206 23.993 28.87C23.765 30.23 23.654 31.233 23.654 31.876C23.654 32.896 23.814 33.644 24.134 34.116C24.455 34.589 25.118 34.985 26.118 35.305C27.118 35.623 27.734 35.807 27.962 35.844C28.113 35.844 28.358 35.826 28.699 35.787C28.699 35.787 29.38 35.787 29.38 35.787C29.871 35.787 30.381 35.863 30.912 36.014C31.667 36.241 31.989 36.541 31.877 36.921C31.346 36.847 30.421 36.959 29.099 37.261C29.099 37.261 30.685 38.056 30.685 38.056C30.685 38.51 30.042 38.735 28.757 38.735C28.415 38.735 27.951 38.663 27.367 38.51C26.779 38.356 26.391 38.281 26.204 38.281C26.204 38.281 25.467 38.281 25.467 38.281C25.429 38.66 25.317 39.224 25.127 39.982C24.481 39.945 23.728 39.566 22.857 38.849C21.987 38.129 21.439 37.77 21.214 37.77C20.986 37.77 20.663 38.129 20.249 38.849C19.832 39.566 19.625 40.056 19.625 40.324C19.134 40.056 18.719 39.566 18.376 38.849C18.225 38.355 18.055 37.863 17.867 37.37C17.488 37.409 16.79 38.206 15.768 39.755C15.768 39.755 15.484 39.755 15.484 39.755C15.407 39.642 15.124 38.849 14.632 37.37C13.46 36.995 12.364 36.807 11.344 36.807C10.853 36.807 10.095 36.919 9.07402 37.148C9.07402 37.148 7.48701 37.035 7.48701 37.035C7.71301 36.807 8.37502 36.373 9.47101 35.73C10.755 34.972 11.74 34.593 12.42 34.593C12.532 34.593 12.684 34.614 12.874 34.652C13.062 34.691 13.215 34.71 13.328 34.71C13.59 34.71 14.017 34.568 14.603 34.283C15.189 34 15.53 33.744 15.622 33.517C15.72 33.288 15.767 32.704 15.767 31.758C15.767 29.605 15.199 27.995 14.064 26.939C13.081 25.994 11.456 25.314 9.187 24.896C8.58299 27.05 6.87999 28.13 4.084 28.13C3.175 28.13 2.26801 27.581 1.36099 26.484C0.453979 25.387 0 24.385 0 23.477C0 22.078 0.585999 20.926 1.758 20.018C0.813995 19.037 0.339996 18.035 0.339996 17.012C0.339996 16.068 0.632004 15.236 1.21899 14.516C1.80499 13.8 2.57199 13.383 3.51599 13.268C3.44199 12.06 3.83699 11.226 4.70599 10.773C4.291 10.359 4.084 9.62302 4.084 8.56201C4.084 7.31601 4.498 6.27501 5.33099 5.44301C6.161 4.61301 7.202 4.19501 8.448 4.19501C9.811 4.19501 10.927 4.67001 11.796 5.61301C12.894 1.871 15.255 0 18.885 0C20.774 0 22.439 0.755997 23.875 2.27C24.405 2.83501 24.668 3.138 24.668 3.175C24.216 3.175 24.443 3.089 25.349 2.92101C26.258 2.75 26.917 2.664 27.335 2.664C28.809 2.664 30.113 3.214 31.25 4.31C32.232 5.29399 32.913 6.539 33.292 8.052C33.555 8.091 33.971 8.203 34.537 8.39301C35.369 8.81001 35.786 9.528 35.786 10.548C35.786 10.736 35.634 11.097 35.332 11.627C37.751 12.988 38.962 14.878 38.962 17.297C38.962 17.978 38.696 18.924 38.169 20.133C39.155 20.702 39.647 21.534 39.647 22.631C39.647 22.631 39.647 22.631 39.647 22.631ZM16.279 25.1261C16.279 25.1261 16.279 24.3901 16.279 24.3901C16.279 23.5211 15.855 22.7261 15.004 22.0081C14.153 21.2881 13.294 20.9311 12.424 20.9311C11.364 20.9311 10.382 21.1771 9.47504 21.6651C11.479 21.5551 13.746 22.706 16.279 25.1261C16.279 25.1261 16.279 25.1261 16.279 25.1261ZM15.259 18.096C14.693 17.45 14.201 16.79 13.785 16.111C12.196 16.525 11.402 17 11.402 17.527C11.855 17.49 12.518 17.574 13.386 17.783C14.256 17.9921 14.882 18.096 15.259 18.096C15.259 18.096 15.259 18.096 15.259 18.096ZM18.721 16.3351C18.721 16.3351 18.721 13.8401 18.721 13.8401C17.812 13.6911 17.262 13.6141 17.075 13.6141C17.075 13.6141 17.075 14.4651 17.075 14.4651L18.721 16.3351L18.721 16.3351ZM26.093 14.749C25.639 14.56 24.788 14.181 23.539 13.614C23.539 13.614 23.539 18.491 23.539 18.491C25.317 17.469 26.167 16.2231 26.093 14.749C26.093 14.749 26.093 14.749 26.093 14.749ZM29.209 21.441C29.209 21.441 27.963 19.912 27.963 19.912C27.208 20.441 26.442 20.978 25.665 21.527C24.89 22.074 24.22 22.689 23.654 23.371C25.353 22.4601 27.208 21.8201 29.209 21.441C29.209 21.441 29.209 21.441 29.209 21.441Z" fill="#0D0F0F" transform="translate(50 45)" />
  </g>
</svg>