<?xml version="1.0" encoding="utf-8"?>
<svg width="100" height="99.999" viewBox="0 0 100 99.999" fill="none" xmlns="http://www.w3.org/2000/svg">
  <g>
    <g>
      <path d="M70.703 0C79.756 9.051 85.354 21.551 85.354 35.36C85.354 62.976 62.967 85.363 35.354 85.363C21.547 85.363 9.04901 79.767 0 70.717C0 70.717 70.703 0 70.703 0Z" fill="#F8F6D8" transform="translate(14.646 14.636)" />
      <path d="M14.646 85.353C5.59601 76.306 0 63.804 0 49.997C0 22.384 22.387 0 50 0C63.802 0 76.301 5.594 85.349 14.637C85.349 14.637 14.646 85.353 14.646 85.353Z" fill="#E49977" />
    </g>
    <path d="M39.6381 27.755C37.2021 25.491 35.5841 24.264 34.7901 24.073C34.2141 23.935 33.6551 24.271 33.1181 25.079C32.5811 25.887 31.8271 26.171 30.8501 25.937C30.4541 25.842 29.675 25.502 28.5161 24.92C27.578 25.805 27.0751 26.391 27.0051 26.678C26.91 27.076 27.0941 27.616 27.556 28.299C28.0161 28.984 28.45 29.371 28.857 29.47C29.114 29.532 29.478 29.561 29.947 29.559C30.415 29.558 30.724 29.575 30.874 29.61C31.317 29.714 31.343 30.581 30.952 32.208C30.582 33.76 29.65 36.06 28.159 39.1C28.1 35.191 27.549 33.111 26.503 32.861C26.358 32.826 26.034 32.865 25.531 32.972C25.026 33.079 24.667 33.109 24.451 33.057C23.403 32.806 22.693 31.624 22.32 29.511C20.597 29.366 19.563 30.017 19.217 31.46C19.043 32.186 19.24 32.843 19.806 33.436C20.369 34.028 20.629 34.415 20.588 34.596C20.355 35.574 18.567 36.729 15.233 38.069C13.457 38.791 12.226 39.297 11.545 39.591C12.204 39.063 12.914 38.335 13.672 37.409C14.534 36.352 15.043 35.503 15.2 34.85C15.286 34.491 14.991 33.884 14.316 33.036C13.64 32.187 13.39 31.402 13.563 30.681C13.709 30.067 14.106 29.362 14.757 28.561C14.416 27.908 13.922 27.501 13.272 27.346C11.828 26.999 10.993 27.296 10.768 28.237C10.923 27.586 10.806 28.074 10.418 29.699C10.168 30.899 9.12204 31.279 7.28003 30.84C5.87103 30.502 3.58401 29.611 0.416016 28.166C4.397 28.127 6.53403 27.492 6.82703 26.265C6.79501 26.411 6.82404 25.957 6.92401 24.912C7.04602 23.758 8.08401 22.935 10.032 22.447C10.104 20.709 9.43802 19.67 8.02802 19.334C7.81201 19.281 7.32303 19.565 6.565 20.187C5.80402 20.806 5.172 21.057 4.66699 20.935C3.79999 20.73 2.90399 19.522 1.983 17.315C1.556 16.22 0.894989 14.592 0 12.43C0.72699 13.062 1.453 13.696 2.18201 14.326C3.14502 15.092 3.952 15.552 4.60101 15.709C5.10703 15.828 5.70901 15.504 6.40903 14.735C7.10803 13.967 7.85504 13.677 8.64902 13.869C8.76001 13.895 9.42902 14.283 10.662 15.037C11.599 14.154 12.128 13.461 12.25 12.955C12.352 12.52 12.21 11.961 11.819 11.276C11.429 10.589 11.017 10.197 10.584 10.092C10.403 10.048 10.111 10.034 9.70602 10.053C9.30103 10.072 9.00803 10.058 8.82703 10.015C8.17804 9.86002 8.04602 8.97002 8.43503 7.34401C8.53702 6.90901 9.54501 4.53401 11.457 0.221008C11.291 0.751007 11.284 1.82201 11.436 3.423C11.617 5.37601 12.123 6.45 12.954 6.651C13.098 6.68401 13.413 6.646 13.9 6.533C14.385 6.42 14.752 6.39301 15.004 6.455C15.834 6.65201 16.4081 7.287 16.7271 8.355C16.7271 8.355 17.19 10.01 17.19 10.01C17.948 10.193 18.6451 10.073 19.28 9.653C19.916 9.23199 20.326 8.642 20.507 7.884C20.696 7.089 20.507 6.405 19.9391 5.82901C19.3701 5.25301 19.1101 4.85701 19.1641 4.64101C19.3451 3.88301 20.8441 2.886 23.6591 1.651C25.9191 0.666 27.3681 0.115005 28.0081 0C25.9541 1.72501 24.8091 3.07001 24.576 4.047C24.455 4.554 24.631 5.168 25.1071 5.895C25.7021 6.76201 26.0191 7.354 26.0571 7.666C26.218 8.586 25.9111 9.713 25.132 11.056C25.9431 11.976 26.6021 12.494 27.1091 12.618C28.1541 12.868 28.8081 12.45 29.067 11.368C29.093 11.259 29.1301 10.905 29.179 10.305C29.2251 9.70499 29.2771 9.37299 29.33 9.31C29.5961 8.838 30.649 8.823 32.491 9.265C33.647 9.541 35.97 10.44 39.4641 11.963C38.6171 11.99 37.3481 12.029 35.655 12.084C34.105 12.17 33.2661 12.485 33.136 13.026C33.076 13.279 33.062 13.734 33.0961 14.39C33.1301 15.046 33.1131 15.522 33.0431 15.811C32.9231 16.317 32.4841 16.707 31.7311 16.986C31.7311 16.986 29.5761 17.845 29.5761 17.845C29.8211 18.743 29.9961 19.283 30.1071 19.46C30.3661 19.981 30.7991 20.314 31.4131 20.462C31.8471 20.566 32.3351 20.282 32.8781 19.608C33.4201 18.936 34.0901 18.695 34.8851 18.886C35.8601 19.118 36.7461 20.284 37.5421 22.385C37.9871 23.561 38.6851 25.352 39.6381 27.755C39.6381 27.755 39.6381 27.755 39.6381 27.755ZM28.3641 21.736C28.9161 19.423 28.5481 17.216 27.2561 15.113C25.9641 13.01 24.1621 11.68 21.8521 11.127C19.504 10.566 17.2791 10.922 15.181 12.197C13.082 13.467 11.733 15.274 11.135 17.613C10.545 19.916 10.925 22.117 12.276 24.217C13.6261 26.315 15.456 27.642 17.769 28.195C20.223 28.782 22.466 28.469 24.494 27.255C26.5201 26.04 27.8101 24.199 28.3641 21.736C28.3641 21.736 28.3641 21.736 28.3641 21.736ZM27.5491 21.54C27.0231 23.743 25.8461 25.391 24.0191 26.479C22.1931 27.569 20.1761 27.852 17.9751 27.325C15.8441 26.815 14.1981 25.638 13.035 23.794C11.8721 21.95 11.5461 19.964 12.056 17.833C12.5591 15.737 13.754 14.124 15.648 12.991C17.544 11.861 19.537 11.546 21.632 12.048C23.726 12.548 25.359 13.741 26.53 15.624C27.7011 17.511 28.0421 19.482 27.5491 21.54C27.5491 21.54 27.5491 21.54 27.5491 21.54Z" fill="#0D0F0F" transform="translate(48 45)" />
    <path d="M34.818 27.505C33.1 31.604 29.688 33.651 24.578 33.651C23.641 33.651 22.626 33.766 21.534 34.001C19.895 34.354 19.077 34.842 19.077 35.466C19.077 35.661 19.213 35.884 19.486 36.14C19.758 36.393 19.994 36.52 20.189 36.52C19.212 36.52 19.876 36.55 22.176 36.606C24.478 36.666 25.922 36.695 26.508 36.695C23.113 38.683 17.438 39.601 9.479 39.445C6.86499 39.408 4.62201 38.257 2.75 35.994C0.915985 33.848 0 31.449 0 28.798C0 25.988 0.945007 23.599 2.83899 21.627C4.729 19.66 7.08099 18.674 9.88998 18.674C10.513 18.674 11.343 18.811 12.376 19.082C13.41 19.355 14.103 19.492 14.453 19.492C15.897 19.492 17.691 18.895 19.837 17.707C21.983 16.517 22.998 15.922 22.881 15.922C22.49 20.018 21.125 22.77 18.784 24.173C17.105 25.151 16.268 26.106 16.268 27.039C16.268 27.625 16.617 28.094 17.32 28.445C17.866 28.716 18.471 28.853 19.135 28.853C20.149 28.853 21.143 28.23 22.119 26.982C23.093 25.734 23.522 24.602 23.405 23.586C23.29 22.415 23.368 21.01 23.64 19.374C23.717 18.903 24.001 18.329 24.488 17.647C24.976 16.963 25.416 16.543 25.805 16.386C25.805 16.739 25.677 17.324 25.424 18.141C25.17 18.96 25.044 19.569 25.044 19.955C25.044 20.814 25.277 21.477 25.746 21.945C26.448 21.674 27.071 20.795 27.618 19.311C28.086 18.18 28.358 17.087 28.438 16.035C26.798 15.96 25.227 15.217 23.726 13.81C22.224 12.406 21.474 10.884 21.474 9.247C21.474 8.975 21.511 8.7 21.591 8.428C21.823 8.781 22.174 9.327 22.645 10.068C23.306 11.041 23.815 11.529 24.166 11.529C24.6339 11.529 24.8669 11.041 24.8669 10.068C24.8669 8.82 24.5359 7.689 23.873 6.673C23.131 5.46201 22.175 4.859 21.006 4.859C20.4579 4.859 19.64 5.152 18.5479 5.738C17.455 6.322 16.4599 6.615 15.5659 6.615C15.292 6.615 14.0819 6.261 11.9359 5.56C15.7189 4.936 17.6119 4.37099 17.6119 3.863C17.6119 2.537 15.0179 1.639 9.82895 1.173C9.32196 1.13499 8.38696 1.057 7.02094 0.937996C7.17593 0.744995 8.28894 0.529999 10.3569 0.293999C12.1119 0.101997 13.3399 0 14.0419 0C23.3269 0 29.2169 4.508 31.7149 13.521C32.1459 13.164 32.3609 12.572 32.3609 11.742C32.3609 10.673 32.0479 9.328 31.4239 7.70701C31.1889 7.07401 30.8169 6.12301 30.3109 4.85901C33.5079 8.93401 35.1109 12.797 35.1109 16.443C35.1109 18.363 34.6599 20.109 33.7629 21.673C33.1799 22.734 32.0849 24.085 30.4869 25.732C28.8879 27.378 27.7959 28.652 27.2099 29.554C29.3559 28.968 30.7619 28.518 31.4249 28.206C32.9049 27.543 34.2519 26.547 35.4609 25.222C35.46 25.733 35.245 26.492 34.818 27.505C34.818 27.505 34.818 27.505 34.818 27.505ZM9.30298 4.50802C9.30298 5.21002 8.91199 5.65802 8.13297 5.85602C8.13297 5.85602 6.61197 6.08902 6.61197 6.08902C6.06396 6.36002 5.26498 7.43502 4.21396 9.30702C4.09595 8.72302 3.92096 7.90302 3.68594 6.84902C3.33493 6.88802 2.74994 7.20202 1.93094 7.78602C1.57993 8.05802 1.01395 8.47002 0.232941 9.01501C0.467926 7.61102 1.24994 6.18902 2.57495 4.74401C3.97894 3.14501 5.34595 2.34801 6.67096 2.34801C8.42599 2.34502 9.30298 3.06702 9.30298 4.50802C9.30298 4.50802 9.30298 4.50802 9.30298 4.50802ZM19.485 9.89301C19.485 10.554 19.125 11.114 18.402 11.561C17.68 12.009 16.968 12.235 16.267 12.235C15.329 12.235 14.49 11.71 13.75 10.653C12.852 9.36801 11.936 8.52802 10.999 8.13702C11.192 7.94202 11.4279 7.84402 11.703 7.84402C12.053 7.84402 12.647 8.11502 13.486 8.66202C14.323 9.21102 14.86 9.48202 15.095 9.48202C15.29 9.48202 15.612 9.21101 16.06 8.66202C16.508 8.11502 17.005 7.84402 17.553 7.84402C18.842 7.84402 19.485 8.52802 19.485 9.89301C19.485 9.89301 19.485 9.89301 19.485 9.89301Z" fill="#0D0F0F" transform="translate(16 11)" />
  </g>
</svg>