<?xml version="1.0" encoding="utf-8"?>
<svg width="100" height="99.999" viewBox="0 0 100 99.999" fill="none" xmlns="http://www.w3.org/2000/svg">
  <g>
    <g>
      <path d="M70.703 0C79.756 9.051 85.354 21.551 85.354 35.36C85.354 62.976 62.967 85.363 35.354 85.363C21.547 85.363 9.04901 79.767 0 70.717C0 70.717 70.703 0 70.703 0Z" fill="#A3C095" transform="translate(14.646 14.636)" />
      <path d="M14.646 85.353C5.59601 76.306 0 63.804 0 49.997C0 22.384 22.387 0 50 0C63.802 0 76.301 5.594 85.349 14.637C85.349 14.637 14.646 85.353 14.646 85.353Z" fill="#BAB1AB" />
    </g>
    <path d="M39.845 20.013C39.845 22.714 38.863 24.556 36.898 25.538C36.324 25.825 34.524 26.216 31.494 26.704C29.531 27.033 28.549 27.792 28.549 28.975C28.549 28.975 28.549 33.948 28.549 33.948C28.549 34.157 28.611 34.79 28.733 35.854C28.733 35.854 28.918 37.819 28.918 37.819C28.918 38.432 28.774 39.436 28.487 40.827C27.711 40.99 26.809 41.175 25.787 41.382C25.459 40.153 25.296 39.313 25.296 38.862C25.296 38.659 25.3459 38.35 25.448 37.941C25.55 37.533 25.601 37.225 25.601 37.02C25.601 36.736 25.348 35.936 24.839 34.627C24.839 34.627 23.886 34.627 23.886 34.627C23.761 34.83 23.719 35.096 23.759 35.422C23.923 36.118 23.984 36.711 23.945 37.203C23.248 37.694 22.288 38.349 21.059 39.168C20.771 39.086 20.669 39.045 20.751 39.045C20.751 39.045 20.751 34.686 20.751 34.686C20.669 34.484 20.465 34.401 20.137 34.441C20.137 34.441 19.4 34.441 19.4 34.441C19.4 34.441 18.664 40.212 18.664 40.212C18.092 40.253 17.395 40.253 16.578 40.212C16.291 38.862 15.778 36.858 15.043 34.197C15.043 34.197 14.551 34.197 14.551 34.197C14.101 35.63 13.856 36.407 13.814 36.53C13.814 36.693 13.866 37.01 13.969 37.481C14.07 37.952 14.121 38.268 14.121 38.432C14.121 38.553 14.08 38.862 13.997 39.353C13.997 39.353 13.813 40.827 13.813 40.827C13.73 40.907 13.629 40.948 13.507 40.948C12.278 40.948 11.459 40.642 11.052 40.029C10.641 39.415 10.477 38.553 10.559 37.449C10.559 37.449 11.052 30.083 11.052 30.083C11.052 29.962 11.09 29.798 11.173 29.591C11.255 29.388 11.296 29.243 11.296 29.163C11.296 28.835 10.948 28.179 10.253 27.196C10.13 27.157 9.495 27.012 8.349 26.766C7.65399 26.603 6.28201 26.316 4.237 25.908C1.41299 25.378 0 23.105 0 19.093C0 13.116 2.45599 8.145 7.367 4.175C7.57101 5.28 7.92001 6.75099 8.41101 8.59299C8.78 8.67899 9.57901 8.86299 10.807 9.14799C11.054 9.229 12.301 9.68099 14.552 10.5C13.406 9.80499 11.912 8.67999 10.072 7.12299C9.375 6.30499 9.026 4.93399 9.026 3.00999C9.026 2.56 9.80402 2.02899 11.361 1.411C12.752 0.839996 13.795 0.513992 14.492 0.431999C16.701 0.145996 18.399 0 19.588 0C24.703 0 28.837 1.312 31.988 3.932C30.966 5.12 29.205 6.385 26.709 7.739C27.691 7.78 29.124 7.391 31.008 6.571C32.89 5.755 33.688 5.344 33.402 5.344C33.729 5.344 34.384 5.998 35.367 7.307C36.102 8.289 36.696 9.172 37.147 9.948C38.457 12.281 39.337 14.8 39.789 17.501C39.789 18.442 39.808 19.117 39.85 19.525C39.85 19.525 39.85 20.014 39.85 20.014L39.845 20.014C39.845 20.014 39.845 20.013 39.845 20.013ZM16.329 21.121C16.329 19.36 15.562 17.692 14.027 16.115C12.492 14.539 10.843 13.752 9.08398 13.752C7.52899 13.752 6.159 14.412 4.97098 15.73C3.78397 17.049 3.19199 18.512 3.19199 20.119C3.19199 21.52 3.866 22.429 5.21799 22.839C6.07797 23.087 7.28299 23.231 8.83899 23.273C8.83899 23.273 12.215 23.273 12.215 23.273C14.957 23.309 16.329 22.591 16.329 21.121C16.329 21.121 16.329 21.121 16.329 21.121ZM23.022 28.733C23.022 28.733 23.022 26.832 23.022 26.832C22.736 26.299 22.449 25.745 22.164 25.172C21.918 24.355 21.467 23.209 20.812 21.733C20.812 21.733 20.136 28.919 20.136 28.919C20.136 29.493 20.015 29.778 19.768 29.778C19.605 29.778 19.481 29.738 19.399 29.656C19.113 25.317 18.97 23.432 18.97 24.009C18.97 24.009 18.97 21.861 18.97 21.861C18.887 21.735 18.785 21.673 18.662 21.673C17.271 23.11 16.576 25.421 16.576 28.611C16.576 30.372 16.738 31.456 17.065 31.868C17.393 31.785 17.76 31.642 18.171 31.437C18.334 31.354 18.805 31.314 19.583 31.314C20.358 31.314 21.302 31.56 22.406 32.049C22.817 32.048 23.022 30.944 23.022 28.733C23.022 28.733 23.022 28.733 23.022 28.733ZM36.898 20.177C36.898 18.531 36.284 17.059 35.055 15.759C33.826 14.462 32.415 13.814 30.821 13.814C29.101 13.814 27.493 14.601 26.001 16.177C24.506 17.751 23.759 19.4 23.759 21.119C23.759 22.552 24.456 23.267 25.847 23.267C25.847 23.267 32.907 23.267 32.907 23.267C35.567 23.227 36.898 22.199 36.898 20.177C36.898 20.177 36.898 20.177 36.898 20.177Z" fill="#0D0F0F" transform="translate(14 8)" />
    <path d="M39.6469 22.631C39.6469 23.389 39.3539 24.068 38.7679 24.674C38.1819 25.278 37.5099 25.579 36.7519 25.579C35.5449 25.579 34.6539 25.013 34.0889 23.878C34.0889 23.878 31.4219 23.766 31.4219 23.766C30.8549 23.766 29.7379 24.012 28.0769 24.503C26.2999 24.993 25.2789 25.391 25.0129 25.692C24.5989 26.146 24.2579 27.206 23.9929 28.87C23.7649 30.23 23.6539 31.233 23.6539 31.876C23.6539 32.896 23.8139 33.644 24.1339 34.116C24.455 34.589 25.118 34.985 26.118 35.305C27.118 35.623 27.7339 35.807 27.9619 35.844C28.1129 35.844 28.3579 35.826 28.6989 35.787C28.6989 35.787 29.3799 35.787 29.3799 35.787C29.8709 35.787 30.381 35.863 30.912 36.014C31.667 36.241 31.989 36.541 31.877 36.921C31.3459 36.847 30.421 36.959 29.0989 37.261C29.0989 37.261 30.6849 38.056 30.6849 38.056C30.6849 38.51 30.0419 38.735 28.7569 38.735C28.4149 38.735 27.9509 38.663 27.3669 38.51C26.7789 38.356 26.3909 38.281 26.2039 38.281C26.2039 38.281 25.4669 38.281 25.4669 38.281C25.4289 38.66 25.3169 39.224 25.1269 39.982C24.4809 39.945 23.7279 39.566 22.8569 38.849C21.9869 38.129 21.4389 37.77 21.2139 37.77C20.9859 37.77 20.6629 38.129 20.2489 38.849C19.8319 39.566 19.6249 40.056 19.6249 40.324C19.1339 40.056 18.7189 39.566 18.3759 38.849C18.2249 38.355 18.0549 37.863 17.8669 37.37C17.4879 37.409 16.7899 38.206 15.7679 39.755C15.7679 39.755 15.4839 39.755 15.4839 39.755C15.407 39.642 15.124 38.849 14.632 37.37C13.46 36.995 12.364 36.807 11.344 36.807C10.853 36.807 10.095 36.919 9.07397 37.148C9.07397 37.148 7.48697 37.035 7.48697 37.035C7.71298 36.807 8.37497 36.373 9.47098 35.73C10.755 34.972 11.74 34.593 12.42 34.593C12.532 34.593 12.684 34.614 12.874 34.652C13.062 34.691 13.215 34.71 13.328 34.71C13.59 34.71 14.017 34.568 14.603 34.283C15.189 34 15.53 33.744 15.622 33.517C15.72 33.288 15.767 32.704 15.767 31.758C15.767 29.605 15.199 27.995 14.064 26.939C13.081 25.994 11.456 25.314 9.18698 24.896C8.58298 27.05 6.87997 28.13 4.08398 28.13C3.17499 28.13 2.26797 27.581 1.36099 26.484C0.453979 25.386 0 24.385 0 23.477C0 22.078 0.585999 20.926 1.758 20.018C0.813995 19.037 0.339996 18.035 0.339996 17.012C0.339996 16.068 0.631989 15.236 1.21899 14.516C1.80499 13.8 2.57199 13.383 3.51599 13.268C3.44199 12.06 3.83701 11.226 4.70599 10.773C4.29099 10.359 4.08398 9.62302 4.08398 8.56201C4.08398 7.31601 4.49799 6.27501 5.33099 5.44301C6.16098 4.61301 7.202 4.19501 8.448 4.19501C9.811 4.19501 10.927 4.67001 11.796 5.61301C12.894 1.871 15.255 0 18.885 0C20.774 0 22.439 0.755997 23.875 2.27C24.405 2.83501 24.668 3.138 24.668 3.175C24.216 3.175 24.443 3.089 25.349 2.92101C26.258 2.75 26.917 2.664 27.335 2.664C28.809 2.664 30.113 3.214 31.25 4.31C32.232 5.29399 32.913 6.539 33.292 8.052C33.555 8.091 33.9709 8.203 34.537 8.39301C35.369 8.81001 35.7859 9.528 35.7859 10.548C35.7859 10.736 35.6339 11.097 35.3319 11.627C37.7509 12.988 38.9619 14.878 38.9619 17.297C38.9619 17.978 38.696 18.924 38.1689 20.133C39.1549 20.702 39.6469 21.534 39.6469 22.631C39.6469 22.631 39.6469 22.631 39.6469 22.631ZM16.2789 25.1261C16.2789 25.1261 16.2789 24.3901 16.2789 24.3901C16.2789 23.5211 15.8549 22.7261 15.0039 22.0081C14.1529 21.2881 13.2939 20.9311 12.4239 20.9311C11.3639 20.9311 10.3819 21.1771 9.47488 21.6651C11.4789 21.5551 13.7459 22.706 16.2789 25.1261C16.2789 25.1261 16.2789 25.1261 16.2789 25.1261ZM15.2589 18.096C14.6929 17.45 14.2009 16.79 13.7849 16.111C12.1959 16.525 11.4019 17 11.4019 17.527C11.8549 17.49 12.5179 17.574 13.3859 17.783C14.2559 17.9921 14.8819 18.096 15.2589 18.096C15.2589 18.096 15.2589 18.096 15.2589 18.096ZM18.7209 16.3351C18.7209 16.3351 18.7209 13.8401 18.7209 13.8401C17.8119 13.6911 17.2618 13.6141 17.0749 13.6141C17.0749 13.6141 17.0749 14.4651 17.0749 14.4651L18.7209 16.3351L18.7209 16.3351ZM26.0929 14.749C25.6389 14.56 24.7879 14.181 23.5389 13.614C23.5389 13.614 23.5389 18.491 23.5389 18.491C25.3169 17.469 26.1669 16.2231 26.0929 14.749C26.0929 14.749 26.0929 14.749 26.0929 14.749ZM29.2089 21.441C29.2089 21.441 27.9629 19.912 27.9629 19.912C27.2079 20.441 26.4419 20.978 25.6649 21.527C24.8899 22.074 24.2198 22.689 23.6539 23.371C25.3529 22.4601 27.2079 21.8201 29.2089 21.441C29.2089 21.441 29.2089 21.441 29.2089 21.441Z" fill="#0D0F0F" transform="translate(50 45)" />
  </g>
</svg>