<?xml version="1.0" encoding="utf-8"?>
<svg width="100" height="99.999" viewBox="0 0 100 99.999" fill="none" xmlns="http://www.w3.org/2000/svg">
  <g>
    <path d="M70.703 0C79.755 9.051 85.354 21.551 85.354 35.36C85.354 62.976 62.967 85.363 35.354 85.363C21.547 85.363 9.04901 79.767 0 70.717C0 70.717 70.703 0 70.703 0Z" fill="#E49977" transform="translate(14.646 14.636)" />
    <path d="M14.646 85.353C5.59698 76.306 0 63.804 0 49.997C0 22.384 22.387 0 50 0C63.802 0 76.301 5.594 85.349 14.637C85.349 14.637 14.646 85.353 14.646 85.353Z" fill="#BAB1AB" />
    <path d="M34.818 27.503C33.1 31.603 29.688 33.649 24.578 33.649C23.641 33.649 22.626 33.764 21.534 33.999C19.895 34.352 19.076 34.839 19.076 35.464C19.076 35.659 19.212 35.882 19.486 36.138C19.757 36.391 19.994 36.519 20.189 36.519C19.212 36.519 19.875 36.548 22.176 36.604C24.479 36.664 25.923 36.693 26.509 36.693C23.115 38.682 17.439 39.599 9.48001 39.443C6.866 39.406 4.62302 38.255 2.75101 35.992C0.916016 33.846 0 31.447 0 28.795C0 25.985 0.946014 23.597 2.83899 21.625C4.729 19.657 7.08099 18.672 9.88998 18.672C10.513 18.672 11.343 18.809 12.376 19.08C13.41 19.353 14.103 19.49 14.453 19.49C15.897 19.49 17.692 18.893 19.838 17.705C21.984 16.516 22.998 15.92 22.881 15.92C22.49 20.017 21.125 22.769 18.784 24.17C17.106 25.148 16.268 26.104 16.268 27.037C16.268 27.623 16.618 28.092 17.32 28.443C17.866 28.714 18.471 28.851 19.135 28.851C20.149 28.851 21.143 28.228 22.119 26.979C23.093 25.732 23.522 24.6 23.405 23.585C23.289 22.413 23.368 21.009 23.64 19.372C23.717 18.902 24.001 18.327 24.488 17.645C24.976 16.961 25.416 16.541 25.805 16.383C25.805 16.737 25.678 17.322 25.425 18.139C25.171 18.959 25.045 19.566 25.045 19.953C25.045 20.813 25.279 21.476 25.748 21.943C26.449 21.672 27.072 20.793 27.62 19.309C28.088 18.179 28.36 17.085 28.44 16.035C26.8 15.957 25.229 15.215 23.729 13.808C22.228 12.404 21.477 10.883 21.477 9.245C21.477 8.974 21.514 8.698 21.594 8.42599C21.826 8.77899 22.177 9.325 22.647 10.066C23.309 11.041 23.817 11.529 24.168 11.529C24.636 11.529 24.87 11.041 24.87 10.066C24.87 8.817 24.538 7.68599 23.875 6.67099C23.132 5.45999 22.176 4.85699 21.008 4.85699C20.46 4.85699 19.642 5.149 18.55 5.735C17.457 6.319 16.462 6.61301 15.567 6.61301C15.294 6.61301 14.083 6.26001 11.938 5.55901C15.721 4.93401 17.614 4.369 17.614 3.86C17.614 2.535 15.02 1.63699 9.83099 1.172C9.323 1.133 8.388 1.05499 7.022 0.936996C7.177 0.742996 8.29001 0.529999 10.358 0.292999C12.113 0.100998 13.341 0 14.043 0C23.328 0 29.218 4.506 31.716 13.521C32.147 13.163 32.362 12.571 32.362 11.741C32.362 10.673 32.049 9.32899 31.424 7.70799C31.189 7.073 30.817 6.12399 30.311 4.85899C33.509 8.93399 35.111 12.797 35.111 16.442C35.111 18.364 34.66 20.109 33.763 21.674C33.18 22.733 32.085 24.084 30.487 25.733C28.887 27.378 27.796 28.652 27.21 29.554C29.356 28.968 30.761 28.519 31.424 28.207C32.905 27.543 34.252 26.547 35.461 25.222C35.461 25.732 35.246 26.494 34.818 27.503C34.818 27.503 34.818 27.503 34.818 27.503ZM9.30402 4.50699C9.30402 5.20799 8.91302 5.65898 8.134 5.855C8.134 5.855 6.61301 6.08699 6.61301 6.08699C6.06601 6.35899 5.26602 7.435 4.215 9.30598C4.09601 8.72198 3.922 7.90298 3.68698 6.84898C3.33597 6.88599 2.75198 7.20099 1.93198 7.78499C1.58096 8.05798 1.01498 8.46899 0.232971 9.01399C0.467957 7.61099 1.24997 6.18799 2.57498 4.743C3.97897 3.14499 5.34497 2.347 6.67099 2.347C8.42599 2.345 9.30402 3.06599 9.30402 4.50699C9.30402 4.50699 9.30402 4.50699 9.30402 4.50699ZM19.486 9.892C19.486 10.554 19.125 11.112 18.403 11.56C17.681 12.007 16.969 12.233 16.268 12.233C15.33 12.233 14.491 11.709 13.751 10.652C12.853 9.367 11.937 8.52701 11.001 8.136C11.195 7.94099 11.43 7.843 11.705 7.843C12.054 7.843 12.649 8.114 13.488 8.661C14.325 9.20999 14.863 9.481 15.098 9.481C15.293 9.481 15.614 9.21001 16.062 8.661C16.5099 8.114 17.008 7.843 17.555 7.843C18.843 7.843 19.486 8.52699 19.486 9.892C19.486 9.892 19.486 9.892 19.486 9.892Z" fill="#0D0F0F" transform="translate(52 47)" />
    <path d="M39.8471 20.013C39.8471 22.714 38.8651 24.556 36.8991 25.538C36.3251 25.825 34.5261 26.216 31.4961 26.704C29.5321 27.033 28.5501 27.792 28.5501 28.975C28.5501 28.975 28.5501 33.948 28.5501 33.948C28.5501 34.157 28.6131 34.79 28.7341 35.854C28.7341 35.854 28.9191 37.819 28.9191 37.819C28.9191 38.432 28.7751 39.436 28.4881 40.827C27.7111 40.99 26.8101 41.175 25.7881 41.382C25.459 40.153 25.2971 39.313 25.2971 38.862C25.2971 38.659 25.347 38.35 25.4491 37.941C25.5511 37.533 25.6031 37.225 25.6031 37.02C25.6031 36.736 25.3501 35.936 24.8411 34.627C24.8411 34.627 23.8881 34.627 23.8881 34.627C23.7621 34.83 23.7211 35.096 23.761 35.422C23.9261 36.118 23.9861 36.711 23.946 37.203C23.2491 37.694 22.289 38.349 21.061 39.168C20.772 39.086 20.672 39.045 20.753 39.045C20.753 39.045 20.753 34.686 20.753 34.686C20.671 34.484 20.467 34.401 20.139 34.441C20.139 34.441 19.402 34.441 19.402 34.441C19.402 34.441 18.665 40.212 18.665 40.212C18.092 40.253 17.397 40.253 16.579 40.212C16.292 38.862 15.78 36.858 15.045 34.197C15.045 34.197 14.552 34.197 14.552 34.197C14.102 35.63 13.856 36.407 13.815 36.53C13.815 36.693 13.867 37.01 13.97 37.481C14.071 37.952 14.122 38.268 14.122 38.432C14.122 38.553 14.08 38.862 13.997 39.353C13.997 39.353 13.814 40.827 13.814 40.827C13.731 40.907 13.63 40.948 13.507 40.948C12.279 40.948 11.459 40.642 11.052 40.029C10.641 39.415 10.476 38.553 10.559 37.449C10.559 37.449 11.052 30.083 11.052 30.083C11.052 29.962 11.091 29.798 11.173 29.591C11.255 29.388 11.296 29.243 11.296 29.163C11.296 28.835 10.948 28.179 10.253 27.196C10.13 27.157 9.495 27.012 8.349 26.766C7.65298 26.603 6.28201 26.316 4.237 25.908C1.41299 25.378 0 23.105 0 19.093C0 13.116 2.45599 8.145 7.367 4.175C7.57101 5.28 7.92001 6.75099 8.41101 8.59299C8.77902 8.67899 9.578 8.86299 10.805 9.14799C11.052 9.229 12.3 9.68099 14.55 10.5C13.404 9.80499 11.91 8.67999 10.07 7.12299C9.37302 6.30499 9.02402 4.93399 9.02402 3.00999C9.02402 2.56 9.80203 2.02899 11.359 1.411C12.75 0.839996 13.793 0.513992 14.49 0.431999C16.699 0.145996 18.398 0 19.586 0C24.701 0 28.835 1.312 31.987 3.932C30.965 5.12 29.204 6.385 26.708 7.739C27.69 7.78 29.123 7.391 31.006 6.571C32.888 5.755 33.686 5.344 33.4001 5.344C33.7271 5.344 34.382 5.998 35.3651 7.307C36.1 8.289 36.6941 9.172 37.1451 9.948C38.455 12.281 39.3351 14.8 39.786 17.501C39.786 18.442 39.806 19.117 39.847 19.525C39.847 19.525 39.847 20.013 39.847 20.013C39.847 20.013 39.8471 20.013 39.8471 20.013ZM16.3311 21.121C16.3311 19.36 15.5641 17.692 14.0301 16.115C12.4941 14.539 10.8461 13.752 9.0871 13.752C7.5321 13.752 6.16211 14.412 4.97308 15.73C3.78607 17.049 3.19308 18.512 3.19308 20.119C3.19308 21.52 3.86807 22.429 5.22009 22.839C6.0791 23.087 7.2851 23.231 8.84109 23.273C8.84109 23.273 12.2171 23.273 12.2171 23.273C14.9591 23.309 16.3311 22.591 16.3311 21.121C16.3311 21.121 16.3311 21.121 16.3311 21.121ZM23.0231 28.733C23.0231 28.733 23.0231 26.832 23.0231 26.832C22.7371 26.299 22.4501 25.745 22.1651 25.172C21.9191 24.355 21.4681 23.209 20.8141 21.733C20.8141 21.733 20.1381 28.919 20.1381 28.919C20.1381 29.493 20.0171 29.778 19.7701 29.778C19.6071 29.778 19.4831 29.738 19.4011 29.656C19.1141 25.317 18.9721 23.432 18.9721 24.009C18.9721 24.009 18.9721 21.861 18.9721 21.861C18.8891 21.735 18.7871 21.673 18.6641 21.673C17.2731 23.11 16.5781 25.421 16.5781 28.611C16.5781 30.372 16.7411 31.456 17.0681 31.868C17.3971 31.785 17.7631 31.642 18.1751 31.437C18.3381 31.354 18.8081 31.314 19.5871 31.314C20.3621 31.314 21.3061 31.56 22.4101 32.049C22.8191 32.048 23.0231 30.944 23.0231 28.733C23.0231 28.733 23.0231 28.733 23.0231 28.733ZM36.8991 20.177C36.8991 18.531 36.2851 17.059 35.0571 15.759C33.8281 14.462 32.4171 13.814 30.8221 13.814C29.1031 13.814 27.4941 14.601 26.0011 16.177C24.5071 17.751 23.7591 19.4 23.7591 21.119C23.7591 22.552 24.4561 23.267 25.8471 23.267C25.8471 23.267 32.9071 23.267 32.9071 23.267C35.5691 23.227 36.8991 22.199 36.8991 20.177C36.8991 20.177 36.8991 20.177 36.8991 20.177Z" fill="#0D0F0F" transform="translate(12 8)" />
  </g>
</svg>