<?xml version="1.0" encoding="utf-8"?>
<svg width="100" height="100" viewBox="0 0 100 100" fill="none" xmlns="http://www.w3.org/2000/svg">
  <g>
    <path d="M0 50C0 22.3858 22.3858 0 50 0C77.6142 0 100 22.3858 100 50C100 77.6142 77.6142 100 50 100C22.3858 100 0 77.6142 0 50Z" fill="#CAC5C0" fill-rule="evenodd" />
    <path d="M9.66498 0C9.66498 0 9.66498 27.246 9.66498 27.246C9.66498 30.506 11.0359 32.135 13.782 32.135C13.782 32.135 14.497 32.135 14.497 32.135L14.497 34L0.0010376 34L0.0010376 32.135C0.0010376 32.135 0.911011 32.135 0.911011 32.135C3.56702 32.135 4.89099 30.506 4.89099 27.246C4.89099 27.246 4.89099 9.37302 4.89099 9.37302C4.89099 6.07602 3.74597 4.42603 1.45697 4.42603C1.45697 4.42603 0 4.42603 0 4.42603L0 2.62103C0 2.62103 0.52301 2.62103 0.52301 2.62103C3.35498 2.62103 5.91803 1.74603 8.211 3.05176e-05C8.211 3.05176e-05 9.66498 3.05176e-05 9.66498 3.05176e-05L9.66498 0L9.66498 0Z" fill="#0D0F0F" transform="translate(42 6)" />
    <path d="M23.324 25.543L20.82 33.998L0 33.998C0 33.998 0 32.189 0 32.189C1.01202 31.062 3.22699 28.789 6.64801 25.367C8.711 23.304 10.75 21.129 12.769 18.836C13.781 17.707 14.558 16.734 15.101 15.918C16.3079 14.172 16.91 12.383 16.91 10.555C16.91 8.76599 16.355 7.19199 15.25 5.832C14.145 4.46899 12.719 3.78699 10.965 3.78699C7.19202 3.78699 4.23804 6.33798 2.10205 11.43C2.10205 11.43 0.235046 10.729 0.235046 10.729C2.76202 3.57901 6.74304 0 12.188 0C14.8721 0 17.1531 0.911987 19.043 2.73801C20.9301 4.56601 21.871 6.82001 21.871 9.50601C21.871 12.928 19.906 16.272 15.98 19.535C15.98 19.535 11.8981 22.914 11.8981 22.914C9.29309 25.098 7.13208 27.139 5.42505 29.043C5.30804 29.156 5.07306 29.434 4.72607 29.857C4.72607 29.857 15.5741 29.857 15.5741 29.857C17.2421 29.857 18.5081 29.527 19.3631 28.865C20.0971 28.283 20.8201 27.176 21.5191 25.545C21.5191 25.545 23.3241 25.545 23.3241 25.545L23.3241 25.543L23.324 25.543Z" fill="#0D0F0F" transform="translate(38 55)" />
    <path d="M0 2.91L0 0L58.328 0L58.328 2.91L0 2.91L0 2.91Z" fill="#0D0F0F" transform="translate(20 47)" />
  </g>
</svg>