<?xml version="1.0" encoding="utf-8"?>
<svg width="100" height="99.999" viewBox="0 0 100 99.999" fill="none" xmlns="http://www.w3.org/2000/svg">
  <g>
    <g>
      <g>
        <path d="M70.704 0C79.756 9.05099 85.355 21.551 85.355 35.36C85.355 62.976 62.969 85.363 35.354 85.363C21.548 85.363 9.04901 79.767 0 70.717C0 70.717 70.704 0 70.704 0Z" fill="#BAB1AB" transform="translate(14.645 14.636)" />
        <path d="M14.646 85.353C5.59698 76.306 0 63.804 0 49.997C0 22.384 22.386 0 49.999 0C63.803 0 76.301 5.593 85.349 14.637C85.349 14.637 14.646 85.353 14.646 85.353Z" fill="#CAC5C0" />
      </g>
      <path d="M39.8481 20.014C39.8481 22.715 38.8661 24.558 36.9011 25.539C36.3271 25.826 34.527 26.217 31.4971 26.705C29.5341 27.035 28.5511 27.791 28.5511 28.976C28.5511 28.976 28.5511 33.949 28.5511 33.949C28.5511 34.158 28.6141 34.791 28.7351 35.854C28.7351 35.854 28.9201 37.82 28.9201 37.82C28.9201 38.433 28.7761 39.437 28.4891 40.828C27.7121 40.991 26.8111 41.176 25.7881 41.383C25.4601 40.153 25.2971 39.314 25.2971 38.863C25.2971 38.66 25.347 38.351 25.4501 37.942C25.5521 37.534 25.6041 37.226 25.6041 37.02C25.6041 36.736 25.3511 35.937 24.842 34.626C24.842 34.626 23.889 34.626 23.889 34.626C23.7631 34.831 23.722 35.097 23.762 35.423C23.926 36.12 23.987 36.712 23.947 37.204C23.25 37.695 22.29 38.35 21.062 39.169C20.773 39.087 20.673 39.046 20.754 39.046C20.754 39.046 20.754 34.687 20.754 34.687C20.673 34.484 20.4691 34.402 20.14 34.441C20.14 34.441 19.403 34.441 19.403 34.441C19.403 34.441 18.666 40.212 18.666 40.212C18.093 40.253 17.398 40.253 16.58 40.212C16.293 38.861 15.781 36.858 15.045 34.195C15.045 34.195 14.5521 34.195 14.5521 34.195C14.1021 35.628 13.8571 36.406 13.8151 36.529C13.8151 36.692 13.8671 37.008 13.9701 37.48C14.0711 37.952 14.1231 38.267 14.1231 38.431C14.1231 38.553 14.0811 38.861 13.9981 39.352C13.9981 39.352 13.8141 40.827 13.8141 40.827C13.7311 40.906 13.6311 40.947 13.5081 40.947C12.28 40.947 11.4601 40.64 11.053 40.028C10.6411 39.413 10.4771 38.553 10.5601 37.448C10.5601 37.448 11.053 30.083 11.053 30.083C11.053 29.96 11.092 29.796 11.174 29.591C11.256 29.388 11.297 29.243 11.297 29.163C11.297 28.835 10.949 28.179 10.254 27.195C10.131 27.155 9.49695 27.01 8.34998 26.764C7.65497 26.602 6.28296 26.315 4.23798 25.907C1.41296 25.376 0 23.104 0 19.093C0 13.115 2.45697 8.14401 7.367 4.173C7.57098 5.27899 7.92102 6.75101 8.41199 8.59302C8.77997 8.67703 9.57898 8.86203 10.806 9.147C11.053 9.228 12.3 9.67902 14.551 10.498C13.4059 9.80301 11.9109 8.68002 10.071 7.12302C9.37396 6.30502 9.02496 4.93201 9.02496 3.01001C9.02496 2.55701 9.80298 2.02802 11.36 1.41C12.751 0.838013 13.794 0.514008 14.491 0.429993C16.7 0.144989 18.399 0 19.587 0C24.702 0 28.837 1.311 31.988 3.93201C30.966 5.12 29.205 6.38501 26.709 7.73801C27.691 7.77899 29.124 7.39102 31.007 6.57001C32.889 5.755 33.687 5.34201 33.4009 5.34201C33.728 5.34201 34.3839 5.99802 35.366 7.30701C36.101 8.289 36.6949 9.17001 37.146 9.94702C38.456 12.28 39.336 14.8 39.787 17.499C39.787 18.441 39.807 19.116 39.848 19.524C39.848 19.524 39.8481 20.014 39.8481 20.014L39.8481 20.014C39.8481 20.014 39.8481 20.014 39.8481 20.014ZM16.3321 21.122C16.3321 19.3611 15.5651 17.6931 14.0311 16.116C12.4951 14.54 10.8461 13.753 9.0871 13.753C7.5321 13.753 6.16211 14.413 4.97412 15.731C3.78711 17.05 3.19409 18.513 3.19409 20.121C3.19409 21.521 3.86908 22.43 5.22009 22.84C6.08008 23.088 7.28607 23.232 8.84106 23.274C8.84106 23.274 12.2181 23.274 12.2181 23.274C14.9611 23.3091 16.3321 22.592 16.3321 21.122C16.3321 21.122 16.3321 21.122 16.3321 21.122ZM23.0251 28.734C23.0251 28.734 23.0251 26.833 23.0251 26.833C22.7391 26.3 22.4521 25.745 22.1671 25.173C21.9211 24.356 21.4701 23.21 20.8161 21.734C20.8161 21.734 20.1401 28.918 20.1401 28.918C20.1401 29.494 20.0181 29.779 19.7711 29.779C19.608 29.779 19.4841 29.739 19.4031 29.656C19.1161 25.318 18.9741 23.434 18.9741 24.01C18.9741 24.01 18.9741 21.862 18.9741 21.862C18.8911 21.736 18.7891 21.674 18.6661 21.674C17.2751 23.1111 16.5801 25.422 16.5801 28.612C16.5801 30.373 16.7431 31.457 17.0701 31.869C17.399 31.786 17.7651 31.642 18.1771 31.438C18.3401 31.355 18.8101 31.315 19.5881 31.315C20.3631 31.315 21.308 31.56 22.4111 32.05C22.8211 32.0471 23.0251 30.945 23.0251 28.734C23.0251 28.734 23.0251 28.734 23.0251 28.734ZM36.9011 20.178C36.9011 18.532 36.287 17.0591 35.0591 15.76C33.8311 14.463 32.4191 13.815 30.8251 13.815C29.1051 13.815 27.4971 14.602 26.0041 16.176C24.5091 17.752 23.7621 19.4 23.7621 21.121C23.7621 22.553 24.4591 23.268 25.8501 23.268C25.8501 23.268 32.9091 23.268 32.9091 23.268C35.5711 23.2281 36.9011 22.2 36.9011 20.178C36.9011 20.178 36.9011 20.178 36.9011 20.178Z" fill="#0D0F0F" transform="translate(48 46)" />
    </g>
    <path d="M11.0856 0.000483513C11.0856 0.000483513 11.0856 31.2527 11.0856 31.2527C11.0856 34.9923 12.6583 36.8609 15.808 36.8609C15.808 36.8609 16.6289 36.8609 16.6289 36.8609L16.6289 39L0 39L0 36.8609C0 36.8609 1.04372 36.8609 1.04372 36.8609C4.0891 36.8609 5.61106 34.9923 5.61106 31.2527C5.61106 31.2527 5.61106 10.7517 5.61106 10.7517C5.61106 6.9697 4.29628 5.07578 1.67163 5.07578C1.67163 5.07578 0 5.07578 0 5.07578L0 3.0054C0 3.0054 0.603029 3.0054 0.603029 3.0054C3.84973 3.0054 6.7898 2.00262 9.41693 0C9.41693 0 11.0856 0.000483513 11.0856 0.000483513L11.0856 0.000483513L11.0856 0.000483513Z" fill="#0D0F0F" transform="translate(25 12)" />
  </g>
</svg>