<?xml version="1.0" encoding="utf-8"?>
<svg width="100" height="99.999" viewBox="0 0 100 99.999" fill="none" xmlns="http://www.w3.org/2000/svg">
  <g>
    <g>
      <g>
        <path d="M70.703 0C79.755 9.05099 85.354 21.551 85.354 35.36C85.354 62.976 62.967 85.363 35.354 85.363C21.547 85.363 9.04901 79.767 0 70.717C0 70.717 70.703 0 70.703 0Z" fill="#A3C095" transform="translate(14.646 14.636)" />
        <path d="M14.646 85.353C5.59698 76.306 0 63.804 0 49.997C0 22.384 22.387 0 50 0C63.804 0 76.301 5.593 85.349 14.637C85.349 14.637 14.646 85.353 14.646 85.353Z" fill="#CAC5C0" />
      </g>
      <path d="M39.6459 22.631C39.6459 23.3889 39.3529 24.068 38.7669 24.674C38.1809 25.278 37.5099 25.5789 36.7519 25.5789C35.5439 25.5789 34.6539 25.0129 34.0889 23.878C34.0889 23.878 31.4219 23.766 31.4219 23.766C30.8539 23.766 29.7379 24.012 28.0759 24.503C26.2989 24.993 25.2779 25.391 25.0129 25.692C24.5979 26.1469 24.2579 27.206 23.9919 28.87C23.7639 30.231 23.653 31.233 23.653 31.876C23.653 32.896 23.813 33.644 24.1339 34.116C24.455 34.589 25.118 34.985 26.118 35.305C27.118 35.623 27.7339 35.807 27.9619 35.844C28.1129 35.844 28.3579 35.826 28.6989 35.787C28.6989 35.787 29.3799 35.787 29.3799 35.787C29.8709 35.787 30.382 35.8629 30.9129 36.0139C31.6679 36.2409 31.9909 36.541 31.8779 36.921C31.3469 36.847 30.4219 36.959 29.0989 37.261C29.0989 37.261 30.6849 38.056 30.6849 38.056C30.6849 38.51 30.0429 38.735 28.7569 38.735C28.4149 38.735 27.9519 38.663 27.3679 38.5099C26.7809 38.356 26.3929 38.2809 26.2049 38.2809C26.2049 38.2809 25.4679 38.2809 25.4679 38.2809C25.4289 38.6599 25.3169 39.2239 25.1279 39.9819C24.4829 39.9449 23.7279 39.5659 22.8579 38.8489C21.9879 38.1289 21.4399 37.7699 21.2149 37.7699C20.9869 37.7699 20.6649 38.1289 20.2499 38.8489C19.8329 39.5659 19.6249 40.0559 19.6249 40.3239C19.1339 40.0559 18.7199 39.5659 18.3759 38.8489C18.2249 38.3539 18.0549 37.8629 17.8669 37.3699C17.489 37.4089 16.7899 38.2059 15.769 39.7549C15.769 39.7549 15.485 39.7549 15.485 39.7549C15.408 39.6419 15.124 38.8489 14.632 37.3699C13.46 36.9949 12.365 36.8069 11.344 36.8069C10.853 36.8069 10.095 36.9189 9.07297 37.1479C9.07297 37.1479 7.48697 37.0349 7.48697 37.0349C7.71198 36.8069 8.37497 36.373 9.47098 35.7299C10.756 34.972 11.74 34.593 12.42 34.593C12.532 34.593 12.683 34.614 12.874 34.6519C13.062 34.6909 13.214 34.71 13.328 34.71C13.59 34.71 14.018 34.568 14.604 34.283C15.19 34 15.53 33.744 15.622 33.517C15.72 33.288 15.767 32.704 15.767 31.758C15.767 29.6049 15.199 27.995 14.064 26.939C13.08 25.994 11.456 25.314 9.18799 24.896C8.58298 27.05 6.88098 28.13 4.08398 28.13C3.17499 28.13 2.26898 27.581 1.36099 26.484C0.455994 25.386 0 24.385 0 23.478C0 22.078 0.585999 20.926 1.758 20.018C0.813995 19.037 0.341003 18.035 0.341003 17.012C0.341003 16.068 0.632996 15.236 1.22 14.516C1.806 13.8 2.573 13.383 3.51599 13.268C3.44199 12.06 3.83701 11.226 4.707 10.773C4.29102 10.359 4.08401 9.62299 4.08401 8.56198C4.08401 7.31598 4.49902 6.27499 5.332 5.44299C6.16199 4.61301 7.20401 4.19501 8.44901 4.19501C9.81201 4.19501 10.928 4.67001 11.796 5.61301C12.894 1.871 15.255 0 18.885 0C20.775 0 22.439 0.755997 23.876 2.26999C24.406 2.83499 24.669 3.138 24.669 3.17499C24.216 3.17499 24.444 3.08899 25.35 2.92099C26.258 2.75 26.918 2.664 27.335 2.664C28.809 2.664 30.114 3.21399 31.25 4.31C32.233 5.29401 32.914 6.539 33.292 8.052C33.556 8.091 33.9709 8.203 34.538 8.39301C35.37 8.81 35.787 9.52802 35.787 10.548C35.787 10.736 35.6349 11.097 35.3329 11.627C37.752 12.988 38.9619 14.878 38.9619 17.297C38.9619 17.979 38.6969 18.924 38.1689 20.133C39.1549 20.7019 39.6459 21.5339 39.6459 22.631C39.6459 22.631 39.6459 22.631 39.6459 22.631ZM16.2799 25.1259C16.2799 25.1259 16.2799 24.39 16.2799 24.39C16.2799 23.521 15.8549 22.726 15.0049 22.008C14.1539 21.288 13.295 20.931 12.424 20.931C11.364 20.931 10.382 21.177 9.47495 21.665C11.4779 21.5549 13.7469 22.7059 16.2799 25.1259C16.2799 25.1259 16.2799 25.1259 16.2799 25.1259ZM15.2589 18.0959C14.692 17.45 14.2009 16.7899 13.7849 16.111C12.196 16.525 11.403 17 11.403 17.5269C11.856 17.49 12.519 17.5739 13.387 17.783C14.2549 17.9919 14.8809 18.0959 15.2589 18.0959C15.2589 18.0959 15.2589 18.0959 15.2589 18.0959ZM18.7209 16.3349C18.7209 16.3349 18.7209 13.8399 18.7209 13.8399C17.8109 13.6909 17.2619 13.6139 17.0749 13.6139C17.0749 13.6139 17.0749 14.4649 17.0749 14.4649L18.7209 16.3349L18.7209 16.3349ZM26.0929 14.7489C25.6379 14.5599 24.7879 14.1809 23.5389 13.6139C23.5389 13.6139 23.5389 18.4909 23.5389 18.4909C25.3169 17.4689 26.1669 16.2229 26.0929 14.7489C26.0929 14.7489 26.0929 14.7489 26.0929 14.7489ZM29.2089 21.4409C29.2089 21.4409 27.9629 19.912 27.9629 19.912C27.2089 20.4409 26.4419 20.978 25.6649 21.5269C24.8899 22.0739 24.2189 22.6889 23.6539 23.3709C25.3529 22.4599 27.2089 21.8199 29.2089 21.4409C29.2089 21.4409 29.2089 21.4409 29.2089 21.4409Z" fill="#0D0F0F" transform="translate(48 45)" />
    </g>
    <path d="M11.0856 0.000483513C11.0856 0.000483513 11.0856 31.2527 11.0856 31.2527C11.0856 34.9923 12.6583 36.8609 15.808 36.8609C15.808 36.8609 16.6289 36.8609 16.6289 36.8609L16.6289 39L0 39L0 36.8609C0 36.8609 1.04372 36.8609 1.04372 36.8609C4.0891 36.8609 5.61106 34.9923 5.61106 31.2527C5.61106 31.2527 5.61106 10.7517 5.61106 10.7517C5.61106 6.9697 4.29628 5.07578 1.67163 5.07578C1.67163 5.07578 0 5.07578 0 5.07578L0 3.0054C0 3.0054 0.603029 3.0054 0.603029 3.0054C3.84973 3.0054 6.7898 2.00262 9.41693 0C9.41693 0 11.0856 0.000483513 11.0856 0.000483513L11.0856 0.000483513L11.0856 0.000483513Z" fill="#0D0F0F" transform="translate(25 12)" />
  </g>
</svg>