<?xml version="1.0" encoding="utf-8"?>
<svg width="100" height="99.999" viewBox="0 0 100 99.999" fill="none" xmlns="http://www.w3.org/2000/svg">
  <g>
    <g>
      <g>
        <path d="M70.704 0C79.756 9.05099 85.355 21.551 85.355 35.36C85.355 62.976 62.969 85.363 35.354 85.363C21.548 85.363 9.04901 79.767 0 70.717C0 70.717 70.704 0 70.704 0Z" fill="#C1D7E9" transform="translate(14.645 14.636)" />
        <path d="M14.646 85.353C5.59698 76.306 0 63.804 0 49.997C0 22.384 22.386 0 49.999 0C63.803 0 76.301 5.593 85.349 14.637C85.349 14.637 14.646 85.353 14.646 85.353Z" fill="#CAC5C0" />
      </g>
      <path d="M24.147 41.158C21.455 43.897 18.139 45.266 14.2 45.266C9.77802 45.266 6.271 43.752 3.67603 40.726C1.224 37.842 0 34.168 0 29.698C0 24.894 2.09003 19.417 6.271 13.264C9.68097 8.21701 13.694 3.797 18.308 0C17.635 3.076 17.298 5.26199 17.298 6.561C17.298 9.54102 18.235 12.447 20.1089 15.282C22.416 18.647 24.1699 21.146 25.371 22.778C27.245 25.613 28.1819 28.378 28.1819 31.067C28.183 35.057 26.8381 38.421 24.147 41.158C24.147 41.158 24.147 41.158 24.147 41.158ZM24.0751 25.77C23.3541 24.161 22.5131 23.09 21.5521 22.562C21.6971 22.85 21.7671 23.26 21.7671 23.788C21.7671 24.798 21.4801 26.241 20.9041 28.112C20.9041 28.112 19.9661 30.997 19.9661 30.997C19.9661 32.677 20.8051 33.519 22.4881 33.519C24.2651 33.519 25.1561 32.342 25.1561 29.987C25.1561 28.786 24.796 27.379 24.0751 25.77C24.0751 25.77 24.0751 25.77 24.0751 25.77Z" fill="#0D0F0F" transform="translate(52 43)" />
    </g>
    <path d="M11.0856 0.000483513C11.0856 0.000483513 11.0856 31.2527 11.0856 31.2527C11.0856 34.9923 12.6583 36.8609 15.808 36.8609C15.808 36.8609 16.6289 36.8609 16.6289 36.8609L16.6289 39L0 39L0 36.8609C0 36.8609 1.04372 36.8609 1.04372 36.8609C4.0891 36.8609 5.61106 34.9923 5.61106 31.2527C5.61106 31.2527 5.61106 10.7517 5.61106 10.7517C5.61106 6.9697 4.29628 5.07578 1.67163 5.07578C1.67163 5.07578 0 5.07578 0 5.07578L0 3.0054C0 3.0054 0.603029 3.0054 0.603029 3.0054C3.84973 3.0054 6.7898 2.00262 9.41693 0C9.41693 0 11.0856 0.000483513 11.0856 0.000483513L11.0856 0.000483513L11.0856 0.000483513Z" fill="#0D0F0F" transform="translate(27 12)" />
  </g>
</svg>