<?xml version="1.0" encoding="utf-8"?>
<svg width="100" height="99.999" viewBox="0 0 100 99.999" fill="none" xmlns="http://www.w3.org/2000/svg">
  <g>
    <path d="M70.703 0C79.755 9.051 85.354 21.551 85.354 35.36C85.354 62.976 62.967 85.363 35.354 85.363C21.547 85.363 9.04901 79.767 0 70.717C0 70.717 70.703 0 70.703 0Z" fill="#E49977" transform="translate(14.646 14.636)" />
    <path d="M14.646 85.353C5.59698 76.306 0 63.804 0 49.997C0 22.384 22.387 0 50 0C63.802 0 76.301 5.594 85.349 14.637C85.349 14.637 14.646 85.353 14.646 85.353Z" fill="#C1D7E9" />
    <path d="M34.818 27.503C33.1 31.603 29.688 33.649 24.578 33.649C23.641 33.649 22.626 33.764 21.534 33.999C19.895 34.352 19.076 34.839 19.076 35.464C19.076 35.659 19.212 35.882 19.486 36.138C19.7579 36.391 19.994 36.519 20.189 36.519C19.212 36.519 19.8749 36.548 22.176 36.604C24.4789 36.664 25.923 36.693 26.509 36.693C23.115 38.682 17.439 39.599 9.47998 39.443C6.86597 39.406 4.62299 38.255 2.75098 35.992C0.915955 33.846 0 31.447 0 28.795C0 25.985 0.945984 23.597 2.83899 21.625C4.729 19.657 7.08099 18.672 9.89001 18.672C10.513 18.672 11.343 18.809 12.376 19.08C13.41 19.353 14.103 19.49 14.4531 19.49C15.897 19.49 17.6921 18.893 19.8381 17.705C21.9841 16.516 22.998 15.92 22.8811 15.92C22.4901 20.017 21.1251 22.769 18.7841 24.17C17.1061 25.148 16.2681 26.104 16.2681 27.037C16.2681 27.623 16.6181 28.092 17.3201 28.443C17.8661 28.714 18.4711 28.851 19.1351 28.851C20.1491 28.851 21.1431 28.228 22.1191 26.979C23.0931 25.732 23.5222 24.6 23.4052 23.585C23.2891 22.413 23.3682 21.009 23.6401 19.372C23.7172 18.902 24.0012 18.327 24.4882 17.645C24.9761 16.961 25.4161 16.541 25.8052 16.383C25.8052 16.737 25.6782 17.322 25.4252 18.139C25.1711 18.959 25.0452 19.566 25.0452 19.953C25.0452 20.813 25.2792 21.476 25.7482 21.943C26.4492 21.672 27.0721 20.793 27.6202 19.309C28.0882 18.179 28.3602 17.085 28.4402 16.035C26.8002 15.957 25.2292 15.215 23.7292 13.808C22.2282 12.404 21.4772 10.883 21.4772 9.245C21.4772 8.974 21.5142 8.698 21.5942 8.42599C21.8262 8.77899 22.1772 9.325 22.6472 10.066C23.3091 11.041 23.8171 11.529 24.1682 11.529C24.6362 11.529 24.8702 11.041 24.8702 10.066C24.8702 8.817 24.5382 7.68599 23.8752 6.67099C23.1322 5.45999 22.1762 4.85699 21.0082 4.85699C20.4602 4.85699 19.6422 5.149 18.5502 5.735C17.4572 6.319 16.4622 6.61301 15.5672 6.61301C15.2942 6.61301 14.0832 6.26001 11.9382 5.55901C15.7212 4.93401 17.6142 4.369 17.6142 3.86C17.6142 2.535 15.0202 1.63699 9.83118 1.172C9.32318 1.133 8.38818 1.05499 7.02216 0.936996C7.17719 0.742996 8.29016 0.529999 10.3582 0.292999C12.1132 0.100998 13.3411 0 14.0432 0C23.3281 0 29.2181 4.506 31.7161 13.521C32.1472 13.163 32.3611 12.571 32.3611 11.741C32.3611 10.673 32.0491 9.32899 31.4241 7.70799C31.1891 7.073 30.8171 6.12399 30.3112 4.85899C33.5092 8.93399 35.1111 12.797 35.1111 16.442C35.1111 18.364 34.6602 20.109 33.7631 21.674C33.1801 22.733 32.0851 24.084 30.4871 25.733C28.8871 27.378 27.7961 28.652 27.2101 29.554C29.3561 28.968 30.7612 28.519 31.4241 28.207C32.9052 27.543 34.2521 26.547 35.4611 25.222C35.461 25.732 35.246 26.494 34.818 27.503C34.818 27.503 34.818 27.503 34.818 27.503ZM9.30402 4.50699C9.30402 5.20799 8.91302 5.65898 8.13403 5.855C8.13403 5.855 6.61304 6.08699 6.61304 6.08699C6.06604 6.35899 5.26605 7.435 4.21503 9.30598C4.09601 8.72198 3.922 7.90298 3.68701 6.84898C3.336 6.88599 2.75201 7.20099 1.93201 7.78499C1.58099 8.05798 1.01501 8.46899 0.233032 9.01399C0.468018 7.61099 1.25006 6.18799 2.57501 4.743C3.979 3.14499 5.34503 2.347 6.67102 2.347C8.42603 2.345 9.30402 3.06599 9.30402 4.50699C9.30402 4.50699 9.30402 4.50699 9.30402 4.50699ZM19.486 9.892C19.486 10.554 19.125 11.112 18.403 11.56C17.681 12.007 16.969 12.233 16.268 12.233C15.33 12.233 14.491 11.709 13.751 10.652C12.853 9.367 11.937 8.52701 11.001 8.136C11.1949 7.94099 11.43 7.843 11.705 7.843C12.054 7.843 12.6489 8.114 13.488 8.661C14.325 9.20999 14.863 9.481 15.098 9.481C15.293 9.481 15.614 9.21001 16.062 8.661C16.5099 8.114 17.0079 7.843 17.5549 7.843C18.843 7.843 19.486 8.52699 19.486 9.892C19.486 9.892 19.486 9.892 19.486 9.892Z" fill="#0D0F0F" transform="translate(54 47)" />
    <path d="M24.147 41.159C21.454 43.895 18.14 45.266 14.201 45.266C9.77899 45.266 6.27197 43.753 3.677 40.725C1.22498 37.84 0 34.165 0 29.698C0 24.893 2.09003 19.414 6.27197 13.262C9.68298 8.218 13.6949 3.797 18.309 0C17.636 3.077 17.3 5.262 17.3 6.559C17.3 9.539 18.235 12.448 20.111 15.282C22.417 18.645 24.1719 21.145 25.373 22.778C27.247 25.614 28.185 28.378 28.185 31.065C28.184 35.058 26.837 38.419 24.147 41.159C24.147 41.159 24.147 41.159 24.147 41.159ZM24.075 25.773C23.3539 24.162 22.514 23.092 21.5519 22.562C21.697 22.851 21.7679 23.259 21.7679 23.79C21.7679 24.8 21.481 26.24 20.9039 28.113C20.9039 28.113 19.9659 30.998 19.9659 30.998C19.9659 32.679 20.8069 33.519 22.489 33.519C24.2659 33.519 25.157 32.341 25.157 29.988C25.1559 28.786 24.7949 27.381 24.075 25.773C24.075 25.773 24.075 25.773 24.075 25.773Z" fill="#0D0F0F" transform="translate(16 7)" />
  </g>
</svg>