<?xml version="1.0" encoding="utf-8"?>
<svg width="100" height="99.999" viewBox="0 0 100 99.999" fill="none" xmlns="http://www.w3.org/2000/svg">
  <g>
    <g>
      <path d="M70.703 0C79.755 9.05099 85.354 21.551 85.354 35.36C85.354 62.976 62.967 85.363 35.354 85.363C21.547 85.363 9.04901 79.767 0 70.717C0 70.717 70.703 0 70.703 0Z" fill="#E49977" transform="translate(14.646 14.636)" />
      <path d="M14.646 85.353C5.59698 76.306 0 63.804 0 49.997C0 22.384 22.387 0 50 0C63.802 0 76.301 5.593 85.349 14.637C85.349 14.637 14.646 85.353 14.646 85.353Z" fill="#CAC5C0" />
    </g>
    <path d="M34.818 27.5018C33.1 31.6008 29.688 33.6468 24.578 33.6468C23.641 33.6468 22.626 33.7638 21.534 34.0008C19.895 34.3498 19.076 34.8388 19.076 35.4638C19.076 35.6568 19.212 35.8818 19.486 36.1378C19.7579 36.3918 19.994 36.5179 20.189 36.5179C19.212 36.5179 19.8749 36.5459 22.176 36.6049C24.4789 36.6638 25.923 36.6938 26.509 36.6938C23.115 38.6808 17.439 39.5969 9.47998 39.4438C6.86597 39.4048 4.62299 38.2538 2.75098 35.9898C0.915955 33.8438 0 31.4489 0 28.7928C0 25.9848 0.945984 23.5968 2.83899 21.6248C4.729 19.6548 7.08099 18.6699 9.89001 18.6699C10.513 18.6699 11.343 18.8069 12.376 19.0799C13.41 19.3529 14.103 19.4899 14.4531 19.4899C15.897 19.4899 17.6921 18.8939 19.8381 17.7029C21.9841 16.5149 22.998 15.9199 22.8811 15.9199C22.4901 20.0179 21.1251 22.7669 18.7841 24.1719C17.1061 25.1479 16.2681 26.1019 16.2681 27.0389C16.2681 27.6209 16.6181 28.0919 17.3201 28.4419C17.8661 28.7159 18.4711 28.8519 19.1351 28.8519C20.1491 28.8519 21.1431 28.2279 22.1191 26.9789C23.0931 25.7299 23.5222 24.5999 23.4052 23.5829C23.2891 22.4129 23.3682 21.0099 23.6401 19.3699C23.7172 18.9009 24.0012 18.3269 24.4882 17.6429C24.9761 16.959 25.4161 16.541 25.8052 16.3849C25.8052 16.735 25.6782 17.321 25.4252 18.14C25.1711 18.959 25.0452 19.567 25.0452 19.9529C25.0452 20.8109 25.2792 21.4739 25.7482 21.9429C26.4492 21.6699 27.0721 20.7909 27.6202 19.3089C28.0882 18.1779 28.3602 17.0849 28.4402 16.0329C26.8002 15.9549 25.2292 15.2149 23.7292 13.8089C22.2282 12.4039 21.4772 10.8819 21.4772 9.24594C21.4772 8.97293 21.5142 8.69894 21.5942 8.42593C21.8262 8.77792 22.1772 9.32394 22.6472 10.0649C23.3091 11.0419 23.8171 11.5269 24.1682 11.5269C24.6362 11.5269 24.8702 11.042 24.8702 10.0649C24.8702 8.81696 24.5382 7.68494 23.8752 6.66995C23.1322 5.46094 22.1762 4.85696 21.0082 4.85696C20.4602 4.85696 19.6422 5.14795 18.5502 5.73398C17.4572 6.31699 16.4622 6.61099 15.5672 6.61099C15.2942 6.61099 14.0832 6.259 11.9382 5.55701C15.7212 4.935 17.6142 4.36902 17.6142 3.86099C17.6142 2.53699 15.0202 1.63699 9.83118 1.16998C9.32318 1.133 8.38818 1.05399 7.02216 0.935974C7.17719 0.742981 8.29016 0.527985 10.3582 0.290985C12.1132 0.098999 13.3411 0 14.0432 0C23.3281 0 29.2181 4.508 31.7161 13.521C32.1472 13.165 32.3611 12.569 32.3611 11.741C32.3611 10.671 32.0491 9.327 31.4241 7.70599C31.1891 7.073 30.8171 6.12399 30.3112 4.85901C33.5092 8.93402 35.1111 12.797 35.1111 16.443C35.1111 18.364 34.6602 20.107 33.7631 21.674C33.1801 22.731 32.0851 24.082 30.4871 25.732C28.8871 27.378 27.7961 28.652 27.2101 29.552C29.3561 28.969 30.7612 28.518 31.4241 28.205C32.9052 27.5431 34.2521 26.5471 35.4611 25.2231C35.461 25.7278 35.246 26.4908 34.818 27.5018C34.818 27.5018 34.818 27.5018 34.818 27.5018ZM9.30402 4.50583C9.30402 5.20682 8.91302 5.65384 8.13403 5.85184C8.13403 5.85184 6.61304 6.08383 6.61304 6.08383C6.06604 6.35583 5.26605 7.43182 4.21503 9.30383C4.09601 8.71884 3.922 7.90182 3.68701 6.84583C3.336 6.88483 2.75201 7.19684 1.93201 7.78381C1.58099 8.05481 1.01501 8.4678 0.233032 9.01282C0.468018 7.60883 1.25006 6.18683 2.57501 4.74182C3.979 3.14081 5.34503 2.34381 6.67102 2.34381C8.42603 2.33984 9.30402 3.06284 9.30402 4.50583C9.30402 4.50583 9.30402 4.50583 9.30402 4.50583ZM19.486 9.88983C19.486 10.5528 19.125 11.1088 18.403 11.5568C17.681 12.0058 16.969 12.2308 16.268 12.2308C15.33 12.2308 14.491 11.7038 13.751 10.6508C12.853 9.36386 11.937 8.52585 11.001 8.13284C11.1949 7.93985 11.43 7.83984 11.705 7.83984C12.054 7.83984 12.6489 8.11285 13.488 8.65784C14.325 9.20685 14.863 9.47684 15.098 9.47684C15.293 9.47684 15.614 9.20584 16.062 8.65784C16.5099 8.11282 17.0079 7.83984 17.5549 7.83984C18.843 7.83984 19.486 8.52585 19.486 9.88983C19.486 9.88983 19.486 9.88983 19.486 9.88983Z" fill="#0D0F0F" transform="translate(54 47)" />
    <path d="M26.687 29.223L23.821 38.898L0 38.898C0 38.898 0 36.83 0 36.83C1.15698 35.541 3.69202 32.941 7.60699 29.025C9.96399 26.668 12.299 24.174 14.612 21.549C15.769 20.262 16.66 19.148 17.279 18.214C18.658 16.214 19.349 14.169 19.349 12.075C19.349 10.03 18.716 8.22899 17.448 6.67299C16.181 5.11398 14.545 4.33499 12.543 4.33499C8.22998 4.33499 4.849 7.24998 2.40295 13.077C2.40295 13.077 0.26593 12.276 0.26593 12.276C3.15692 4.091 7.71393 0 13.9439 0C17.0129 0 19.6259 1.04401 21.7829 3.13499C23.9419 5.226 25.0189 7.80499 25.0189 10.875C25.0189 14.79 22.7739 18.614 18.2809 22.353C18.2809 22.353 13.6129 26.219 13.6129 26.219C10.6319 28.711 8.15991 31.046 6.20691 33.226C6.07092 33.361 5.80493 33.672 5.40491 34.162C5.40491 34.162 17.8149 34.162 17.8149 34.162C19.7269 34.162 21.1739 33.785 22.1499 33.027C22.9949 32.359 23.8199 31.09 24.6199 29.224C24.6199 29.224 26.687 29.223 26.687 29.223L26.687 29.223L26.687 29.223Z" fill="#0D0F0F" transform="translate(16 12)" />
  </g>
</svg>