<?xml version="1.0" encoding="utf-8"?>
<svg width="100" height="99.999" viewBox="0 0 100 99.999" fill="none" xmlns="http://www.w3.org/2000/svg">
  <g>
    <g>
      <path d="M70.704 0C79.756 9.05099 85.355 21.551 85.355 35.36C85.355 62.976 62.969 85.363 35.354 85.363C21.548 85.363 9.04901 79.767 0 70.717C0 70.717 70.704 0 70.704 0Z" fill="#C1D7E9" transform="translate(14.645 14.636)" />
      <path d="M14.646 85.353C5.59698 76.306 0 63.804 0 49.997C0 22.384 22.386 0 49.999 0C63.803 0 76.301 5.593 85.349 14.637C85.349 14.637 14.646 85.353 14.646 85.353Z" fill="#CAC5C0" />
    </g>
    <path d="M24.147 41.158C21.455 43.897 18.139 45.266 14.2 45.266C9.77802 45.266 6.271 43.752 3.67603 40.726C1.224 37.842 0 34.168 0 29.698C0 24.894 2.09003 19.417 6.271 13.264C9.68097 8.21701 13.694 3.797 18.308 0C17.635 3.076 17.298 5.26199 17.298 6.561C17.298 9.54102 18.235 12.447 20.1089 15.282C22.416 18.647 24.1699 21.146 25.371 22.778C27.245 25.613 28.1819 28.378 28.1819 31.067C28.183 35.057 26.8381 38.421 24.147 41.158C24.147 41.158 24.147 41.158 24.147 41.158ZM24.0751 25.77C23.3541 24.161 22.5131 23.09 21.5521 22.562C21.6971 22.85 21.7671 23.26 21.7671 23.788C21.7671 24.798 21.4801 26.241 20.9041 28.112C20.9041 28.112 19.9661 30.997 19.9661 30.997C19.9661 32.677 20.8051 33.519 22.4881 33.519C24.2651 33.519 25.1561 32.342 25.1561 29.987C25.1561 28.786 24.796 27.379 24.0751 25.77C24.0751 25.77 24.0751 25.77 24.0751 25.77Z" fill="#0D0F0F" transform="translate(52 43)" />
    <path d="M26.687 29.223L23.821 38.898L0 38.898C0 38.898 0 36.83 0 36.83C1.15698 35.541 3.69202 32.941 7.60699 29.025C9.96399 26.668 12.299 24.174 14.612 21.549C15.769 20.262 16.66 19.148 17.279 18.214C18.658 16.214 19.349 14.169 19.349 12.075C19.349 10.03 18.716 8.22899 17.448 6.67299C16.181 5.11398 14.545 4.33499 12.543 4.33499C8.22998 4.33499 4.849 7.24998 2.40295 13.077C2.40295 13.077 0.26593 12.276 0.26593 12.276C3.15692 4.091 7.71393 0 13.9439 0C17.0129 0 19.6259 1.04401 21.7829 3.13499C23.9419 5.226 25.0189 7.80499 25.0189 10.875C25.0189 14.79 22.7739 18.614 18.2809 22.353C18.2809 22.353 13.6129 26.219 13.6129 26.219C10.6319 28.711 8.15991 31.046 6.20691 33.226C6.07092 33.361 5.80493 33.672 5.40491 34.162C5.40491 34.162 17.8149 34.162 17.8149 34.162C19.7269 34.162 21.1739 33.785 22.1499 33.027C22.9949 32.359 23.8199 31.09 24.6199 29.224C24.6199 29.224 26.687 29.223 26.687 29.223L26.687 29.223L26.687 29.223Z" fill="#0D0F0F" transform="translate(16 12)" />
  </g>
</svg>