<?xml version="1.0" encoding="utf-8"?>
<svg width="100" height="99.999" viewBox="0 0 100 99.999" fill="none" xmlns="http://www.w3.org/2000/svg">
  <g>
    <g>
      <g>
        <path d="M70.704 0C79.756 9.05099 85.355 21.551 85.355 35.36C85.355 62.976 62.969 85.363 35.354 85.363C21.548 85.363 9.04901 79.767 0 70.717C0 70.717 70.704 0 70.704 0Z" fill="#F8F6D8" transform="translate(14.645 14.636)" />
        <path d="M14.646 85.353C5.59698 76.306 0 63.804 0 49.997C0 22.384 22.386 0 49.999 0C63.803 0 76.301 5.593 85.349 14.637C85.349 14.637 14.646 85.353 14.646 85.353Z" fill="#CAC5C0" />
      </g>
      <path d="M39.634 27.755C37.1981 25.491 35.58 24.264 34.787 24.073C34.21 23.935 33.652 24.271 33.1151 25.079C32.5781 25.887 31.8231 26.171 30.8461 25.937C30.4501 25.842 29.6711 25.502 28.5131 24.92C27.5751 25.805 27.0721 26.391 27.0031 26.678C26.9081 27.076 27.0911 27.616 27.553 28.3C28.0131 28.984 28.447 29.371 28.853 29.47C29.111 29.532 29.475 29.561 29.944 29.559C30.411 29.558 30.721 29.575 30.8701 29.61C31.314 29.714 31.3391 30.581 30.9481 32.208C30.5781 33.76 29.6461 36.06 28.155 39.1C28.097 35.191 27.546 33.111 26.499 32.861C26.354 32.826 26.03 32.865 25.527 32.972C25.023 33.079 24.663 33.109 24.447 33.057C23.4 32.806 22.689 31.624 22.317 29.511C20.594 29.366 19.56 30.017 19.214 31.46C19.041 32.186 19.238 32.843 19.803 33.436C20.367 34.028 20.627 34.415 20.586 34.596C20.353 35.574 18.565 36.729 15.231 38.069C13.454 38.791 12.225 39.297 11.543 39.591C12.201 39.063 12.912 38.335 13.669 37.409C14.532 36.352 15.041 35.503 15.198 34.85C15.284 34.491 14.989 33.883 14.315 33.036C13.639 32.187 13.389 31.402 13.562 30.681C13.708 30.067 14.105 29.362 14.755 28.561C14.415 27.908 13.921 27.501 13.269 27.346C11.825 26.999 10.991 27.296 10.766 28.237C10.921 27.586 10.805 28.074 10.417 29.699C10.167 30.899 9.12097 31.279 7.27899 30.84C5.87 30.502 3.58301 29.611 0.414978 28.166C4.39697 28.127 6.53296 27.492 6.82599 26.265C6.79401 26.411 6.823 25.957 6.922 24.912C7.04498 23.758 8.08197 22.935 10.031 22.447C10.103 20.709 9.43799 19.67 8.02802 19.334C7.81201 19.281 7.32202 19.565 6.565 20.187C5.80402 20.806 5.17102 21.057 4.66699 20.935C3.79999 20.73 2.90497 19.522 1.98297 17.315C1.55695 16.219 0.895996 14.592 0 12.43C0.72699 13.062 1.453 13.696 2.18103 14.326C3.14404 15.0919 3.95105 15.551 4.60004 15.709C5.10602 15.8279 5.70801 15.504 6.40802 14.735C7.10602 13.9659 7.85303 13.6769 8.64801 13.869C8.75903 13.895 9.42804 14.283 10.66 15.037C11.597 14.154 12.126 13.461 12.247 12.955C12.349 12.52 12.207 11.961 11.817 11.276C11.428 10.589 11.015 10.197 10.581 10.091C10.401 10.048 10.109 10.034 9.70398 10.052C9.29895 10.072 9.00598 10.058 8.82495 10.015C8.17596 9.85999 8.04395 8.96997 8.43292 7.34299C8.53491 6.909 9.54395 4.534 11.4559 0.220993C11.2899 0.751007 11.283 1.82098 11.4349 3.423C11.6149 5.37601 12.1219 6.45001 12.9529 6.651C13.0969 6.68399 13.4109 6.646 13.8979 6.53299C14.382 6.41998 14.751 6.39297 15.002 6.45499C15.832 6.65198 16.4059 7.28699 16.7239 8.35498C16.7239 8.35498 17.187 10.009 17.187 10.009C17.944 10.193 18.6409 10.073 19.2759 9.65298C19.9119 9.23199 20.322 8.642 20.5029 7.88397C20.692 7.08896 20.5029 6.40497 19.9349 5.82898C19.3649 5.25299 19.106 4.85699 19.1599 4.64099C19.3409 3.88199 20.8389 2.88599 23.6549 1.651C25.9139 0.666016 27.3639 0.115005 28.0039 0C25.9499 1.72501 24.8049 3.07001 24.5729 4.047C24.4509 4.55399 24.6279 5.168 25.1039 5.89499C25.6989 6.76199 26.0149 7.354 26.0539 7.66599C26.2149 8.586 25.9079 9.71298 25.1289 11.056C25.9399 11.976 26.5979 12.494 27.1059 12.618C28.1499 12.868 28.8039 12.45 29.0639 11.368C29.0899 11.259 29.1269 10.905 29.1759 10.305C29.2219 9.70502 29.2749 9.37302 29.3269 9.31003C29.5939 8.83804 30.6469 8.82303 32.4889 9.26501C33.6449 9.54102 35.9679 10.44 39.4609 11.963C38.6139 11.99 37.3448 12.028 35.6519 12.084C34.1028 12.17 33.2639 12.485 33.1318 13.026C33.0728 13.279 33.0579 13.734 33.0919 14.39C33.1259 15.046 33.1099 15.522 33.0389 15.811C32.9189 16.317 32.4809 16.707 31.7279 16.986C31.7279 16.986 29.5719 17.845 29.5719 17.845C29.8179 18.743 29.9919 19.283 30.1029 19.46C30.3619 19.981 30.7949 20.314 31.4099 20.462C31.8439 20.566 32.3319 20.282 32.8749 19.608C33.4169 18.936 34.0869 18.695 34.8809 18.886C35.8569 19.118 36.7419 20.284 37.5379 22.384C37.983 23.561 38.681 25.352 39.634 27.755C39.634 27.755 39.634 27.755 39.634 27.755ZM28.359 21.736C28.911 19.423 28.543 17.216 27.251 15.113C25.959 13.01 24.157 11.68 21.847 11.127C19.499 10.566 17.2731 10.9221 15.175 12.1971C13.077 13.468 11.728 15.274 11.1301 17.613C10.54 19.916 10.92 22.117 12.2711 24.217C13.6201 26.315 15.451 27.642 17.7631 28.195C20.2181 28.782 22.4611 28.469 24.488 27.255C26.5161 26.04 27.806 24.199 28.359 21.736C28.359 21.736 28.359 21.736 28.359 21.736ZM27.546 21.54C27.019 23.743 25.843 25.391 24.015 26.479C22.189 27.569 20.173 27.852 17.971 27.325C15.84 26.815 14.193 25.638 13.03 23.794C11.867 21.95 11.5421 19.964 12.051 17.833C12.554 15.737 13.75 14.124 15.644 12.991C17.54 11.861 19.533 11.546 21.626 12.048C23.72 12.548 25.355 13.741 26.525 15.624C27.6981 17.511 28.038 19.482 27.546 21.54C27.546 21.54 27.546 21.54 27.546 21.54Z" fill="#0D0F0F" transform="translate(48 45)" />
    </g>
    <g transform="translate(10 9)">
      <path d="M24 0C24 0 28.05 8.1 34.05 14.1C40.05 20.1 48 24 48 24C48 24 40.05 27.9 34.05 33.9C28.05 39.9 24 48 24 48C24 48 19.95 39.9 13.95 33.9C7.95 27.9 0 24 0 24C0 24 7.95 20.1 13.95 14.1C19.95 8.1 24 0 24 0Z" fill="#0D0F0F" fill-rule="evenodd" />
      <path d="M15.3 1.90735e-06C15.3 1.90735e-06 17.9369 5.4869 21.45 9.00001C24.9631 12.5131 30.15 15.1209 30.15 15.1209C30.15 15.1209 24.9631 17.7869 21.45 21.3C17.9369 24.8131 15.3 30.15 15.3 30.15C15.3 30.15 12.6631 24.8131 9.15001 21.3C5.63689 17.7869 0 15.1209 0 15.1209C0 15.1209 5.63689 12.5131 9.15001 9.00001C12.6631 5.48689 15.3 1.90735e-06 15.3 1.90735e-06Z" fill="#CAC5C0" fill-rule="evenodd" transform="matrix(-0 -1 1 -0 8.85 39.3)" />
    </g>
  </g>
</svg>