<?xml version="1.0" encoding="utf-8"?>
<svg width="100" height="100" viewBox="0 0 100 100" fill="none" xmlns="http://www.w3.org/2000/svg">
  <g>
    <path d="M100 49.998C100 77.613 77.615 100 49.998 100C22.385 100 0 77.613 0 49.998C0 22.385 22.385 0 49.998 0C77.615 0 100 22.385 100 49.998C100 49.998 100 49.998 100 49.998Z" fill="#A3C095" />
    <path d="M55.3065 48.927C55.3645 43.583 53.6655 38.188 50.3395 33.999C48.7305 32.228 47.4085 30.212 45.7055 28.538C41.9515 24.812 36.3305 24.564 31.8085 22.217C31.5465 19.86 30.6835 17.502 31.2055 15.124C31.3645 14.333 31.5975 13.531 31.1775 12.775C29.9905 10.043 31.0095 7.077 30.7985 4.228C30.6405 2.73999 30.7415 0.918991 29.3245 0C28.9945 3.097 27.8555 5.979 26.9325 8.918C26.5065 11.208 26.5065 13.594 25.5195 15.754C26.1455 17.942 24.9055 19.784 23.5635 21.4C20.5975 22.92 17.0675 23.281 14.4865 25.51C12.6455 27.072 10.6585 28.441 8.59852 29.712C7.05352 31.646 5.34252 33.509 4.65452 35.952C1.89252 39.287 1.56652 43.763 0.000520706 47.669C-0.0284786 53.468 1.14652 59.712 4.85052 64.36C7.50052 66.548 9.35252 69.491 11.9985 71.68C14.5385 73.196 17.2495 74.442 19.8725 75.807C21.5825 76.205 23.3475 76.401 25.0485 76.866C26.4285 83.975 27.3705 91.257 30.1395 97.999C31.0595 95.231 30.9485 92.265 31.7415 89.468C32.8595 85.332 30.5655 81.027 31.8585 76.967C33.7965 75.234 37.0285 76.359 39.1785 74.872C43.2705 72.349 47.6005 69.892 50.5685 66.032C51.6725 63.813 53.9945 62.155 53.9945 59.493C54.0135 55.908 56.1025 52.551 55.3065 48.927C55.3065 48.927 55.3065 48.927 55.3065 48.927ZM24.9315 70.857C21.9665 70.136 19.2045 68.718 16.7175 66.986C14.0415 65.203 13.0435 61.876 10.4035 60.052C7.93152 57.101 8.46652 53.07 7.45352 49.576C7.85952 47.138 8.33852 44.72 8.59152 42.251C9.79752 40.295 11.6585 38.735 12.1745 36.381C13.9415 33.849 16.6325 32.097 18.7935 29.902C20.3655 28.089 22.8675 28.853 24.9325 28.783C24.7275 30.783 24.5645 32.851 25.0655 34.824C25.3095 36.036 25.8565 37.23 25.6685 38.5C25.2545 41.199 26.2675 43.906 25.5515 46.574C24.1085 52.152 25.6825 57.783 25.8195 63.406C25.6145 65.897 25.4985 68.406 24.9315 70.857C24.9315 70.857 24.9315 70.857 24.9315 70.857ZM47.4085 60.287C45.4445 61.683 43.7705 63.398 42.0575 65.072C39.0785 67.132 36.1335 69.312 32.5885 70.342C32.9075 67.813 33.2195 65.211 32.4135 62.735C30.4355 57.141 32.8595 51.29 33.2675 45.633C32.9075 42.27 33.2515 38.682 31.7105 35.584C31.5075 33.257 32.5135 31.01 33.1955 28.82C35.5375 29.755 37.7425 31.017 39.6915 32.64C42.0455 34.404 45.6515 35.548 46.1785 38.838C46.4475 40.999 48.8115 42.306 48.7425 44.517C48.5975 49.773 49.3225 55.27 47.4085 60.287C47.4085 60.287 47.4085 60.287 47.4085 60.287Z" fill="#111212" transform="translate(22 1)" />
  </g>
</svg>