<?xml version="1.0" encoding="utf-8"?>
<svg width="100" height="100" viewBox="0 0 100 100" fill="none" xmlns="http://www.w3.org/2000/svg">
  <g>
    <g>
      <path d="M70.704 0C79.757 9.051 85.354 21.551 85.354 35.36C85.354 62.976 62.967 85.363 35.354 85.363C21.547 85.363 9.049 79.767 0 70.717C0 70.717 70.704 0 70.704 0Z" fill="#C1D7E9" transform="translate(14.646 14.637)" />
      <path d="M14.646 85.354C5.596 76.307 0 63.805 0 49.997C0 22.384 22.387 0 50 0C63.803 0 76.301 5.593 85.35 14.637C85.35 14.637 14.646 85.354 14.646 85.354Z" fill="#A3C095" />
    </g>
    <path d="M24.147 41.158C21.454 43.897 18.139 45.267 14.202 45.267C9.778 45.267 6.272 43.752 3.678 40.726C1.226 37.842 0 34.168 0 29.698C0 24.894 2.091 19.417 6.272 13.264C9.682 8.217 13.696 3.797 18.308 0C17.633 3.076 17.299 5.26199 17.299 6.561C17.299 9.541 18.235 12.447 20.11 15.282C22.417 18.647 24.172 21.146 25.372 22.778C27.245 25.613 28.185 28.378 28.185 31.067C28.183 35.057 26.836 38.421 24.147 41.158C24.147 41.158 24.147 41.158 24.147 41.158ZM24.072 25.77C23.353 24.161 22.511 23.09 21.551 22.562C21.697 22.85 21.768 23.26 21.768 23.788C21.768 24.798 21.481 26.241 20.903 28.112C20.903 28.112 19.965 30.997 19.965 30.997C19.965 32.677 20.805 33.519 22.486 33.519C24.263 33.519 25.154 32.342 25.154 29.987C25.154 28.786 24.794 27.379 24.072 25.77C24.072 25.77 24.072 25.77 24.072 25.77Z" fill="#0D0F0F" transform="translate(52 43)" />
    <path d="M39.647 22.632C39.647 23.389 39.354 24.07 38.768 24.675C38.181 25.279 37.509 25.579 36.751 25.579C35.544 25.579 34.653 25.014 34.088 23.879C34.088 23.879 31.422 23.767 31.422 23.767C30.854 23.767 29.737 24.012 28.076 24.503C26.299 24.993 25.278 25.391 25.012 25.694C24.598 26.147 24.257 27.208 23.992 28.87C23.764 30.231 23.653 31.233 23.653 31.878C23.653 32.896 23.813 33.645 24.133 34.118C24.454 34.59 25.117 34.985 26.117 35.306C27.118 35.625 27.733 35.808 27.961 35.844C28.112 35.844 28.357 35.826 28.698 35.787C28.698 35.787 29.379 35.787 29.379 35.787C29.87 35.787 30.38 35.865 30.911 36.015C31.666 36.241 31.988 36.543 31.876 36.921C31.345 36.848 30.42 36.959 29.098 37.262C29.098 37.262 30.684 38.057 30.684 38.057C30.684 38.511 30.041 38.737 28.756 38.737C28.414 38.737 27.951 38.663 27.366 38.511C26.779 38.358 26.391 38.282 26.203 38.282C26.203 38.282 25.467 38.282 25.467 38.282C25.428 38.661 25.316 39.226 25.126 39.985C24.481 39.946 23.727 39.567 22.856 38.85C21.986 38.131 21.438 37.772 21.213 37.772C20.985 37.772 20.662 38.131 20.248 38.85C19.831 39.567 19.624 40.058 19.624 40.325C19.133 40.058 18.719 39.567 18.375 38.85C18.224 38.356 18.054 37.866 17.866 37.373C17.487 37.41 16.789 38.207 15.767 39.757C15.767 39.757 15.483 39.757 15.483 39.757C15.407 39.643 15.123 38.85 14.631 37.373C13.459 36.996 12.363 36.808 11.343 36.808C10.852 36.808 10.094 36.92 9.073 37.149C9.073 37.149 7.487 37.038 7.487 37.038C7.712 36.809 8.375 36.374 9.47 35.731C10.754 34.973 11.739 34.595 12.419 34.595C12.531 34.595 12.683 34.616 12.873 34.653C13.061 34.694 13.214 34.712 13.327 34.712C13.59 34.712 14.016 34.569 14.602 34.284C15.188 34.001 15.529 33.747 15.621 33.519C15.719 33.29 15.767 32.706 15.767 31.76C15.767 29.606 15.199 27.998 14.064 26.939C13.081 25.997 11.456 25.315 9.187 24.897C8.583 27.051 6.88 28.131 4.084 28.131C3.175 28.131 2.269 27.584 1.361 26.486C0.456 25.386 0 24.386 0 23.478C0 22.078 0.586 20.927 1.758 20.018C0.814 19.037 0.34 18.035 0.34 17.013C0.34 16.068 0.632 15.236 1.219 14.517C1.805 13.801 2.572 13.383 3.516 13.268C3.442 12.061 3.837 11.226 4.707 10.774C4.291 10.359 4.084 9.62299 4.084 8.563C4.084 7.31599 4.498 6.27699 5.331 5.445C6.161 4.613 7.203 4.195 8.448 4.195C9.811 4.195 10.927 4.67 11.796 5.613C12.894 1.871 15.255 0 18.885 0C20.775 0 22.439 0.757004 23.875 2.271C24.405 2.83401 24.668 3.139 24.668 3.176C24.216 3.176 24.443 3.09 25.349 2.92001C26.258 2.75001 26.917 2.66401 27.335 2.66401C28.809 2.66401 30.113 3.21401 31.25 4.31001C32.232 5.29401 32.913 6.53901 33.292 8.05201C33.555 8.09001 33.971 8.20201 34.538 8.39201C35.369 8.81001 35.786 9.52701 35.786 10.548C35.786 10.737 35.634 11.097 35.332 11.626C37.751 12.987 38.962 14.876 38.962 17.296C38.962 17.977 38.696 18.924 38.169 20.133C39.154 20.702 39.647 21.535 39.647 22.632C39.647 22.632 39.647 22.632 39.647 22.632ZM16.279 25.128C16.279 25.128 16.279 24.391 16.279 24.391C16.279 23.521 15.854 22.727 15.003 22.009C14.152 21.288 13.293 20.932 12.423 20.932C11.363 20.932 10.381 21.177 9.474 21.667C11.478 21.556 13.746 22.706 16.279 25.128C16.279 25.128 16.279 25.128 16.279 25.128ZM15.258 18.097C14.692 17.451 14.2 16.79 13.784 16.111C12.195 16.527 11.402 17 11.402 17.527C11.854 17.49 12.517 17.576 13.385 17.783C14.255 17.993 14.881 18.097 15.258 18.097C15.258 18.097 15.258 18.097 15.258 18.097ZM18.721 16.337C18.721 16.337 18.721 13.841 18.721 13.841C17.811 13.691 17.262 13.614 17.075 13.614C17.075 13.614 17.075 14.465 17.075 14.465L18.721 16.337L18.721 16.337ZM26.092 14.749C25.638 14.56 24.787 14.182 23.538 13.614C23.538 13.614 23.538 18.491 23.538 18.491C25.317 17.469 26.166 16.223 26.092 14.749C26.092 14.749 26.092 14.749 26.092 14.749ZM29.208 21.441C29.208 21.441 27.962 19.912 27.962 19.912C27.207 20.441 26.441 20.979 25.664 21.527C24.889 22.074 24.219 22.69 23.653 23.371C25.352 22.46 27.207 21.82 29.208 21.441C29.208 21.441 29.208 21.441 29.208 21.441Z" fill="#0D0F0F" transform="translate(12 12)" />
  </g>
</svg>