<?xml version="1.0" encoding="utf-8"?>
<svg width="100" height="100" viewBox="0 0 100 100" fill="none" xmlns="http://www.w3.org/2000/svg">
  <g>
    <g>
      <path d="M70.703 0C79.755 9.051 85.354 21.551 85.354 35.36C85.354 62.976 62.967 85.363 35.354 85.363C21.547 85.363 9.049 79.767 0 70.717C0 70.717 70.703 0 70.703 0Z" fill="#F8F6D8" transform="translate(14.646 14.637)" />
      <path d="M14.646 85.354C5.596 76.307 0 63.805 0 49.998C0 22.384 22.387 0 50 0C63.802 0 76.301 5.593 85.349 14.637C85.349 14.637 14.646 85.354 14.646 85.354Z" fill="#A3C095" />
    </g>
    <path d="M39.639 27.757C37.203 25.493 35.585 24.266 34.791 24.075C34.215 23.936 33.656 24.273 33.119 25.079C32.582 25.888 31.828 26.173 30.851 25.939C30.455 25.844 29.676 25.504 28.517 24.92C27.579 25.806 27.076 26.392 27.006 26.679C26.911 27.078 27.095 27.617 27.557 28.301C28.017 28.984 28.451 29.373 28.858 29.472C29.115 29.534 29.479 29.563 29.948 29.561C30.416 29.56 30.725 29.577 30.875 29.612C31.318 29.716 31.344 30.583 30.953 32.208C30.583 33.762 29.651 36.062 28.16 39.101C28.101 35.192 27.55 33.111 26.504 32.863C26.359 32.828 26.035 32.867 25.532 32.974C25.027 33.081 24.668 33.111 24.452 33.058C23.404 32.808 22.694 31.624 22.321 29.513C20.598 29.367 19.564 30.019 19.218 31.462C19.044 32.188 19.241 32.845 19.807 33.437C20.37 34.029 20.63 34.417 20.589 34.597C20.356 35.574 18.568 36.731 15.233 38.071C13.457 38.793 12.226 39.299 11.545 39.593C12.204 39.065 12.914 38.337 13.672 37.411C14.534 36.354 15.043 35.505 15.2 34.852C15.286 34.493 14.991 33.885 14.316 33.038C13.64 32.189 13.39 31.404 13.563 30.683C13.709 30.069 14.106 29.362 14.757 28.563C14.416 27.91 13.922 27.503 13.272 27.348C11.828 26.999 10.993 27.298 10.768 28.238C10.923 27.588 10.806 28.076 10.418 29.701C10.168 30.901 9.122 31.28 7.28 30.842C5.871 30.504 3.584 29.613 0.416004 28.168C4.397 28.129 6.534 27.494 6.827 26.265C6.795 26.411 6.82401 25.959 6.924 24.912C7.04601 23.76 8.084 22.937 10.032 22.449C10.104 20.711 9.438 19.672 8.028 19.336C7.812 19.283 7.323 19.567 6.565 20.187C5.804 20.808 5.172 21.059 4.667 20.937C3.8 20.732 2.904 19.524 1.983 17.317C1.556 16.222 0.895 14.594 0 12.431C0.727001 13.064 1.453 13.698 2.182 14.327C3.145 15.095 3.952 15.554 4.601 15.71C5.107 15.831 5.709 15.507 6.409 14.738C7.108 13.969 7.855 13.68 8.649 13.872C8.76 13.898 9.429 14.286 10.662 15.04C11.599 14.157 12.128 13.464 12.25 12.958C12.352 12.523 12.21 11.964 11.819 11.279C11.429 10.592 11.017 10.2 10.584 10.094C10.403 10.049 10.111 10.037 9.706 10.056C9.301 10.075 9.008 10.061 8.827 10.018C8.178 9.86101 8.046 8.97301 8.435 7.347C8.537 6.912 9.545 4.537 11.457 0.223007C11.291 0.754013 11.284 1.82501 11.436 3.42601C11.617 5.37901 12.123 6.451 12.954 6.65401C13.098 6.686 13.413 6.647 13.9 6.53601C14.385 6.423 14.752 6.39601 15.004 6.45601C15.834 6.65501 16.408 7.29001 16.727 8.358C16.727 8.358 17.19 10.013 17.19 10.013C17.948 10.196 18.645 10.076 19.28 9.65601C19.916 9.23401 20.326 8.645 20.507 7.88701C20.696 7.09201 20.507 6.408 19.939 5.83C19.37 5.256 19.11 4.858 19.164 4.642C19.345 3.884 20.844 2.88699 23.659 1.65199C25.919 0.666 27.368 0.11499 28.008 0C25.954 1.726 24.809 3.071 24.576 4.049C24.455 4.55499 24.631 5.17 25.107 5.896C25.702 6.763 26.019 7.355 26.057 7.668C26.218 8.584 25.911 9.713 25.132 11.057C25.943 11.977 26.602 12.495 27.109 12.618C28.154 12.868 28.808 12.452 29.067 11.368C29.093 11.259 29.13 10.906 29.179 10.306C29.225 9.70702 29.277 9.37502 29.33 9.31102C29.596 8.84003 30.649 8.82503 32.491 9.26602C33.647 9.54102 35.97 10.441 39.464 11.965C38.617 11.99 37.348 12.029 35.655 12.082C34.105 12.172 33.266 12.486 33.136 13.027C33.076 13.281 33.062 13.735 33.096 14.391C33.13 15.048 33.113 15.523 33.043 15.81C32.923 16.317 32.484 16.706 31.731 16.985C31.731 16.985 29.576 17.846 29.576 17.846C29.821 18.743 29.996 19.283 30.107 19.462C30.366 19.98 30.799 20.316 31.413 20.462C31.847 20.566 32.335 20.28 32.878 19.608C33.42 18.936 34.09 18.695 34.885 18.886C35.86 19.117 36.746 20.283 37.542 22.384C37.988 23.563 38.686 25.352 39.639 27.757C39.639 27.757 39.639 27.757 39.639 27.757ZM28.365 21.738C28.917 19.425 28.549 17.217 27.257 15.113C25.965 13.009 24.163 11.68 21.853 11.129C19.505 10.568 17.28 10.924 15.182 12.199C13.083 13.469 11.734 15.276 11.136 17.614C10.546 19.916 10.926 22.119 12.277 24.218C13.627 26.315 15.457 27.643 17.77 28.196C20.224 28.783 22.467 28.468 24.495 27.256C26.521 26.042 27.811 24.201 28.365 21.738C28.365 21.738 28.365 21.738 28.365 21.738ZM27.55 21.542C27.024 23.745 25.847 25.393 24.02 26.481C22.194 27.571 20.177 27.854 17.976 27.327C15.845 26.815 14.199 25.64 13.036 23.794C11.873 21.952 11.547 19.966 12.057 17.835C12.56 15.739 13.755 14.126 15.649 12.993C17.545 11.862 19.538 11.548 21.633 12.05C23.727 12.55 25.36 13.741 26.531 15.626C27.702 17.513 28.043 19.484 27.55 21.542C27.55 21.542 27.55 21.542 27.55 21.542Z" fill="#0D0F0F" transform="translate(48 45)" />
    <path d="M39.647 22.63C39.647 23.388 39.354 24.068 38.768 24.673C38.182 25.277 37.51 25.581 36.752 25.581C35.545 25.581 34.654 25.014 34.089 23.88C34.089 23.88 31.423 23.765 31.423 23.765C30.855 23.765 29.738 24.011 28.077 24.503C26.3 24.993 25.279 25.393 25.013 25.693C24.599 26.145 24.258 27.206 23.993 28.868C23.765 30.229 23.654 31.232 23.654 31.876C23.654 32.897 23.814 33.645 24.134 34.115C24.455 34.589 25.118 34.985 26.118 35.306C27.119 35.625 27.734 35.807 27.962 35.842C28.113 35.842 28.358 35.824 28.699 35.785C28.699 35.785 29.38 35.785 29.38 35.785C29.871 35.785 30.381 35.862 30.912 36.014C31.667 36.243 31.989 36.543 31.877 36.922C31.346 36.846 30.421 36.959 29.099 37.262C29.099 37.262 30.685 38.056 30.685 38.056C30.685 38.51 30.042 38.737 28.757 38.737C28.415 38.737 27.952 38.661 27.367 38.51C26.78 38.358 26.392 38.283 26.204 38.283C26.204 38.283 25.468 38.283 25.468 38.283C25.429 38.66 25.317 39.226 25.127 39.983C24.482 39.944 23.728 39.567 22.857 38.847C21.987 38.13 21.439 37.77 21.214 37.77C20.986 37.77 20.663 38.13 20.249 38.847C19.832 39.567 19.625 40.058 19.625 40.323C19.134 40.058 18.72 39.567 18.376 38.847C18.225 38.356 18.055 37.865 17.867 37.372C17.488 37.411 16.79 38.204 15.768 39.755C15.768 39.755 15.484 39.755 15.484 39.755C15.408 39.641 15.124 38.847 14.632 37.372C13.46 36.995 12.364 36.806 11.344 36.806C10.853 36.806 10.095 36.921 9.074 37.146C9.074 37.146 7.488 37.035 7.488 37.035C7.713 36.806 8.376 36.373 9.471 35.73C10.755 34.974 11.74 34.595 12.42 34.595C12.532 34.595 12.684 34.615 12.874 34.652C13.062 34.69 13.215 34.709 13.328 34.709C13.591 34.709 14.017 34.567 14.603 34.282C15.189 34.002 15.53 33.746 15.622 33.518C15.72 33.29 15.767 32.705 15.767 31.757C15.767 29.604 15.199 27.997 14.064 26.938C13.081 25.994 11.456 25.313 9.187 24.898C8.583 27.052 6.88 28.13 4.084 28.13C3.175 28.13 2.269 27.581 1.361 26.484C0.456001 25.388 0 24.386 0 23.479C0 22.08 0.585999 20.925 1.758 20.017C0.814003 19.037 0.340004 18.035 0.340004 17.013C0.340004 16.066 0.632004 15.236 1.219 14.515C1.805 13.798 2.572 13.382 3.516 13.27C3.442 12.059 3.837 11.228 4.707 10.774C4.291 10.358 4.084 9.621 4.084 8.563C4.084 7.316 4.498 6.275 5.331 5.444C6.161 4.611 7.203 4.194 8.448 4.194C9.811 4.194 10.927 4.672 11.796 5.614C12.894 1.871 15.255 0 18.885 0C20.775 0 22.439 0.755997 23.875 2.269C24.405 2.836 24.668 3.139 24.668 3.17599C24.216 3.17599 24.443 3.09 25.349 2.92C26.258 2.75 26.917 2.664 27.335 2.664C28.809 2.664 30.113 3.21301 31.25 4.31001C32.232 5.29201 32.913 6.539 33.292 8.052C33.555 8.091 33.971 8.204 34.538 8.392C35.369 8.811 35.786 9.527 35.786 10.548C35.786 10.736 35.634 11.097 35.332 11.624C37.751 12.985 38.962 14.876 38.962 17.298C38.962 17.977 38.697 18.923 38.169 20.132C39.155 20.703 39.647 21.537 39.647 22.63C39.647 22.63 39.647 22.63 39.647 22.63ZM16.28 25.127C16.28 25.127 16.28 24.393 16.28 24.393C16.28 23.523 15.855 22.728 15.004 22.01C14.153 21.293 13.294 20.933 12.424 20.933C11.364 20.933 10.382 21.176 9.47498 21.668C11.479 21.554 13.747 22.709 16.28 25.127C16.28 25.127 16.28 25.127 16.28 25.127ZM15.259 18.095C14.693 17.45 14.201 16.79 13.785 16.11C12.196 16.527 11.403 17 11.403 17.527C11.855 17.492 12.518 17.575 13.386 17.785C14.256 17.992 14.882 18.095 15.259 18.095C15.259 18.095 15.259 18.095 15.259 18.095ZM18.722 16.337C18.722 16.337 18.722 13.841 18.722 13.841C17.812 13.692 17.263 13.613 17.076 13.613C17.076 13.613 17.076 14.464 17.076 14.464L18.722 16.337L18.722 16.337ZM26.093 14.75C25.639 14.561 24.788 14.183 23.539 13.615C23.539 13.615 23.539 18.492 23.539 18.492C25.318 17.47 26.167 16.222 26.093 14.75C26.093 14.75 26.093 14.75 26.093 14.75ZM29.209 21.442C29.209 21.442 27.963 19.91 27.963 19.91C27.208 20.44 26.442 20.977 25.665 21.527C24.89 22.076 24.22 22.689 23.654 23.369C25.353 22.461 27.208 21.82 29.209 21.442C29.209 21.442 29.209 21.442 29.209 21.442Z" fill="#0D0F0F" transform="translate(10 12)" />
  </g>
</svg>