<?xml version="1.0" encoding="utf-8"?>
<svg width="100" height="100" viewBox="0 0 100 100" fill="none" xmlns="http://www.w3.org/2000/svg">
  <g>
    <path d="M0 50C0 22.3858 22.3858 0 50 0C77.6142 0 100 22.3858 100 50C100 77.6142 77.6142 100 50 100C22.3858 100 0 77.6142 0 50Z" fill="#CAC5C0" fill-rule="evenodd" />
    <path d="M0 42.427C0 32.64 2.06097 23.614 6.19098 15.355C11.308 5.119 18.314 0 27.203 0C36 0 42.869 4.35899 47.808 13.064C51.935 20.25 53.999 28.601 53.999 38.115C53.999 47.996 51.9349 56.929 47.808 64.918C42.777 74.976 35.773 79.999 26.797 79.999C18.266 79.999 11.492 75.692 6.461 67.073C2.15302 59.712 0 51.497 0 42.427C0 42.427 0 42.427 0 42.427ZM11.309 37.983C11.309 50.909 13.239 60.967 17.104 68.151C19.795 73.176 23.25 75.692 27.471 75.692C37.617 75.692 42.692 65.186 42.692 44.174C42.692 34.93 41.883 27.115 40.27 20.74C37.485 10.236 32.772 4.98 26.125 4.98C16.246 4.98 11.309 15.13 11.309 35.423C11.309 35.423 11.309 37.983 11.309 37.983C11.309 37.983 11.309 37.983 11.309 37.983Z" fill="#0D0F0F" transform="translate(23 10.001)" />
  </g>
</svg>