<?xml version="1.0" encoding="utf-8"?>
<svg width="100" height="100" viewBox="0 0 100 100" fill="none" xmlns="http://www.w3.org/2000/svg">
  <g>
    <path d="M0 50C0 22.3858 22.3858 0 50 0C77.6142 0 100 22.3858 100 50C100 77.6142 77.6142 100 50 100C22.3858 100 0 77.6142 0 50Z" fill="#CAC5C0" fill-rule="evenodd" />
    <path d="M22.74 0.000991821C22.74 0.000991821 22.74 64.109 22.74 64.109C22.74 71.78 25.966 75.613 32.427 75.613C32.427 75.613 34.111 75.613 34.111 75.613L34.111 80.001L0 80.001L0 75.613C0 75.613 2.14099 75.613 2.14099 75.613C8.388 75.613 11.51 71.78 11.51 64.109C11.51 64.109 11.51 22.055 11.51 22.055C11.51 14.297 8.81299 10.412 3.42902 10.412C3.42902 10.412 0 10.412 0 10.412L0 6.16499C0 6.16499 1.237 6.16499 1.237 6.16499C7.89697 6.16499 13.928 4.10799 19.317 0C19.317 0 22.74 0.000991821 22.74 0.000991821L22.74 0.000991821L22.74 0.000991821Z" fill="#0D0F0F" transform="translate(32.945 10.002)" />
  </g>
</svg>