<?xml version="1.0" encoding="utf-8"?>
<svg width="100" height="100" viewBox="0 0 100 100" fill="none" xmlns="http://www.w3.org/2000/svg">
  <g>
    <path d="M0 50C0 22.3858 22.3858 0 50 0C77.6142 0 100 22.3858 100 50C100 77.6142 77.6142 100 50 100C22.3858 100 0 77.6142 0 50Z" fill="#CAC5C0" fill-rule="evenodd" />
    <path d="M17.868 0.633003C17.868 0.633003 17.868 51.072 17.868 51.072C17.868 57.07 20.4351 60.07 25.561 60.07C25.561 60.07 26.866 60.07 26.866 60.07L26.866 63.49L0 63.49L0 60.07C0 60.07 1.72699 60.07 1.72699 60.07C6.65802 60.07 9.12701 57.07 9.12701 51.072C9.12701 51.072 9.12701 17.992 9.12701 17.992C9.12701 11.912 6.97198 8.869 2.66003 8.869C2.66003 8.869 6.10352e-05 8.869 6.10352e-05 8.869L6.10352e-05 5.445C6.10352e-05 5.445 1.01605 5.445 1.01605 5.445C6.25403 5.445 10.985 3.841 15.207 0.631996C15.207 0.631996 17.868 0.633003 17.868 0.633003L17.868 0.633003L17.868 0.633003ZM27.628 33.961C27.628 26.104 29.274 18.879 32.568 12.293C36.71 4.1 42.373 0 49.55 0C56.481 0 61.972 3.508 66.026 10.516C69.322 16.264 70.971 22.897 70.971 30.414C70.971 38.273 69.323 45.453 66.026 51.959C61.885 59.988 56.269 64 49.173 64C42.3311 64 36.88 60.535 32.821 53.605C29.357 47.777 27.628 41.229 27.628 33.961C27.628 33.961 27.628 33.961 27.628 33.961ZM36.75 30.285C36.75 36.965 37.468 42.961 38.906 48.281C41.103 56.476 44.691 60.576 49.677 60.576C57.788 60.576 61.842 52.129 61.842 35.23C61.842 14.361 57.448 3.92899 48.66 3.92899C40.719 3.92899 36.748 12.034 36.748 28.257C36.748 28.257 36.75 30.285 36.75 30.285L36.75 30.285C36.75 30.285 36.75 30.285 36.75 30.285Z" fill="#0D0F0F" transform="translate(17.438 18.002)" />
  </g>
</svg>