<?xml version="1.0" encoding="utf-8"?>
<svg width="100" height="100" viewBox="0 0 100 100" fill="none" xmlns="http://www.w3.org/2000/svg">
  <g>
    <path d="M0 50C0 22.3858 22.3858 0 50 0C77.6142 0 100 22.3858 100 50C100 77.6142 77.6142 100 50 100C22.3858 100 0 77.6142 0 50Z" fill="#CAC5C0" fill-rule="evenodd" />
    <path d="M18.266 0C18.266 0 18.266 50.84 18.266 50.84C18.266 56.889 20.782 59.91 25.802 59.91C25.802 59.91 27.081 59.91 27.081 59.91L27.081 63.359L0 63.359L0 59.91C0 59.91 1.78802 59.91 1.78802 59.91C6.89703 59.91 9.45502 56.889 9.45502 50.84C9.45502 50.84 9.45502 17.5 9.45502 17.5C9.45502 11.367 7.28204 8.305 2.93701 8.305C2.93701 8.305 0.254028 8.305 0.254028 8.305L0.254028 4.856C0.254028 4.856 1.27802 4.856 1.27802 4.856C6.55804 4.856 11.325 3.23901 15.582 0.000999451C15.582 0.000999451 18.266 0 18.266 0L18.266 0L18.266 0ZM50.715 0C50.715 0 50.715 50.84 50.715 50.84C50.715 56.889 53.226 59.91 58.252 59.91C58.252 59.91 59.53 59.91 59.53 59.91L59.53 63.359L32.444 63.359L32.444 59.91C32.444 59.91 34.2321 59.91 34.2321 59.91C39.347 59.91 41.899 56.889 41.899 50.84C41.899 50.84 41.899 17.5 41.899 17.5C41.899 11.367 39.7261 8.305 35.386 8.305C35.386 8.305 32.704 8.305 32.704 8.305L32.704 4.856C32.704 4.856 33.723 4.856 33.723 4.856C39.0031 4.856 43.77 3.23901 48.033 0.000999451C48.033 0.000999451 50.715 0 50.715 0L50.715 0L50.715 0Z" fill="#0D0F0F" transform="translate(21.565 18.322)" />
  </g>
</svg>