<?xml version="1.0" encoding="utf-8"?>
<svg width="100" height="100" viewBox="0 0 100 100" fill="none" xmlns="http://www.w3.org/2000/svg">
  <g>
    <path d="M0 50C0 22.3858 22.3858 0 50 0C77.6142 0 100 22.3858 100 50C100 77.6142 77.6142 100 50 100C22.3858 100 0 77.6142 0 50Z" fill="#CAC5C0" fill-rule="evenodd" />
    <path d="M17.63 0C17.63 0 17.63 49.18 17.63 49.18C17.63 55.055 20.058 57.996 24.907 57.996C24.907 57.996 26.185 57.996 26.185 57.996L26.185 61.441L0 61.441L0 57.996C0 57.996 1.53302 57.996 1.53302 57.996C6.47101 57.996 8.93903 55.055 8.93903 49.18C8.93903 49.18 8.93903 16.86 8.93903 16.86C8.93903 10.905 6.896 7.921 2.81104 7.921C2.81104 7.921 0.129028 7.921 0.129028 7.921L0.129028 4.599C0.129028 4.599 1.14801 4.599 1.14801 4.599C6.25702 4.599 10.857 3.068 14.943 0.000999451C14.943 0.000999451 17.63 0 17.63 0L17.63 0L17.63 0ZM68.595 46.367L64.124 61.57L26.6949 61.57C26.6949 61.57 26.6949 58.25 26.6949 58.25C28.488 56.207 32.444 52.117 38.577 45.984C42.236 42.324 45.9009 38.406 49.5649 34.236C51.353 32.187 52.7559 30.488 53.78 29.121C55.9059 25.889 56.9709 22.656 56.9709 19.418C56.9709 16.18 55.9899 13.326 54.033 10.857C52.074 8.386 49.4739 7.152 46.2419 7.152C39.5109 7.152 34.2299 11.75 30.3989 20.951C30.3989 20.951 27.0779 19.672 27.0779 19.672C31.679 6.897 38.83 0.508003 48.5389 0.508003C53.306 0.508003 57.3959 2.12901 60.801 5.36301C64.205 8.60101 65.91 12.644 65.91 17.5C65.91 23.715 62.376 29.762 55.312 35.641C55.312 35.641 48.03 41.514 48.03 41.514C43.342 45.434 39.469 49.139 36.402 52.625C36.1479 52.887 35.7209 53.354 35.129 54.035C35.129 54.035 54.673 54.035 54.673 54.035C57.652 54.035 59.865 53.478 61.316 52.371C62.761 51.269 64.082 49.264 65.272 46.367C65.272 46.367 68.595 46.367 68.595 46.367L68.595 46.367Z" fill="#0D0F0F" transform="translate(18 19.217)" />
  </g>
</svg>