<?xml version="1.0" encoding="utf-8"?>
<svg width="100" height="100" viewBox="0 0 100 100" fill="none" xmlns="http://www.w3.org/2000/svg">
  <g>
    <path d="M0 50C0 22.3858 22.3858 0 50 0C77.6142 0 100 22.3858 100 50C100 77.6142 77.6142 100 50 100C22.3858 100 0 77.6142 0 50Z" fill="#CAC5C0" fill-rule="evenodd" />
    <path d="M17.371 7.62939e-06C17.371 7.62939e-06 17.371 48.543 17.371 48.543C17.371 54.25 19.799 57.098 24.653 57.098C24.653 57.098 25.802 57.098 25.802 57.098L25.802 60.42L0 60.42L0 57.098C0 57.098 1.66302 57.098 1.66302 57.098C6.60101 57.098 9.06903 54.25 9.06903 48.543C9.06903 48.543 9.06903 16.732 9.06903 16.732C9.06903 10.859 6.98004 7.918 2.81104 7.918C2.81104 7.918 0.253052 7.918 0.253052 7.918L0.253052 4.602C0.253052 4.602 1.27704 4.602 1.27704 4.602C6.29803 4.602 10.8151 3.06699 14.817 0C14.817 0 17.371 0 17.371 0L17.371 7.62939e-06ZM39.0881 32.191L37.5551 29.378C37.5551 29.378 38.7081 28.737 38.7081 28.737C42.5391 26.358 46.0951 23.952 49.3741 21.522C52.6481 19.096 54.2911 16.352 54.2911 13.284C54.2911 11.155 53.4801 9.386 51.8641 7.983C50.2471 6.575 48.4541 5.874 46.5001 5.874C41.5571 5.874 36.3641 8.856 30.912 14.819C30.912 14.819 28.3591 12.901 28.3591 12.901C33.9781 4.385 40.8761 0.124001 49.0511 0.124001C52.6271 0.124001 55.6531 1.019 58.1211 2.808C61.0171 4.77299 62.4671 7.453 62.4671 10.859C62.4671 13.246 61.4431 15.584 59.4001 17.88C58.2051 19.159 56.1621 20.905 53.2671 23.12C53.2671 23.12 52.1181 24.143 52.1181 24.143C52.6281 24.061 53.2671 24.014 54.0361 24.014C57.7841 24.014 60.8461 25.444 63.2311 28.291C65.6171 31.143 66.8071 34.404 66.8071 38.062C66.8071 44.537 64.0831 49.902 58.6301 54.158C53.6921 58.244 47.9431 60.293 41.3901 60.293C35.3391 60.293 30.6151 59.014 27.2101 56.457C27.2101 56.457 28.9982 53.904 28.9982 53.904C33.0002 55.775 36.6592 56.717 39.9802 56.717C44.7512 56.717 49.0092 55.143 52.7562 51.987C56.5042 48.839 58.3752 44.919 58.3752 40.235C58.3752 37.085 57.4392 34.405 55.5682 32.19C53.6912 29.975 51.2222 28.868 48.1562 28.868C45.4341 28.869 42.4091 29.977 39.0881 32.191C39.0881 32.191 39.0881 32.191 39.0881 32.191Z" fill="#0D0F0F" transform="translate(20.596 19.791)" />
  </g>
</svg>