<?xml version="1.0" encoding="utf-8"?>
<svg width="100" height="100" viewBox="0 0 100 100" fill="none" xmlns="http://www.w3.org/2000/svg">
  <g>
    <path d="M0 50C0 22.3858 22.3858 0 50 0C77.6142 0 100 22.3858 100 50C100 77.6142 77.6142 100 50 100C22.3858 100 0 77.6142 0 50Z" fill="#CAC5C0" fill-rule="evenodd" />
    <path d="M17.632 0C17.632 0 17.632 49.053 17.632 49.053C17.632 54.842 20.059 57.737 24.908 57.737C24.908 57.737 26.062 57.737 26.062 57.737L26.062 61.059L0 61.059L0 57.737C0 57.737 1.66299 57.737 1.66299 57.737C6.60098 57.737 9.07001 54.842 9.07001 49.053C9.07001 49.053 9.07001 16.862 9.07001 16.862C9.07001 10.983 6.98001 8.046 2.811 8.046C2.811 8.046 0.253998 8.046 0.253998 8.046L0.253998 4.726C0.253998 4.726 1.27701 4.726 1.27701 4.726C6.298 4.726 10.856 3.152 14.942 0.000999451C14.942 0.000999451 17.632 0 17.632 0L17.632 0L17.632 0ZM60.679 43.687C60.679 43.687 60.679 48.796 60.679 48.796C60.679 54.503 62.675 57.357 66.682 57.357C66.682 57.357 68.34 57.357 68.34 57.357L68.34 60.673L43.942 60.673L43.942 57.357C43.942 57.357 45.86 57.357 45.86 57.357C49.863 57.357 51.864 54.544 51.864 48.927C51.864 48.927 51.864 43.687 51.864 43.687L27.336 43.687L27.336 38.578L53.268 0.764L60.68 0.764L60.68 39.342C60.68 39.342 61.319 39.342 61.319 39.342C63.789 39.342 65.618 37.389 66.808 33.469C66.808 33.469 69.874 33.469 69.874 33.469L68.341 43.688L60.679 43.687L60.679 43.687L60.679 43.687ZM53.906 38.578L53.906 6.389L32.19 38.578L53.906 38.578L53.906 38.578Z" fill="#0D0F0F" transform="translate(18.676 19.473)" />
  </g>
</svg>