<?xml version="1.0" encoding="utf-8"?>
<svg width="100" height="100" viewBox="0 0 100 100" fill="none" xmlns="http://www.w3.org/2000/svg">
  <g>
    <path d="M100 49.998C100 77.613 77.613 100 49.998 100C22.385 100 0 77.613 0 49.998C0 22.385 22.385 0 49.998 0C77.613 0 100 22.385 100 49.998C100 49.998 100 49.998 100 49.998Z" fill="#CAC5C0" />
    <path d="M18.264 0C18.264 0 18.264 50.84 18.264 50.84C18.264 56.885 20.78 59.91 25.801 59.91C25.801 59.91 27.078 59.91 27.078 59.91L27.078 63.355L0 63.355L0 59.91C0 59.91 1.78699 59.91 1.78699 59.91C6.896 59.91 9.45297 56.885 9.45297 50.84C9.45297 50.84 9.45297 17.496 9.45297 17.496C9.45297 11.367 7.28098 8.301 2.93497 8.301C2.93497 8.301 0.25296 8.301 0.25296 8.301L0.25296 4.85201C0.25296 4.85201 1.27597 4.85201 1.27597 4.85201C6.55698 4.85201 11.323 3.23501 15.581 7.62939e-06C15.581 7.62939e-06 18.264 7.62939e-06 18.264 7.62939e-06L18.264 0ZM36.149 1.273C36.149 1.273 59.27 1.273 59.27 1.273C62.254 1.273 64.041 0.937004 64.639 0.253006C64.639 0.253006 67.961 0.253006 67.961 0.253006L66.043 8.94101L37.814 8.94101C37.814 8.94101 35.132 21.457 35.132 21.457C39.1299 19.84 42.71 19.029 45.861 19.029C51.994 19.029 57.166 21.078 61.381 25.164C65.5959 29.248 67.701 34.357 67.701 40.492C67.701 47.644 64.978 53.39 59.5309 57.738C54.416 61.738 48.2399 63.742 41.006 63.742C36.748 63.742 32.576 63.101 28.49 61.824C28.49 61.824 29.763 58.633 29.763 58.633C33.167 59.567 36.193 60.035 38.833 60.035C44.114 60.035 48.735 58.293 52.694 54.801C56.655 51.309 58.63 46.961 58.63 41.77C58.63 37.258 57.165 33.551 54.228 30.657C51.287 27.762 47.607 26.313 43.177 26.313C39.005 26.313 35.132 27.762 31.552 30.657C31.552 30.657 29.384 30.274 29.384 30.274L36.149 1.273L36.149 1.273Z" fill="#0D0F0F" transform="translate(16.406 18.129)" />
  </g>
</svg>