<?xml version="1.0" encoding="utf-8"?>
<svg width="100" height="100" viewBox="0 0 100 100" fill="none" xmlns="http://www.w3.org/2000/svg">
  <g>
    <path d="M0 50C0 22.3858 22.3858 0 50 0C77.6142 0 100 22.3858 100 50C100 77.6142 77.6142 100 50 100C22.3858 100 0 77.6142 0 50Z" fill="#CAC5C0" fill-rule="evenodd" />
    <path d="M18.266 0C18.266 0 18.266 50.838 18.266 50.838C18.266 56.885 20.782 59.908 25.803 59.908C25.803 59.908 27.082 59.908 27.082 59.908L27.082 63.355L0 63.355L0 59.908C0 59.908 1.789 59.908 1.789 59.908C6.89801 59.908 9.457 56.885 9.457 50.838C9.457 50.838 9.457 17.494 9.457 17.494C9.457 11.367 7.28299 8.30099 2.93701 8.30099C2.93701 8.30099 0.255005 8.30099 0.255005 8.30099L0.255005 4.85C0.255005 4.85 1.27802 4.85 1.27802 4.85C6.55902 4.85 11.327 3.233 15.583 0C15.583 0 18.266 0 18.266 0L18.266 0ZM38.324 27.459C43.008 23.037 47.732 20.816 52.504 20.816C57.613 20.816 61.74 22.865 64.895 26.951C67.79 30.697 69.235 35.256 69.235 40.619C69.235 46.41 67.532 51.478 64.126 55.818C60.38 60.673 55.696 63.099 50.077 63.099C43.434 63.099 38.071 60.204 33.979 54.415C30.403 49.306 28.614 43.259 28.614 36.274C28.614 28.784 30.657 21.903 34.7491 15.643C38.8331 9.38499 44.3291 4.936 51.2261 2.295C55.0561 0.844002 59.1481 0.120995 63.4881 0.120995C63.4881 0.120995 63.4881 3.44299 63.4881 3.44299C54.2951 3.87099 47.4371 7.535 42.925 14.431C40.621 18.01 39.088 22.35 38.324 27.459C38.324 27.459 38.324 27.459 38.324 27.459ZM37.684 33.723C37.602 34.996 37.555 36.276 37.555 37.553C37.555 42.491 38.407 47.049 40.114 51.225C42.327 56.67 45.559 59.395 49.821 59.395C53.481 59.395 56.251 57.524 58.122 53.776C59.485 50.881 60.165 47.346 60.165 43.172C60.165 38.832 59.532 35.084 58.253 31.936C56.376 27.674 53.524 25.547 49.692 25.547C45.008 25.547 41.006 28.272 37.684 33.723C37.684 33.723 37.684 33.723 37.684 33.723Z" fill="#0D0F0F" transform="translate(16.043 18.324)" />
  </g>
</svg>