<?xml version="1.0" encoding="utf-8"?>
<svg width="100" height="100" viewBox="0 0 100 100" fill="none" xmlns="http://www.w3.org/2000/svg">
  <g>
    <path d="M0 50C0 22.3858 22.3858 0 50 0C77.6142 0 100 22.3858 100 50C100 77.6142 77.6142 100 50 100C22.3858 100 0 77.6142 0 50Z" fill="#CAC5C0" fill-rule="evenodd" />
    <path d="M17.755 0.128998C17.755 0.128998 17.755 49.436 17.755 49.436C17.755 55.315 20.185 58.25 25.04 58.25C25.04 58.25 26.188 58.25 26.188 58.25L26.188 61.572L0 61.572L0 58.25C0 58.25 1.789 58.25 1.789 58.25C6.72701 58.25 9.19901 55.314 9.19901 49.436C9.19901 49.436 9.19901 17.118 9.19901 17.118C9.19901 11.161 7.07001 8.17699 2.81201 8.17699C2.81201 8.17699 0.253006 8.17699 0.253006 8.17699L0.253006 4.85699C0.253006 4.85699 1.276 4.85699 1.276 4.85699C6.38499 4.85699 10.987 3.281 15.073 0.129997C15.073 0.129997 17.755 0.128998 17.755 0.128998L17.755 0.128998L17.755 0.128998ZM50.462 61.954L41.517 61.954C41.517 61.954 41.517 60.934 41.517 60.934C41.517 55.227 43.306 48.032 46.88 39.348C52.333 26.399 57.36 16.436 61.954 9.45499C61.954 9.45499 62.47 8.56 62.47 8.56C62.47 8.56 41.517 8.56 41.517 8.56C38.451 8.56 36.13 9.199 34.556 10.472C32.982 11.751 31.763 13.882 30.911 16.861C30.911 16.861 27.466 16.861 27.466 16.861L31.298 0C31.298 0 33.599 0 33.599 0C34.872 0.598 37.177 0.894997 40.497 0.894997C40.497 0.894997 68.087 0.894997 68.087 0.894997C68.087 0.894997 68.087 5.75 68.087 5.75C67.067 7.199 65.79 9.496 64.255 12.646C61.271 18.441 58.548 25.167 56.079 32.828C52.415 44.243 50.544 53.954 50.462 61.954C50.462 61.954 50.462 61.954 50.462 61.954Z" fill="#0D0F0F" transform="translate(15.956 19.025)" />
  </g>
</svg>