<?xml version="1.0" encoding="utf-8"?>
<svg width="100" height="100" viewBox="0 0 100 100" fill="none" xmlns="http://www.w3.org/2000/svg">
  <g>
    <path d="M0 50C0 22.3858 22.3858 0 50 0C77.6142 0 100 22.3858 100 50C100 77.6142 77.6142 100 50 100C22.3858 100 0 77.6142 0 50Z" fill="#CAC5C0" fill-rule="evenodd" />
    <path d="M17.756 0.256004C17.756 0.256004 17.756 49.692 17.756 49.692C17.756 55.571 20.184 58.507 25.037 58.507C25.037 58.507 26.316 58.507 26.316 58.507L26.316 61.828L0 61.828L0 58.507C0 58.507 1.664 58.507 1.664 58.507C6.685 58.507 9.201 55.57 9.201 49.692C9.201 49.692 9.201 17.248 9.201 17.248C9.201 11.286 7.068 8.309 2.812 8.309C2.812 8.309 0.255005 8.309 0.255005 8.309L0.255005 4.987C0.255005 4.987 1.27801 4.987 1.27801 4.987C6.38701 4.987 10.987 3.413 15.073 0.257996C15.073 0.257996 17.756 0.257996 17.756 0.257996L17.756 0.256004L17.756 0.256004ZM40.365 30.657C40.365 30.657 39.088 29.638 39.088 29.638C35.086 26.914 32.445 24.742 31.172 23.125C29.639 20.994 28.869 18.525 28.869 15.713C28.869 11.03 30.869 7.19901 34.871 4.216C38.447 1.409 42.711 0 47.648 0C52.248 0 56.334 1.195 59.91 3.576C63.828 6.30499 65.789 9.923 65.789 14.434C65.789 19.886 62.041 24.273 54.545 27.594C63.149 31.768 67.447 37.6 67.447 45.095C67.447 50.459 65.361 54.716 61.187 57.866C57.613 60.679 53.054 62.081 47.517 62.081C42.238 62.081 37.726 60.761 33.978 58.12C29.638 55.142 27.464 51.182 27.464 46.244C27.464 41.218 29.804 37.132 34.491 33.976C35.683 33.132 37.642 32.024 40.365 30.657C40.365 30.657 40.365 30.657 40.365 30.657ZM43.941 32.066C37.726 34.961 34.617 39.472 34.617 45.606C34.617 49.525 35.896 52.696 38.447 55.123C41.006 57.551 44.197 58.762 48.033 58.762C51.609 58.762 54.629 57.806 57.103 55.888C59.572 53.975 60.804 51.314 60.804 47.904C60.804 42.712 57.482 38.538 50.839 35.388C50.839 35.388 43.941 32.066 43.941 32.066C43.941 32.066 43.941 32.066 43.941 32.066ZM50.968 25.933C56.505 23.464 59.269 19.805 59.269 14.951C59.269 11.63 58.101 8.94701 55.761 6.899C53.417 4.856 50.542 3.83701 47.138 3.83701C44.325 3.83701 41.816 4.64301 39.601 6.259C37.382 7.881 36.281 10.096 36.281 12.903C36.281 16.312 37.855 19.036 41.006 21.079C41.686 21.505 44.498 22.867 49.436 25.17C49.436 25.17 50.968 25.933 50.968 25.933C50.968 25.933 50.968 25.933 50.968 25.933Z" fill="#0D0F0F" transform="translate(18.219 18.96)" />
  </g>
</svg>