<?xml version="1.0" encoding="utf-8"?>
<svg width="100" height="100" viewBox="0 0 100 100" fill="none" xmlns="http://www.w3.org/2000/svg">
  <g>
    <path d="M0 50C0 22.3858 22.3858 0 50 0C77.6142 0 100 22.3858 100 50C100 77.6142 77.6142 100 50 100C22.3858 100 0 77.6142 0 50Z" fill="#CAC5C0" fill-rule="evenodd" />
    <path d="M18.01 0C18.01 0 18.01 50.205 18.01 50.205C18.01 56.167 20.52 59.144 25.547 59.144C25.547 59.144 26.824 59.144 26.824 59.144L26.824 62.595L0 62.595L0 59.144C0 59.144 1.787 59.144 1.787 59.144C6.814 59.144 9.324 56.166 9.324 50.205C9.324 50.205 9.324 17.246 9.324 17.246C9.324 11.201 7.193 8.176 2.935 8.176C2.935 8.176 0.253002 8.176 0.253002 8.176L0.253002 4.73C0.253002 4.73 1.276 4.73 1.276 4.73C6.469 4.73 11.194 3.15501 15.456 0.000999451C15.456 0.000999451 18.01 0 18.01 0L18.01 0L18.01 0ZM58.76 35.771C54.076 40.2 49.395 42.414 44.711 42.414C39.602 42.414 35.469 40.325 32.318 36.151C29.506 32.492 28.102 28.021 28.102 22.741C28.102 17.033 29.76 11.924 33.081 7.412C36.827 2.55801 41.471 0.131004 47.006 0.131004C53.734 0.131004 59.055 3.026 62.973 8.817C66.633 14.014 68.467 20.101 68.467 27.082C68.467 37.135 65.167 45.586 58.568 52.441C51.966 59.296 43.687 62.768 33.722 62.851C33.722 62.851 33.722 59.53 33.722 59.53C36.788 59.359 39.216 59.015 41.003 58.507C51.141 55.439 57.055 47.861 58.76 35.771C58.76 35.771 58.76 35.771 58.76 35.771ZM59.401 29.507C59.483 28.151 59.53 26.872 59.53 25.677C59.53 20.739 58.678 16.227 56.973 12.137C54.674 6.773 51.438 4.09 47.262 4.09C43.604 4.09 40.916 5.92001 39.217 9.58401C37.766 12.563 37.043 16.056 37.043 20.058C37.043 24.398 37.725 28.151 39.086 31.295C40.875 35.469 43.688 37.559 47.518 37.559C52.118 37.559 56.078 34.877 59.401 29.507C59.401 29.507 59.401 29.507 59.401 29.507Z" fill="#0D0F0F" transform="translate(19.152 18.576)" />
  </g>
</svg>