<?xml version="1.0" encoding="utf-8"?>
<svg width="100" height="99" viewBox="0 0 100 99" fill="none" xmlns="http://www.w3.org/2000/svg">
  <g>
    <path d="M0 49.5C0 22.1619 22.3858 0 50 0C77.6142 0 100 22.1619 100 49.5C100 76.8381 77.6142 99 50 99C22.3858 99 0 76.8381 0 49.5Z" fill="#CAC5C0" fill-rule="evenodd" transform="scale(1 1)" />
    <path d="M54.887 59.501L48.991 79.2L0 79.2C0 79.2 0 74.9885 0 74.9885C2.38 72.3631 7.59497 67.0675 15.646 59.0961C20.495 54.2926 25.295 49.2238 30.053 43.8788C32.431 41.2543 34.263 38.9862 35.54 37.0854C38.376 33.0125 39.795 28.8486 39.795 24.5876C39.795 20.4257 38.494 16.7548 35.887 13.5868C33.28 10.4148 29.917 8.82684 25.7969 8.82684C16.926 8.82684 9.97394 14.7649 4.94293 26.627C4.94293 26.627 0.547913 24.9965 0.547913 24.9965C6.49493 8.3358 15.8689 0 28.6789 0C34.9919 0 40.3659 2.12751 44.8029 6.38352C49.2419 10.6405 51.4589 15.8915 51.4589 22.1443C51.4589 30.1158 46.8419 37.9031 37.601 45.5093C37.601 45.5093 27.9969 53.3857 27.9969 53.3857C21.866 58.4615 16.785 63.2154 12.7659 67.6536C12.4859 67.9239 11.9399 68.5605 11.119 69.5554C11.119 69.5554 36.64 69.5554 36.64 69.5554C40.572 69.5554 43.5469 68.7872 45.558 67.2438C47.293 65.8855 48.992 63.3036 50.638 59.501C50.638 59.501 54.887 59.501 54.887 59.501L54.887 59.501Z" fill="#0D0F0F" transform="translate(22.555 9.903)" />
  </g>
</svg>