<?xml version="1.0" encoding="utf-8"?>
<svg width="100" height="100" viewBox="0 0 100 100" fill="none" xmlns="http://www.w3.org/2000/svg">
  <g>
    <path d="M0 50C0 22.3858 22.3858 0 50 0C77.6142 0 100 22.3858 100 50C100 77.6142 77.6142 100 50 100C22.3858 100 0 77.6142 0 50Z" fill="#CAC5C0" fill-rule="evenodd" />
    <path d="M41.262 45.731L36.791 60.676L0 60.676C0 60.676 0 57.608 0 57.608C1.789 55.567 5.75 51.522 11.883 45.477C15.459 41.817 19.035 37.981 22.612 33.979C24.483 31.937 25.85 30.19 26.702 28.739C28.911 25.673 30.018 22.481 30.018 19.161C30.018 16.095 29.02 13.348 27.02 10.923C25.018 8.495 22.481 7.28399 19.42 7.28399C12.777 7.28399 7.58002 11.796 3.83203 20.825C3.83203 20.825 0.38501 19.546 0.38501 19.546C4.89703 6.857 11.967 0.512995 21.588 0.512995C26.359 0.512995 30.424 2.12799 33.787 5.36699C37.154 8.60499 38.834 12.607 38.834 17.373C38.834 23.424 35.299 29.338 28.23 35.129C28.23 35.129 21.078 41.133 21.078 41.133C16.478 45.053 12.689 48.67 9.711 51.99C9.45502 52.162 9.02899 52.672 8.43201 53.525C8.43201 53.525 27.596 53.525 27.596 53.525C30.575 53.525 32.83 52.883 34.364 51.607C35.643 50.586 36.921 48.627 38.194 45.732C38.194 45.732 41.262 45.732 41.262 45.732L41.262 45.731L41.262 45.731ZM40.752 32.317C40.752 24.909 42.285 18.053 45.352 11.754C49.354 3.92 54.76 0 61.575 0C68.13 0 73.368 3.363 77.288 10.09C80.349 15.543 81.882 21.842 81.882 28.994C81.882 36.489 80.349 43.305 77.288 49.438C73.28 57.097 67.915 60.929 61.19 60.929C54.719 60.929 49.52 57.655 45.606 51.093C42.368 45.559 40.752 39.301 40.752 32.317C40.752 32.317 40.752 32.317 40.752 32.317ZM49.438 28.869C49.438 35.258 50.118 40.965 51.481 45.985C53.522 53.825 56.932 57.739 61.7 57.739C69.448 57.739 73.327 49.692 73.327 33.593C73.327 13.665 69.11 3.70199 60.681 3.70199C53.1851 3.70199 49.439 11.45 49.439 26.95C49.439 26.95 49.438 28.869 49.438 28.869L49.438 28.869C49.438 28.869 49.438 28.869 49.438 28.869Z" fill="#0D0F0F" transform="translate(11.982 17.537)" />
  </g>
</svg>