<?xml version="1.0" encoding="utf-8"?>
<svg width="100" height="100" viewBox="0 0 100 100" fill="none" xmlns="http://www.w3.org/2000/svg">
  <g>
    <path d="M0 50C0 22.3858 22.3858 0 50 0C77.6142 0 100 22.3858 100 50C100 77.6142 77.6142 100 50 100C22.3858 100 0 77.6142 0 50Z" fill="#CAC5C0" fill-rule="evenodd" />
    <path d="M15.893 42.563L13.875 38.792C13.875 38.792 15.212 37.985 15.212 37.985C20.386 34.84 25.115 31.655 29.401 28.422C33.685 25.19 35.828 21.507 35.828 17.374C35.828 14.596 34.799 12.262 32.743 10.376C30.682 8.48401 28.271 7.54201 25.499 7.54201C19.0599 7.54201 12.265 11.543 5.10693 19.533C5.10693 19.533 1.75293 16.974 1.75293 16.974C9.20593 5.658 18.3189 0 29.0939 0C33.851 0 37.8889 1.168 41.2159 3.50301C44.9869 6.11 46.871 9.65601 46.871 14.145C46.871 17.374 45.522 20.519 42.832 23.571C41.304 25.369 38.606 27.703 34.749 30.575C34.749 30.575 33.1329 31.788 33.1329 31.788C33.851 31.699 34.705 31.654 35.6929 31.654C40.6299 31.654 44.6909 33.541 47.8809 37.311C51.0689 41.082 52.6639 45.481 52.6639 50.507C52.6639 59.039 49.069 66.174 41.89 71.923C35.243 77.31 27.5649 80 18.858 80C10.8669 80 4.58197 78.252 0 74.751C0 74.751 2.42902 71.38 2.42902 71.38C7.81604 73.988 12.708 75.287 17.11 75.287C23.483 75.287 29.161 73.178 34.142 68.957C39.1299 64.737 41.6169 59.488 41.6169 53.202C41.6169 49.07 40.3619 45.547 37.8469 42.626C35.3309 39.711 32.0539 38.252 28.015 38.252C24.3311 38.254 20.2921 39.689 15.893 42.563C15.893 42.563 15.893 42.563 15.893 42.563Z" fill="#0D0F0F" transform="translate(23.668 10.001)" />
  </g>
</svg>