<?xml version="1.0" encoding="utf-8"?>
<svg width="100" height="100" viewBox="0 0 100 100" fill="none" xmlns="http://www.w3.org/2000/svg">
  <g>
    <path d="M0 50C0 22.3858 22.3858 0 50 0C77.6142 0 100 22.3858 100 50C100 77.6142 77.6142 100 50 100C22.3858 100 0 77.6142 0 50Z" fill="#CAC5C0" fill-rule="evenodd" />
    <path d="M44.461 57.358C44.461 57.358 44.461 64.081 44.461 64.081C44.461 71.765 47.156 75.606 52.555 75.606C52.555 75.606 54.885 75.606 54.885 75.606L54.885 80L22.227 80L22.227 75.606C22.227 75.606 24.834 75.606 24.834 75.606C30.137 75.606 32.795 71.808 32.795 64.214C32.795 64.214 32.795 57.358 32.795 57.358L0 57.358L0 50.497L34.578 0L44.461 0L44.461 51.592C44.461 51.592 45.281 51.592 45.281 51.592C48.664 51.592 51.133 48.984 52.689 43.776C52.689 43.776 56.804 43.776 56.804 43.776L54.884 57.359L44.461 57.358L44.461 57.358L44.461 57.358ZM32.795 51.592L32.795 10.134L4.90204 51.592L32.795 51.592L32.795 51.592Z" fill="#0D0F0F" transform="translate(19.809 10.003)" />
  </g>
</svg>