<?xml version="1.0" encoding="utf-8"?>
<svg width="100" height="100" viewBox="0 0 100 100" fill="none" xmlns="http://www.w3.org/2000/svg">
  <g>
    <path d="M0 50C0 22.3858 22.3858 0 50 0C77.6142 0 100 22.3858 100 50C100 77.6142 77.6142 100 50 100C22.3858 100 0 77.6142 0 50Z" fill="#CAC5C0" fill-rule="evenodd" />
    <path d="M9.716 1.35201C9.716 1.35201 38.657 1.35201 38.657 1.35201C42.411 1.35201 44.645 0.902008 45.36 0C45.36 0 49.516 0 49.516 0L47.094 10.925L11.78 10.925C11.78 10.925 8.37204 26.714 8.37204 26.714C13.4991 24.644 18.04 23.61 21.997 23.61C29.726 23.61 36.247 26.197 41.556 31.368C46.861 36.539 49.517 42.99 49.517 50.725C49.517 59.721 46.052 66.962 39.123 72.447C32.738 77.486 24.961 80 15.785 80C10.39 80 5.125 79.192 0 77.574C0 77.574 1.617 73.528 1.617 73.528C5.93701 74.697 9.758 75.279 13.086 75.279C19.74 75.279 25.563 73.099 30.559 68.735C35.549 64.377 38.047 58.909 38.047 52.343C38.047 46.678 36.203 42.023 32.514 38.384C28.825 34.738 24.149 32.916 18.481 32.916C13.268 32.916 8.41101 34.716 3.91302 38.312C3.91302 38.312 1.21204 37.774 1.21204 37.774L9.716 1.35201L9.716 1.35201Z" fill="#0D0F0F" transform="translate(25.241 10.002)" />
  </g>
</svg>