<?xml version="1.0" encoding="utf-8"?>
<svg width="100" height="100" viewBox="0 0 100 100" fill="none" xmlns="http://www.w3.org/2000/svg">
  <g>
    <path d="M0 50C0 22.3858 22.3858 0 50 0C77.6142 0 100 22.3858 100 50C100 77.6142 77.6142 100 50 100C22.3858 100 0 77.6142 0 50Z" fill="#CAC5C0" fill-rule="evenodd" />
    <path d="M12.414 34.676C18.348 29.099 24.324 26.312 30.353 26.312C36.917 26.312 42.181 28.918 46.14 34.133C49.822 38.903 51.669 44.654 51.669 51.403C51.669 58.779 49.511 65.252 45.194 70.828C40.426 76.942 34.491 80.002 27.387 80.002C18.84 80.002 12.006 76.312 6.883 68.939C2.293 62.462 0 54.772 0 45.868C0 36.428 2.60699 27.727 7.82401 19.767C13.037 11.809 20.008 6.16499 28.73 2.839C33.677 0.951004 38.898 0 44.38 0C44.38 0 44.38 4.18401 44.38 4.18401C32.689 4.815 23.966 9.492 18.206 18.215C15.248 22.716 13.311 28.198 12.414 34.676C12.414 34.676 12.414 34.676 12.414 34.676ZM11.602 42.768C11.516 44.386 11.469 46.006 11.469 47.625C11.469 53.828 12.547 59.585 14.705 64.894C17.49 71.816 21.588 75.279 26.984 75.279C31.658 75.279 35.164 72.898 37.504 68.128C39.301 64.444 40.201 59.993 40.201 54.773C40.201 49.202 39.344 44.431 37.638 40.474C35.298 35.078 31.702 32.382 26.845 32.382C20.912 32.381 15.828 35.846 11.602 42.768C11.602 42.768 11.602 42.768 11.602 42.768Z" fill="#0D0F0F" transform="translate(24.166 10.001)" />
  </g>
</svg>