<?xml version="1.0" encoding="utf-8"?>
<svg width="100" height="100" viewBox="0 0 100 100" fill="none" xmlns="http://www.w3.org/2000/svg">
  <g>
    <path d="M0 50C0 22.3858 22.3858 0 50 0C77.6142 0 100 22.3858 100 50C100 77.6142 77.6142 100 50 100C22.3858 100 0 77.6142 0 50Z" fill="#CAC5C0" fill-rule="evenodd" />
    <path d="M29.725 79.999L18.082 79.999C18.082 79.999 18.082 78.761 18.082 78.761C18.082 71.365 20.41 62.102 25.062 50.953C32.097 34.154 38.582 21.28 44.515 12.329C44.515 12.329 45.337 11.097 45.337 11.097C45.337 11.097 18.081 11.097 18.081 11.097C14.151 11.097 11.161 11.916 9.106 13.56C7.047 15.205 5.524 17.947 4.52 21.782C4.52 21.782 0 21.782 0 21.782L4.92599 0C4.92599 0 7.80699 0 7.80699 0C9.54099 0.914001 12.549 1.371 16.848 1.371C16.848 1.371 52.457 1.371 52.457 1.371C52.457 1.371 52.457 7.536 52.457 7.536C51.182 9.36499 49.539 12.286 47.531 16.304C43.693 23.789 40.179 32.512 36.978 42.467C32.235 57.169 29.815 69.676 29.725 79.999C29.725 79.999 29.725 79.999 29.725 79.999Z" fill="#0D0F0F" transform="translate(23.769 10.003)" />
  </g>
</svg>