<?xml version="1.0" encoding="utf-8"?>
<svg width="100" height="100" viewBox="0 0 100 100" fill="none" xmlns="http://www.w3.org/2000/svg">
  <g>
    <path d="M0 50C0 22.3858 22.3858 0 50 0C77.6142 0 100 22.3858 100 50C100 77.6142 77.6142 100 50 100C22.3858 100 0 77.6142 0 50Z" fill="#CAC5C0" fill-rule="evenodd" />
    <path d="M16.7 39.463C16.7 39.463 14.954 38.252 14.954 38.252C9.83499 34.75 6.462 31.922 4.84699 29.763C2.78099 27.072 1.75099 23.933 1.75099 20.337C1.75099 14.232 4.30799 9.25 9.42899 5.388C14.187 1.798 19.71 0 25.997 0C31.919 0 37.177 1.573 41.753 4.713C46.956 8.216 49.566 12.84 49.566 18.589C49.566 25.593 44.668 31.249 34.884 35.556C46.015 40.944 51.583 48.44 51.583 58.048C51.583 64.962 48.937 70.437 43.634 74.482C38.881 78.164 32.905 80 25.725 80C18.991 80 13.2 78.297 8.348 74.881C2.78 71.025 0 65.905 0 59.532C0 53.159 2.963 47.902 8.889 43.771C10.505 42.697 13.112 41.261 16.7 39.463C16.7 39.463 16.7 39.463 16.7 39.463ZM21.272 41.375C13.192 45.052 9.161 50.841 9.161 58.736C9.161 63.849 10.796 67.954 14.077 71.05C17.354 74.147 21.552 75.693 26.671 75.693C31.245 75.693 35.132 74.461 38.317 71.998C41.503 69.534 43.098 66.107 43.098 61.718C43.098 55.092 38.731 49.717 30 45.596C30 45.596 21.272 41.375 21.272 41.375C21.272 41.375 21.272 41.375 21.272 41.375ZM30.303 33.402C37.391 30.261 40.944 25.548 40.944 19.263C40.944 14.95 39.438 11.497 36.434 8.888C33.422 6.285 29.719 4.98199 25.321 4.98199C21.637 4.98199 18.452 5.97299 15.758 7.946C12.793 10.1 11.315 12.976 11.315 16.566C11.315 20.966 13.378 24.514 17.51 27.209C18.315 27.746 21.906 29.495 28.285 32.459C28.285 32.459 30.303 33.402 30.303 33.402C30.303 33.402 30.303 33.402 30.303 33.402Z" fill="#0D0F0F" transform="translate(24.265 10.002)" />
  </g>
</svg>