<?xml version="1.0" encoding="utf-8"?>
<svg width="100" height="100" viewBox="0 0 100 100" fill="none" xmlns="http://www.w3.org/2000/svg">
  <g>
    <path d="M0 50C0 22.3858 22.3858 0 50 0C77.6142 0 100 22.3858 100 50C100 77.6142 77.6142 100 50 100C22.3858 100 0 77.6142 0 50Z" fill="#CAC5C0" fill-rule="evenodd" />
    <path d="M39.191 45.524C33.269 51.091 27.293 53.877 21.281 53.877C14.726 53.877 9.472 51.273 5.523 46.063C1.839 41.305 0 35.556 0 28.822C0 21.55 2.152 15.045 6.461 9.29601C11.133 3.097 17.016 0 24.109 0C32.731 0 39.598 3.728 44.714 11.181C49.296 17.735 51.581 25.5 51.581 34.483C51.581 47.229 47.357 57.981 38.926 66.74C30.485 75.492 19.933 79.914 7.273 80.001C7.273 80.001 7.273 75.826 7.273 75.826C11.132 75.65 14.226 75.2 16.57 74.482C29.492 70.531 37.039 60.881 39.191 45.524C39.191 45.524 39.191 45.524 39.191 45.524ZM40.004 37.442C40.09 35.736 40.133 34.12 40.133 32.596C40.133 26.311 39.059 20.562 36.903 15.356C34.028 8.44 29.903 4.98201 24.517 4.98201C19.841 4.98201 16.392 7.367 14.142 12.123C12.345 15.806 11.451 20.249 11.451 25.457C11.451 31.023 12.303 35.781 14.01 39.732C16.342 45.119 19.936 47.815 24.787 47.815C30.707 47.815 35.777 44.357 40.004 37.442C40.004 37.442 40.004 37.442 40.004 37.442Z" fill="#0D0F0F" transform="translate(24.211 10.002)" />
  </g>
</svg>