<?xml version="1.0" encoding="utf-8"?>
<svg width="100" height="100" viewBox="0 0 100 100" fill="none" xmlns="http://www.w3.org/2000/svg">
  <g>
    <path d="M100 49.998C100 77.613 77.617 100 50 100C22.387 100 0 77.613 0 49.998C0 22.385 22.387 0 50 0C77.617 0 100 22.385 100 49.998C100 49.998 100 49.998 100 49.998Z" fill="#CAC5C0" />
    <path d="M40.584 64C40.584 64 40.584 60.703 40.584 60.703C45.287 60.182 47.6431 58.816 47.6431 56.621C47.6431 55.039 47.014 53.457 45.7601 51.875C45.7601 51.875 32.7521 35.865 32.7521 35.865C32.7521 35.865 22.4791 47.976 22.4791 47.976C19.9091 50.949 18.6161 53.408 18.6161 55.33C18.6161 58.306 20.9701 60.101 25.6861 60.717C25.6861 60.717 25.6861 64 25.6861 64L0.635071 64C0.635071 64 0.635071 60.713 0.635071 60.713C3.80707 60.104 6.50208 58.961 8.73706 57.297C10.2761 56.074 12.3741 53.926 15.022 50.859C15.022 50.859 30.471 32.944 30.471 32.944C30.471 32.944 12.604 11.284 12.604 11.284C10.289 8.48699 8.48303 6.65099 7.203 5.77399C5.479 4.54899 3.08203 3.76199 0 3.41299C0 3.41299 0 0 0 0L29.539 0C29.539 0 29.539 3.285 29.539 3.285C25.086 4.162 22.863 5.519 22.863 7.359C22.863 8.589 23.457 9.945 24.656 11.431C24.656 11.431 36.472 25.753 36.472 25.753C36.472 25.753 45.98 14.062 45.98 14.062C47.691 11.958 48.55 10.121 48.55 8.542C48.55 5.913 46.445 4.202 42.249 3.413C42.249 3.413 42.249 0 42.249 0L65.761 0C65.761 0 65.761 3.291 65.761 3.291C63.706 3.73 62.288 4.125 61.531 4.479C58.961 5.708 55.035 9.348 49.734 15.399C48.882 16.368 45.281 20.792 38.945 28.684C38.945 28.684 57.922 52.047 57.922 52.047C62.035 57.125 66.227 60.018 70.508 60.713C70.508 60.713 70.508 64 70.508 64L40.584 64L40.584 64Z" fill="#0D0F0F" transform="translate(16 16)" />
  </g>
</svg>