<?xml version="1.0" encoding="utf-8"?>
<svg width="100" height="100" viewBox="0 0 100 100" fill="none" xmlns="http://www.w3.org/2000/svg">
  <g>
    <path d="M100 49.998C100 77.611 77.617 100 50 100C22.387 100 0 77.613 0 49.999C0 22.384 22.387 0 50 0C77.617 0 100 22.384 100 49.998C100 49.998 100 49.998 100 49.998Z" fill="#C9C4BE" />
    <path d="M37.865 49.461C37.865 53.449 38.519 56.254 39.828 57.875C41.137 59.496 43.349 60.306 46.467 60.306C46.467 60.306 47.215 60.211 47.215 60.211L47.215 63.766L18.4189 63.766L18.4189 60.213C18.4189 60.213 19.353 60.213 19.353 60.213C22.47 60.276 24.683 59.496 25.9919 57.875C27.301 56.256 27.955 53.481 27.955 49.556C27.955 49.556 27.955 37.026 27.955 37.026C27.955 37.026 9.62994 10.193 9.62994 10.193C8.88196 9.196 8.22797 8.323 7.66595 7.575C7.10498 6.827 6.57495 6.236 6.07697 5.799C5.26599 5.113 4.40894 4.63 3.50598 4.349C2.60199 4.068 1.43298 3.835 0 3.648C0 3.648 0 0.000999451 0 0.000999451L27.955 0.000999451C27.955 0.000999451 27.955 3.554 27.955 3.554C25.15 3.804 23.247 4.194 22.252 4.722C21.254 5.252 20.756 6.234 20.756 7.667C20.756 8.291 20.8801 8.915 21.129 9.537C21.3781 10.161 21.721 10.815 22.158 11.5C22.158 11.5 36.37 32.069 36.37 32.069C36.37 32.069 46.748 16.829 46.748 16.829C47.744 15.458 48.461 14.274 48.898 13.276C49.333 12.28 49.613 11.345 49.739 10.472C49.739 10.347 49.739 10.223 49.739 10.098C49.739 9.973 49.739 9.849 49.739 9.723C49.739 7.792 49.209 6.357 48.15 5.423C47.09 4.487 45.251 3.896 42.634 3.647C42.634 3.647 42.634 0 42.634 0L65.7271 0C65.7271 0 65.7271 3.553 65.7271 3.553C64.9791 3.678 64.2921 3.849 63.671 4.067C63.047 4.286 62.455 4.582 61.894 4.956C60.8961 5.517 59.868 6.405 58.809 7.621C57.748 8.836 56.472 10.536 54.976 12.717C54.976 12.717 37.866 37.026 37.866 37.026L37.866 49.462L37.865 49.462C37.865 49.462 37.865 49.461 37.865 49.461Z" fill="#0D0F0F" transform="translate(17.045 16.234)" />
  </g>
</svg>