<?xml version="1.0" encoding="utf-8"?>
<svg width="100" height="100" viewBox="0 0 100 100" fill="none" xmlns="http://www.w3.org/2000/svg">
  <g>
    <path d="M100 49.998C100 77.613 77.616 100 50 100C22.387 100 0 77.613 0 49.998C0 22.385 22.387 0 50 0C77.616 0 100 22.385 100 49.998C100 49.998 100 49.998 100 49.998Z" fill="#C9C4BE" />
    <path d="M53.76 63.764L0 63.764L0 61.053L42.635 3.833C42.635 3.833 23.656 3.833 23.656 3.833C20.538 3.896 18.139 4.224 16.456 4.814C14.773 5.408 13.214 6.544 11.781 8.227C11.656 8.353 11.548 8.477 11.454 8.601C11.361 8.727 11.251 8.851 11.127 8.974C10.877 9.349 10.644 9.676 10.4249 9.956C10.2059 10.236 10.0049 10.533 9.81793 10.845C9.75494 11.033 9.66193 11.219 9.5379 11.406C9.4129 11.594 9.2879 11.781 9.16388 11.968C9.0379 12.342 8.88287 12.733 8.6969 13.136C8.50891 13.542 8.28992 14.025 8.04291 14.585C8.04291 14.585 4.6759 14.491 4.6759 14.491L4.6759 0L55.7249 0L55.7249 2.524L12.7179 59.93C12.7179 59.93 31.3229 59.93 31.3229 59.93C34.1279 59.993 36.3559 59.93 38.0079 59.742C39.6579 59.555 41.2009 59.152 42.6359 58.529C42.8229 58.466 42.9938 58.404 43.1498 58.341C43.3058 58.278 43.4448 58.217 43.5709 58.153C44.4438 57.717 45.2849 57.218 46.0948 56.657C46.9039 56.096 47.7148 55.442 48.5259 54.694C49.0869 54.132 49.6479 53.526 50.2089 52.872C50.7698 52.217 51.3619 51.484 51.9858 50.675C51.9858 50.675 54.4169 47.214 54.4169 47.214L57.9689 47.214L53.76 63.764L53.76 63.764Z" fill="#0D0F0F" transform="translate(20.595 16.235)" />
  </g>
</svg>