<?xml version="1.0" encoding="utf-8"?>
<svg width="100" height="100" viewBox="0 0 100 100" fill="none" xmlns="http://www.w3.org/2000/svg">
  <g>
    <g>
      <path d="M0 50C0 22.3858 22.3858 0 50 0C77.6142 0 100 22.3858 100 50C100 77.6142 77.6142 100 50 100C22.3858 100 0 77.6142 0 50Z" fill="#C9C4BE" fill-rule="evenodd" />
      <path d="M86.08 51.064L75.51 63.793C75.51 63.793 72.92 61.205 72.92 61.205C73.927 58.664 74.565 56.326 74.827 54.191C75.089 52.058 74.981 50.082 74.503 48.257C74.455 48.019 74.397 47.79 74.323 47.575C74.252 47.356 74.168 47.153 74.071 46.962C73.688 45.814 73.112 44.733 72.344 43.728C71.577 42.718 70.476 41.498 69.038 40.06C69.038 40.06 61.486 32.365 61.486 32.365C61.486 32.365 26.392 67.461 26.392 67.461C23.323 70.527 21.668 73.19 21.429 75.44C21.188 77.696 22.292 80.045 24.738 82.491C24.738 82.491 25.745 83.352 25.745 83.352L23.012 86.084L0 63.072L2.73199 60.34C2.73199 60.34 3.88202 61.488 3.88202 61.488C6.27902 63.982 8.604 65.111 10.858 64.869C13.111 64.631 15.749 62.998 18.769 59.978C18.769 59.978 53.9341 24.812 53.9341 24.812C53.9341 24.812 46.096 16.974 46.096 16.974C43.8911 14.865 42.009 13.39 40.451 12.552C38.8921 11.712 37.0811 11.364 35.0221 11.509C34.7331 11.509 34.4321 11.521 34.1221 11.544C33.8101 11.569 33.4861 11.605 33.1511 11.651C32.5271 11.7 31.9761 11.77 31.498 11.868C31.018 11.964 30.562 12.034 30.131 12.083C29.9861 12.132 29.855 12.167 29.7361 12.19C29.6161 12.213 29.4601 12.227 29.2681 12.225C28.7401 12.37 28.1401 12.538 27.4701 12.729C26.7971 12.918 25.9591 13.137 24.9521 13.375C24.9521 13.375 22.5791 10.857 22.5791 10.857L35.0191 0L86.08 51.064L86.08 51.064Z" fill="#0D0F0F" transform="translate(8.696 4.784)" />
    </g>
  </g>
</svg>