<?xml version="1.0" encoding="utf-8"?>
<svg width="100" height="100" viewBox="0 0 100 100" fill="none" xmlns="http://www.w3.org/2000/svg">
  <g>
    <path d="M0 50C0 22.3858 22.3858 0 50 0C77.6142 0 100 22.3858 100 50C100 77.6142 77.6142 100 50 100C22.3858 100 0 77.6142 0 50Z" fill="#BAB1AB" fill-rule="evenodd" />
    <path d="M81.3941 40.885C81.3941 46.403 79.3861 50.166 75.3741 52.172C74.2021 52.758 70.5241 53.551 64.3371 54.555C60.3251 55.225 58.3191 56.772 58.3191 59.194C58.3191 59.194 58.3191 69.352 58.3191 69.352C58.3191 69.774 58.4441 71.067 58.6941 73.241C58.6941 73.241 59.0711 77.255 59.0711 77.255C59.0711 78.51 58.7781 80.561 58.1921 83.401C56.6041 83.735 54.7641 84.11 52.6741 84.533C52.0041 82.022 51.6701 80.309 51.6701 79.387C51.6701 78.971 51.7751 78.342 51.9831 77.505C52.1901 76.671 52.2991 76.044 52.2991 75.622C52.2991 75.042 51.7791 73.409 50.74 70.735C50.74 70.735 48.795 70.735 48.795 70.735C48.537 71.153 48.451 71.696 48.535 72.364C48.869 73.786 48.994 74.997 48.912 76.001C47.4901 77.005 45.5251 78.342 43.0171 80.014C42.4311 79.848 42.2241 79.764 42.3881 79.764C42.3881 79.764 42.3881 70.86 42.3881 70.86C42.2241 70.444 41.8041 70.279 41.1341 70.358C41.1341 70.358 39.6301 70.358 39.6301 70.358C39.6301 70.358 38.1261 82.145 38.1261 82.145C36.9521 82.229 35.5341 82.229 33.8621 82.145C33.274 79.387 32.231 75.292 30.7271 69.856C30.7271 69.856 29.7231 69.856 29.7231 69.856C28.8011 72.785 28.3011 74.375 28.217 74.625C28.217 74.959 28.321 75.606 28.531 76.567C28.738 77.529 28.844 78.176 28.844 78.51C28.844 78.76 28.76 79.387 28.594 80.391C28.594 80.391 28.217 83.401 28.217 83.401C28.049 83.567 27.84 83.651 27.59 83.651C25.082 83.651 23.408 83.024 22.574 81.772C21.738 80.516 21.402 78.76 21.57 76.501C21.57 76.501 22.574 61.454 22.574 61.454C22.574 61.202 22.656 60.868 22.824 60.45C22.988 60.032 23.074 59.739 23.074 59.573C23.074 58.903 22.363 57.565 20.943 55.559C20.695 55.477 19.394 55.182 17.056 54.68C15.632 54.346 12.831 53.762 8.65399 52.924C2.883 51.84 0 47.199 0 39.004C0 26.797 5.01801 16.639 15.051 8.529C15.465 10.787 16.178 13.795 17.18 17.558C17.934 17.728 19.565 18.103 22.071 18.687C22.575 18.855 25.124 19.775 29.723 21.447C27.379 20.025 24.33 17.728 20.567 14.549C19.145 12.877 18.434 10.078 18.434 6.149C18.434 5.229 20.024 4.141 23.202 2.885C26.042 1.715 28.177 1.049 29.598 0.879C34.112 0.297001 37.582 0 40.008 0C50.457 0 58.899 2.678 65.336 8.029C63.248 10.455 59.652 13.043 54.553 15.802C56.561 15.886 59.487 15.095 63.332 13.419C67.176 11.749 68.807 10.911 68.223 10.911C68.891 10.911 70.231 12.251 72.237 14.925C73.741 16.931 74.952 18.732 75.874 20.316C78.548 25.084 80.345 30.224 81.267 35.742C81.267 37.668 81.308 39.047 81.392 39.881C81.392 39.881 81.392 40.885 81.392 40.885L81.3941 40.885C81.3941 40.885 81.3941 40.885 81.3941 40.885ZM33.3631 43.143C33.3631 39.549 31.7951 36.141 28.6601 32.92C25.5231 29.701 22.1581 28.094 18.5641 28.094C15.386 28.094 12.5871 29.442 10.162 32.133C7.73605 34.826 6.52505 37.815 6.52505 41.096C6.52505 43.955 7.90405 45.809 10.6641 46.649C12.4201 47.155 14.8831 47.45 18.0621 47.532C18.0621 47.532 24.9601 47.532 24.9601 47.532C30.5581 47.616 33.3631 46.153 33.3631 43.143C33.3631 43.143 33.3631 43.143 33.3631 43.143ZM47.0311 58.696C47.0311 58.696 47.0311 54.807 47.0311 54.807C46.4471 53.721 45.8611 52.592 45.2771 51.42C44.7751 49.746 43.8551 47.406 42.5171 44.395C42.5171 44.395 41.136 59.069 41.136 59.069C41.136 60.241 40.886 60.825 40.384 60.825C40.05 60.825 39.8 60.743 39.632 60.577C39.046 51.714 38.753 47.868 38.753 49.036C38.753 49.036 38.753 44.649 38.753 44.649C38.585 44.395 38.378 44.27 38.128 44.27C35.284 47.2 33.864 51.922 33.864 58.442C33.864 62.038 34.194 64.253 34.866 65.09C35.536 64.924 36.288 64.631 37.124 64.213C37.458 64.045 38.419 63.961 40.011 63.961C41.595 63.961 43.521 64.463 45.777 65.465C46.6131 65.465 47.0311 63.209 47.0311 58.696C47.0311 58.696 47.0311 58.696 47.0311 58.696ZM75.3751 41.221C75.3751 37.854 74.1211 34.846 71.6131 32.196C69.1031 29.548 66.2181 28.221 62.9611 28.221C59.4491 28.221 56.1661 29.828 53.1151 33.047C50.0621 36.266 48.5371 39.631 48.5371 43.143C48.5371 46.071 49.9571 47.532 52.8011 47.532C52.8011 47.532 67.2231 47.532 67.2231 47.532C72.6561 47.45 75.3751 45.346 75.3751 41.221C75.3751 41.221 75.3751 41.221 75.3751 41.221Z" fill="#0D0F0F" transform="translate(9 8)" />
  </g>
</svg>