<?xml version="1.0" encoding="utf-8"?>
<svg width="100" height="100" viewBox="0 0 100 100" fill="none" xmlns="http://www.w3.org/2000/svg">
  <g>
    <path d="M0 50C0 22.3858 22.3858 0 50 0C77.6142 0 100 22.3858 100 50C100 77.6142 77.6142 100 50 100C22.3858 100 0 77.6142 0 50Z" fill="#CAC5C0" fill-rule="evenodd" />
    <g transform="translate(10 10)">
      <path d="M40 0C40 0 46.75 13.5 56.75 23.5C66.75 33.5 80 40 80 40C80 40 66.75 46.5 56.75 56.5C46.75 66.5 40 80 40 80C40 80 33.25 66.5 23.25 56.5C13.25 46.5 0 40 0 40C0 40 13.25 33.5 23.25 23.5C33.25 13.5 40 0 40 0Z" fill="#0D0F0F" fill-rule="evenodd" />
      <path d="M25.5 3.8147e-06C25.5 3.8147e-06 29.8948 9.14482 35.75 15C41.6052 20.8552 50.25 25.2015 50.25 25.2015C50.25 25.2015 41.6052 29.6448 35.75 35.5C29.8948 41.3552 25.5 50.25 25.5 50.25C25.5 50.25 21.1052 41.3552 15.25 35.5C9.39482 29.6448 0 25.2015 0 25.2015C0 25.2015 9.39482 20.8552 15.25 15C21.1052 9.14482 25.5 3.8147e-06 25.5 3.8147e-06Z" fill="#CAC5C0" fill-rule="evenodd" transform="matrix(-0 -1 1 -0 14.75 65.5)" />
    </g>
  </g>
</svg>