<?xml version="1.0" encoding="utf-8"?>
<svg width="100" height="100" viewBox="0 0 100 100" fill="none" xmlns="http://www.w3.org/2000/svg">
  <g>
    <path d="M100 49.998C100 77.613 77.615 100 49.998 100C22.385 100 0 77.613 0 49.998C0 22.385 22.385 0 49.998 0C77.615 0 100 22.385 100 49.998C100 49.998 100 49.998 100 49.998Z" fill="#A3C095" />
    <path d="M87.314 49.84C87.314 51.508 86.669 53.004 85.378 54.338C84.089 55.67 82.608 56.336 80.942 56.336C78.28 56.336 76.319 55.086 75.073 52.588C75.073 52.588 69.202 52.338 69.202 52.338C67.95 52.338 65.493 52.881 61.831 53.963C57.917 55.045 55.667 55.92 55.085 56.586C54.169 57.584 53.421 59.918 52.837 63.582C52.335 66.58 52.089 68.787 52.089 70.203C52.089 72.449 52.441 74.096 53.15 75.137C53.859 76.178 55.316 77.053 57.521 77.76C59.726 78.467 61.082 78.864 61.582 78.947C61.914 78.947 62.455 78.906 63.207 78.822C63.207 78.822 64.705 78.822 64.705 78.822C65.785 78.822 66.91 78.992 68.078 79.322C69.744 79.822 70.453 80.488 70.203 81.322C69.035 81.156 66.996 81.406 64.082 82.072C64.082 82.072 67.578 83.82 67.578 83.82C67.578 84.82 66.162 85.318 63.332 85.318C62.58 85.318 61.561 85.152 60.269 84.82C58.978 84.484 58.124 84.32 57.71 84.32C57.71 84.32 56.085 84.32 56.085 84.32C56.003 85.152 55.751 86.4 55.335 88.066C53.917 87.982 52.255 87.148 50.339 85.568C48.421 83.988 47.216 83.195 46.718 83.195C46.216 83.195 45.507 83.988 44.593 85.568C43.675 87.148 43.218 88.232 43.218 88.816C42.136 88.232 41.222 87.148 40.468 85.568C40.136 84.484 39.761 83.402 39.347 82.32C38.515 82.404 36.972 84.154 34.726 87.568C34.726 87.568 34.099 87.568 34.099 87.568C33.933 87.316 33.304 85.568 32.226 82.32C29.644 81.488 27.23 81.072 24.98 81.072C23.898 81.072 22.232 81.322 19.984 81.82C19.984 81.82 16.488 81.572 16.488 81.572C16.986 81.072 18.443 80.115 20.859 78.699C23.689 77.033 25.855 76.199 27.355 76.199C27.601 76.199 27.933 76.242 28.355 76.324C28.769 76.41 29.105 76.449 29.355 76.449C29.933 76.449 30.873 76.137 32.164 75.511C33.455 74.888 34.203 74.325 34.41 73.827C34.621 73.323 34.726 72.034 34.726 69.952C34.726 65.206 33.476 61.667 30.976 59.335C28.808 57.253 25.23 55.755 20.232 54.837C18.9 59.583 15.152 61.96 8.992 61.96C6.992 61.96 4.994 60.753 2.996 58.337C1 55.921 0 53.714 0 51.716C0 48.634 1.287 46.095 3.869 44.093C1.789 41.931 0.748001 39.724 0.748001 37.476C0.748001 35.392 1.391 33.562 2.684 31.976C3.975 30.398 5.661 29.48 7.743 29.228C7.577 26.566 8.45 24.732 10.366 23.732C9.45 22.818 8.993 21.195 8.993 18.863C8.993 16.115 9.909 13.824 11.741 11.992C13.571 10.16 15.862 9.242 18.61 9.242C21.61 9.242 24.067 10.287 25.981 12.367C28.397 4.123 33.602 0 41.594 0C45.758 0 49.422 1.666 52.588 4.998C53.754 6.246 54.336 6.914 54.336 6.994C53.336 6.994 53.838 6.806 55.836 6.433C57.832 6.058 59.289 5.87 60.209 5.87C63.455 5.87 66.328 7.077 68.828 9.493C70.992 11.659 72.492 14.405 73.326 17.737C73.906 17.821 74.824 18.069 76.074 18.485C77.904 19.405 78.822 20.983 78.822 23.233C78.822 23.651 78.486 24.442 77.822 25.606C83.15 28.604 85.816 32.768 85.816 38.098C85.816 39.596 85.234 41.682 84.068 44.345C86.234 45.592 87.314 47.426 87.314 49.84C87.314 49.84 87.314 49.84 87.314 49.84ZM35.847 55.336C35.847 55.336 35.847 53.713 35.847 53.713C35.847 51.799 34.911 50.049 33.038 48.467C31.163 46.885 29.268 46.094 27.354 46.094C25.02 46.094 22.858 46.635 20.858 47.715C25.271 47.467 30.269 50.008 35.847 55.336C35.847 55.336 35.847 55.336 35.847 55.336ZM33.601 39.847C32.351 38.429 31.269 36.972 30.351 35.474C26.853 36.39 25.105 37.431 25.105 38.595C26.105 38.515 27.562 38.7 29.476 39.159C31.39 39.618 32.767 39.847 33.601 39.847C33.601 39.847 33.601 39.847 33.601 39.847ZM41.222 35.974C41.222 35.974 41.222 30.478 41.222 30.478C39.222 30.146 38.011 29.978 37.599 29.978C37.599 29.978 37.599 31.851 37.599 31.851L41.222 35.974L41.222 35.974ZM57.46 32.476C56.46 32.06 54.585 31.226 51.839 29.978C51.839 29.978 51.839 40.72 51.839 40.72C55.751 38.47 57.624 35.722 57.46 32.476C57.46 32.476 57.46 32.476 57.46 32.476ZM64.327 47.217C64.327 47.217 61.581 43.844 61.581 43.844C59.917 45.011 58.229 46.198 56.52 47.405C54.811 48.612 53.334 49.968 52.088 51.465C55.835 49.463 59.917 48.051 64.327 47.217C64.327 47.217 64.327 47.217 64.327 47.217Z" fill="#0D0F0F" transform="translate(6.448 6.385)" />
  </g>
</svg>