<?xml version="1.0" encoding="utf-8"?>
<svg width="100" height="100" viewBox="0 0 100 100" fill="none" xmlns="http://www.w3.org/2000/svg">
  <g>
    <path d="M0 50C0 22.3858 22.3858 0 50 0C77.6142 0 100 22.3858 100 50C100 77.6142 77.6142 100 50 100C22.3858 100 0 77.6142 0 50Z" fill="#CAC5C0" fill-rule="evenodd" />
    <path d="M43.258 15.068C50.447 5.02499 58.459 0 67.287 0C73.174 0 77.881 1.80301 81.379 5.39301C84.887 8.987 86.6429 13.727 86.6429 19.618C86.6429 25.513 84.887 30.315 81.379 34.038C77.881 37.763 73.215 39.624 67.4139 39.624C58.7559 39.624 50.6989 34.603 43.2579 24.556C35.637 34.603 27.666 39.624 19.356 39.624C13.467 39.624 8.76398 37.786 5.26398 34.106C1.75397 30.42 0 25.635 0 19.751C0 13.86 1.75403 9.099 5.26398 5.46201C8.76398 1.827 13.467 0.00299072 19.356 0.00299072C27.845 -0.00100708 35.806 5.02499 43.258 15.068C43.258 15.068 43.258 15.068 43.258 15.068ZM39.494 19.88C32.738 10.614 25.931 5.978 19.092 5.978C15.022 5.978 11.7761 7.25699 9.35406 9.81C6.92407 12.363 5.71906 15.677 5.71906 19.748C5.71906 23.816 6.92407 27.174 9.35406 29.816C11.7761 32.459 15.0221 33.775 19.092 33.775C25.593 33.775 32.39 29.144 39.494 19.88C39.494 19.88 39.494 19.88 39.494 19.88ZM46.894 19.88C53.915 29.144 60.7941 33.775 67.5521 33.775C71.5251 33.775 74.7161 32.502 77.0951 29.943C79.4741 27.39 80.6691 24.076 80.6691 20.005C80.6691 15.767 79.4741 12.362 77.0951 9.81C74.7161 7.258 71.4411 5.978 67.2861 5.978C63.1301 5.978 59.2291 7.453 55.5951 10.396C53.343 12.214 50.447 15.376 46.894 19.88C46.894 19.88 46.894 19.88 46.894 19.88Z" fill="#0D0F0F" transform="translate(6 30)" />
  </g>
</svg>