<?xml version="1.0" encoding="utf-8"?>
<svg width="100" height="100" viewBox="0 0 100 100" fill="none" xmlns="http://www.w3.org/2000/svg">
  <g>
    <path d="M0 50C0 22.3858 22.3858 0 50 0C77.6142 0 100 22.3858 100 50C100 77.6142 77.6142 100 50 100C22.3858 100 0 77.6142 0 50Z" fill="#0D0F0F" fill-rule="evenodd" />
    <path d="M63 4.49597C63 4.49597 50.352 11.914 50.352 11.914C56.512 21.48 59.59 30.32 59.59 38.426C59.59 45.074 57.621 50.403 53.6949 54.414C49.757 58.432 44.476 60.437 37.824 60.437C26.711 60.437 14.105 54.64 0 43.046C0 43.046 10.094 33.069 10.094 33.069C19.75 41.829 28.824 46.204 37.34 46.204C40.418 46.204 42.5469 45.64 43.719 44.505C44.899 43.368 45.485 41.261 45.485 38.183C45.485 32.021 43.618 26.587 39.891 21.888C39.891 21.888 30.895 34.531 30.895 34.531L30.895 0L63 4.49597L63 4.49597Z" fill="#FFFFFF" transform="translate(16 20)" />
  </g>
</svg>