<?xml version="1.0" encoding="utf-8"?>
<svg width="100" height="100" viewBox="0 0 100 100" fill="none" xmlns="http://www.w3.org/2000/svg">
  <g>
    <path d="M0 50C0 22.3858 22.3858 0 50 0C77.6142 0 100 22.3858 100 50C100 77.6142 77.6142 100 50 100C22.3858 100 0 77.6142 0 50Z" fill="#E49977" fill-rule="evenodd" />
    <path d="M75.742 59.833C72.006 68.745 64.582 73.2 53.467 73.2C51.43 73.2 49.221 73.454 46.846 73.962C43.282 74.726 41.5 75.79 41.5 77.148C41.5 77.572 41.795 78.058 42.391 78.611C42.983 79.164 43.495 79.437 43.918 79.437C41.795 79.437 43.238 79.501 48.244 79.628C53.252 79.755 56.392 79.819 57.666 79.819C50.283 84.145 37.934 86.138 20.623 85.8C14.935 85.716 10.057 83.212 5.98399 78.29C1.99199 73.621 0 68.402 0 62.632C0 56.524 2.05701 51.324 6.17599 47.037C10.289 42.755 15.405 40.61 21.514 40.61C22.871 40.61 24.674 40.907 26.924 41.501C29.172 42.095 30.68 42.392 31.442 42.392C34.581 42.392 38.487 41.099 43.155 38.509C47.821 35.921 50.03 34.626 49.776 34.626C48.926 43.538 45.956 49.522 40.862 52.574C37.214 54.697 35.389 56.775 35.389 58.81C35.389 60.083 36.153 61.103 37.68 61.867C38.868 62.462 40.182 62.759 41.625 62.759C43.832 62.759 45.996 61.403 48.119 58.688C50.238 55.97 51.174 53.511 50.92 51.302C50.666 48.757 50.836 45.699 51.43 42.138C51.598 41.118 52.213 39.868 53.274 38.384C54.335 36.898 55.29 35.986 56.139 35.646C56.139 36.408 55.864 37.683 55.311 39.464C54.758 41.245 54.485 42.564 54.485 43.411C54.485 45.278 54.993 46.72 56.012 47.737C57.537 47.145 58.895 45.235 60.086 42.008C61.102 39.549 61.695 37.172 61.867 34.881C58.301 34.711 54.885 33.1 51.619 30.043C48.351 26.986 46.719 23.678 46.719 20.115C46.719 19.521 46.801 18.927 46.975 18.332C47.483 19.096 48.246 20.285 49.264 21.896C50.707 24.017 51.811 25.078 52.577 25.078C53.593 25.078 54.102 24.017 54.102 21.896C54.102 19.181 53.379 16.72 51.938 14.513C50.325 11.882 48.245 10.566 45.7 10.566C44.511 10.566 42.729 11.203 40.356 12.476C37.977 13.747 35.813 14.386 33.864 14.386C33.268 14.386 30.635 13.62 25.969 12.093C34.199 10.738 38.317 9.507 38.317 8.402C38.317 5.517 32.672 3.564 21.387 2.547C20.282 2.463 18.246 2.293 15.276 2.037C15.614 1.613 18.034 1.146 22.534 0.637C26.352 0.215 29.026 0 30.552 0C50.749 0 63.564 9.805 68.995 29.408C69.929 28.635 70.397 27.342 70.397 25.537C70.397 23.213 69.717 20.287 68.36 16.76C67.848 15.385 67.042 13.319 65.94 10.567C72.897 19.434 76.379 27.837 76.379 35.766C76.379 39.944 75.4 43.739 73.449 47.147C72.179 49.45 69.799 52.391 66.322 55.973C62.842 59.553 60.465 62.325 59.191 64.286C63.859 63.015 66.916 62.038 68.359 61.358C71.582 59.918 74.509 57.752 77.142 54.866C77.142 55.972 76.675 57.628 75.742 59.833C75.742 59.833 75.742 59.833 75.742 59.833ZM20.24 9.80802C20.24 11.333 19.39 12.31 17.695 12.734C17.695 12.734 14.384 13.244 14.384 13.244C13.195 13.838 11.456 16.172 9.16499 20.244C8.909 18.973 8.528 17.191 8.019 14.898C7.25499 14.984 5.98399 15.662 4.201 16.935C3.437 17.529 2.205 18.419 0.508011 19.607C1.02 16.552 2.71501 13.459 5.60201 10.314C8.657 6.83702 11.627 5.09702 14.512 5.09702C18.33 5.09702 20.24 6.66902 20.24 9.80802C20.24 9.80802 20.24 9.80802 20.24 9.80802ZM42.39 21.517C42.39 22.96 41.605 24.171 40.035 25.146C38.465 26.123 36.916 26.611 35.389 26.611C33.352 26.611 31.526 25.465 29.916 23.173C27.961 20.372 25.969 18.548 23.932 17.696C24.356 17.274 24.866 17.061 25.461 17.061C26.225 17.061 27.516 17.655 29.342 18.842C31.166 20.031 32.332 20.625 32.844 20.625C33.268 20.625 33.967 20.031 34.944 18.842C35.919 17.654 37.001 17.061 38.19 17.061C40.99 17.062 42.39 18.548 42.39 21.517C42.39 21.517 42.39 21.517 42.39 21.517Z" fill="#0D0F0F" transform="translate(16.223 6.784)" />
  </g>
</svg>