<?xml version="1.0" encoding="utf-8"?>
<svg width="100.001" height="100" viewBox="0 0 100.001 100" fill="none" xmlns="http://www.w3.org/2000/svg">
  <g>
    <path d="M0 50C0 22.3858 22.3858 0 50 0C77.6142 0 100 22.3858 100 50C100 77.6142 77.6142 100 50 100C22.3858 100 0 77.6142 0 50Z" fill="#C9C4BE" fill-rule="evenodd" transform="translate(0.001 0)" />
    <g transform="translate(0 1.118)">
      <path d="M37.843 88.039L40.198 83.959L50.001 97.763L59.803 83.959L62.158 88.039L66.496 88.09L75.001 92.185L75.708 82.773L77.833 78.987L75.479 74.909L92.334 73.321L85.279 57.932L89.99 57.932L92.203 54.2L100 48.882L92.203 43.563L89.99 39.832L85.279 39.832L92.333 24.441L75.479 22.855L77.833 18.775L75.707 14.993L75 5.581L66.496 9.674L62.158 9.725L59.803 13.804L50 0L40.198 13.804L37.843 9.725L33.505 9.674L25 5.581L24.293 14.993L22.168 18.775L24.523 22.855L7.667 24.442L14.722 39.832L10.011 39.832L7.798 43.564L0 48.882L7.797 54.2L10.011 57.932L14.722 57.932L7.668 73.323L24.523 74.909L22.168 78.987L24.293 82.771L25.001 92.185L33.505 88.091L37.843 88.039Z" fill="#0D0F0F" fill-rule="evenodd" />
      <path d="M25.62 66.493L40.725 42.157L55.83 66.493L55.83 70.541L59.334 72.564L62.841 70.54L62.841 66.494L59.334 64.47L45.813 39.22L74.442 38.305L77.948 40.33L81.452 38.307L81.452 34.258L77.948 32.235L74.442 34.258L45.813 33.345L59.336 8.095L62.842 6.071L62.842 2.025L59.336 0.000999451L55.832 2.024L55.83 6.071L40.726 30.407L25.621 6.071L25.62 2.023L22.117 0L18.61 2.025L18.61 6.071L22.116 8.095L35.638 33.345L7.01 34.258L3.503 32.235L0 34.257L0 38.305L3.503 40.329L7.01 38.305L35.638 39.22L22.115 64.47L18.61 66.493L18.609 70.54L22.115 72.563L25.62 70.54L25.62 66.493Z" fill="#FFFFFF" fill-rule="evenodd" transform="translate(9.275 12.6)" />
    </g>
    <path d="M14.1 12.289L7.05 24.577L0 12.289L7.05 0L14.1 12.289Z" fill="#FFFFFF" fill-rule="evenodd" transform="translate(42.951 10.104)" />
    <path d="M14.167 0.0380001L21.284 12.288L7.117 12.249L0 0L14.167 0.0380001Z" fill="#FFFFFF" fill-rule="evenodd" transform="translate(15.45 30.052)" />
    <path d="M7.117 0.0379982L21.284 0L14.167 12.249L0 12.288L7.117 0.0379982Z" fill="#FFFFFF" fill-rule="evenodd" transform="translate(15.449 57.659)" />
    <path d="M0 12.289L7.051 0L14.101 12.289L7.051 24.578L0 12.289Z" fill="#FFFFFF" fill-rule="evenodd" transform="translate(42.949 65.318)" />
    <path d="M7.116 12.25L0 0L14.166 0.0390015L21.283 12.287L7.116 12.25Z" fill="#FFFFFF" fill-rule="evenodd" transform="translate(63.268 57.66)" />
    <path d="M14.168 12.25L0 12.288L7.117 0.0389996L21.283 0L14.168 12.25Z" fill="#FFFFFF" fill-rule="evenodd" transform="translate(63.268 30.053)" />
  </g>
</svg>