<?xml version="1.0" encoding="utf-8"?>
<svg width="100" height="100" viewBox="0 0 100 100" fill="none" xmlns="http://www.w3.org/2000/svg">
  <g>
    <path d="M0 50C0 22.3858 22.3858 0 50 0C77.6142 0 100 22.3858 100 50C100 77.6142 77.6142 100 50 100C22.3858 100 0 77.6142 0 50Z" fill="#CAC5C0" fill-rule="evenodd" />
    <path d="M62.9991 33.468L26.9951 33.468C26.9951 33.468 40.1801 24.0851 40.1801 24.0851C35.282 20.1981 29.6141 18.257 23.196 18.257C19.985 18.257 17.782 18.8701 16.606 20.093C15.422 21.32 14.829 23.5381 14.829 26.747C14.829 35.62 19.392 45.087 28.52 55.143C28.52 55.143 18.129 65.664 18.129 65.664C6.039 50.959 0 37.82 0 26.24C0 19.312 2.086 13.793 6.27002 9.69501C10.45 5.59702 16.016 3.547 22.938 3.547C31.391 3.547 40.602 6.76199 50.579 13.182C50.579 13.182 58.307 0 58.307 0L62.9991 33.468L62.9991 33.468Z" fill="#0D0F0F" transform="translate(22 25)" />
  </g>
</svg>