<?xml version="1.0" encoding="utf-8"?>
<svg width="100" height="100" viewBox="0 0 100 100" fill="none" xmlns="http://www.w3.org/2000/svg">
  <g>
    <path d="M0 50C0 22.3858 22.3858 0 50 0C77.6142 0 100 22.3858 100 50C100 77.6142 77.6142 100 50 100C22.3858 100 0 77.6142 0 50Z" fill="#C1D7E9" fill-rule="evenodd" />
    <path d="M42.936 73.176C38.149 78.047 32.252 80.483 25.248 80.483C17.387 80.483 11.15 77.793 6.53699 72.41C2.17798 67.283 0 60.748 0 52.804C0 44.261 3.71701 34.518 11.15 23.58C17.214 14.611 24.349 6.75 32.552 0C31.355 5.469 30.759 9.355 30.759 11.662C30.759 16.961 32.423 22.129 35.755 27.17C39.857 33.15 42.974 37.596 45.112 40.498C48.444 45.541 50.11 50.453 50.11 55.235C50.112 62.328 47.719 68.309 42.936 73.176C42.936 73.176 42.936 73.176 42.936 73.176ZM42.807 45.814C41.526 42.953 40.03 41.052 38.321 40.111C38.577 40.625 38.706 41.351 38.706 42.291C38.706 44.086 38.194 46.648 37.167 49.98C37.167 49.98 35.503 55.107 35.503 55.107C35.503 58.097 36.995 59.593 39.987 59.593C43.147 59.593 44.729 57.498 44.729 53.312C44.729 51.178 44.089 48.68 42.807 45.814C42.807 45.814 42.807 45.814 42.807 45.814Z" fill="#0D0F0F" transform="translate(24 11)" />
  </g>
</svg>