<?xml version="1.0" encoding="utf-8"?>
<svg width="100" height="100" viewBox="0 0 100 100" fill="none" xmlns="http://www.w3.org/2000/svg">
  <g>
    <path d="M0 50C0 22.3858 22.3858 0 50 0C77.6142 0 100 22.3858 100 50C100 77.6142 77.6142 100 50 100C22.3858 100 0 77.6142 0 50Z" fill="#F8F6D8" fill-rule="evenodd" />
    <path d="M95.382 55.013C88.821 51.314 84.614 49.462 82.765 49.462C81.421 49.462 80.37 50.494 79.611 52.554C78.853 54.617 77.341 55.644 75.07 55.644C74.144 55.644 72.252 55.308 69.392 54.636C67.794 57.076 66.994 58.632 66.994 59.304C66.994 60.23 67.683 61.32 69.058 62.585C70.433 63.847 71.593 64.476 72.54 64.476C73.142 64.476 73.956 64.351 74.989 64.097C76.02 63.847 76.71 63.72 77.053 63.72C78.086 63.72 78.6 65.613 78.6 69.398C78.6 73.015 77.76 78.566 76.077 86.052C73.889 77.472 71.577 73.181 69.139 73.181C68.801 73.181 68.108 73.433 67.057 73.941C66.004 74.443 65.227 74.695 64.723 74.695C62.285 74.695 60.098 72.468 58.162 68.007C54.293 68.597 52.357 70.574 52.357 73.941C52.357 75.625 53.134 76.968 54.693 77.976C56.246 78.984 57.027 79.703 57.027 80.121C57.027 82.394 53.703 85.885 47.058 90.594C43.527 93.117 41.085 94.883 39.742 95.891C40.916 94.379 42.094 92.404 43.275 89.963C44.619 87.188 45.293 85.043 45.293 83.527C45.293 82.687 44.326 81.507 42.391 79.994C40.455 78.482 39.491 76.883 39.491 75.201C39.491 73.773 39.993 72.008 41.003 69.902C39.909 68.64 38.608 68.007 37.093 68.007C33.728 68.007 32.0479 69.103 32.0479 71.287C32.0479 69.773 32.0479 70.908 32.0479 74.693C32.1299 77.469 30.028 78.857 25.7369 78.857C22.4579 78.857 16.9459 78.098 9.20996 76.586C17.9579 74.398 22.331 71.875 22.331 69.016C22.331 69.352 22.163 68.344 21.827 65.988C21.489 63.384 23.341 61.027 27.378 58.925C26.62 55.058 24.6049 53.119 21.321 53.119C20.817 53.119 19.8889 54.003 18.546 55.766C17.2 57.537 15.939 58.418 14.763 58.418C12.743 58.418 10.134 56.232 6.94098 51.855C5.42499 49.671 3.11096 46.431 0 42.14C1.93402 43.152 3.86902 44.16 5.80499 45.171C8.328 46.347 10.346 46.937 11.862 46.937C13.04 46.937 14.196 45.906 15.331 43.845C16.466 41.784 17.96 40.753 19.81 40.753C20.064 40.753 21.746 41.257 24.857 42.269C26.453 39.83 27.255 38.021 27.255 36.843C27.255 35.833 26.644 34.677 25.425 33.372C24.204 32.069 23.091 31.417 22.081 31.417C21.659 31.417 21.009 31.542 20.124 31.796C19.243 32.048 18.591 32.175 18.171 32.175C16.655 32.175 15.898 30.282 15.898 26.497C15.898 25.487 16.867 19.727 18.802 9.212C18.716 10.472 19.263 12.829 20.441 16.276C21.871 20.483 23.552 22.585 25.49 22.585C25.824 22.585 26.498 22.333 27.508 21.827C28.516 21.323 29.315 21.073 29.904 21.073C31.838 21.073 33.435 22.167 34.699 24.35C34.699 24.35 36.592 27.756 36.592 27.756C38.358 27.756 39.83 27.127 41.006 25.865C42.1841 24.603 42.7741 23.088 42.7741 21.322C42.7741 19.472 41.997 18.062 40.44 17.095C38.881 16.128 38.104 15.392 38.104 14.888C38.104 13.12 40.881 10.136 46.432 5.93C50.889 2.567 53.791 0.59 55.139 0C51.522 4.879 49.713 8.451 49.713 10.724C49.713 11.902 50.4261 13.165 51.858 14.509C53.624 16.107 54.633 17.243 54.885 17.915C55.725 19.853 55.6411 22.501 54.633 25.864C56.904 27.464 58.627 28.26 59.807 28.26C62.243 28.26 63.465 26.996 63.465 24.475C63.465 24.223 63.36 23.424 63.151 22.079C62.938 20.735 62.878 19.977 62.96 19.808C63.296 18.63 65.61 18.04 69.899 18.04C72.59 18.04 78.182 18.798 86.68 20.313C84.828 20.817 82.053 21.573 78.354 22.583C74.989 23.593 73.305 24.728 73.305 25.989C73.305 26.579 73.514 27.587 73.936 29.016C74.356 30.448 74.569 31.496 74.569 32.172C74.569 33.348 73.811 34.442 72.298 35.449C72.298 35.449 68.007 38.48 68.007 38.48C69.0171 40.332 69.6891 41.425 70.027 41.759C70.867 42.767 72.002 43.273 73.433 43.273C74.4431 43.273 75.367 42.39 76.208 40.625C77.048 38.857 78.396 37.975 80.245 37.975C82.515 37.975 85.083 40.079 87.942 44.286C89.535 46.646 92.017 50.219 95.382 55.013C95.382 55.013 95.382 55.013 95.382 55.013ZM67.375 47.697C67.375 42.316 65.396 37.646 61.443 33.691C57.49 29.738 52.822 27.761 47.439 27.761C41.97 27.761 37.259 29.718 33.308 33.63C29.3549 37.54 27.335 42.23 27.253 47.696C27.167 53.079 29.1649 57.726 33.245 61.634C37.325 65.546 42.056 67.503 47.438 67.503C53.157 67.503 57.93 65.63 61.756 61.888C65.586 58.148 67.457 53.418 67.375 47.697C67.375 47.697 67.375 47.697 67.375 47.697ZM65.482 47.697C65.482 52.828 63.757 57.078 60.308 60.437C56.857 63.804 52.568 65.486 47.439 65.486C42.476 65.486 38.228 63.763 34.697 60.312C31.166 56.867 29.3979 52.66 29.3979 47.697C29.3979 42.82 31.183 38.633 34.757 35.144C38.335 31.654 42.56 29.906 47.439 29.906C52.316 29.906 56.543 31.672 60.119 35.207C63.693 38.74 65.482 42.902 65.482 47.697C65.482 47.697 65.482 47.697 65.482 47.697Z" fill="#0D0F0F" transform="translate(2 2)" />
  </g>
</svg>